<svg width="90" height="90" viewBox="0 0 90 90" fill="none" xmlns="http://www.w3.org/2000/svg">
<path d="M69.2209 65.4387H66.8488V38.6817C66.8488 37.2097 66.1846 35.8327 65.0223 34.9305L62.1047 32.6513L62.0572 26.8345C62.0572 25.5287 60.9898 24.4841 59.6851 24.4841H51.5963L48.4177 22.015C46.7098 20.6617 44.2902 20.6617 42.5823 22.015L25.9777 34.9305C24.8153 35.8327 24.1512 37.2097 24.1512 38.658L24.0326 65.4387H21.7791C20.8065 65.4387 20 66.246 20 67.2194C20 68.1928 20.8065 69 21.7791 69H69.2209C70.1935 69 71 68.1928 71 67.2194C71 66.246 70.1935 65.4387 69.2209 65.4387ZM32.4535 45.2582V41.6969C32.4535 40.3911 33.5209 39.3227 34.8256 39.3227H39.5698C40.8744 39.3227 41.9419 40.3911 41.9419 41.6969V45.2582C41.9419 46.564 40.8744 47.6324 39.5698 47.6324H34.8256C33.5209 47.6324 32.4535 46.564 32.4535 45.2582ZM51.4302 65.4387H39.5698V58.9097C39.5698 56.9392 41.1591 55.3485 43.1279 55.3485H47.8721C49.8409 55.3485 51.4302 56.9392 51.4302 58.9097V65.4387ZM58.5465 45.2582C58.5465 46.564 57.4791 47.6324 56.1744 47.6324H51.4302C50.1256 47.6324 49.0581 46.564 49.0581 45.2582V41.6969C49.0581 40.3911 50.1256 39.3227 51.4302 39.3227H56.1744C57.4791 39.3227 58.5465 40.3911 58.5465 41.6969V45.2582Z" fill="#4116F7"/>
<rect x="2" y="2" width="86" height="86" rx="18" stroke="#4116F7" stroke-width="4"/>
</svg>
