<svg width="13" height="12" viewBox="0 0 13 12" fill="none" xmlns="http://www.w3.org/2000/svg">
<path d="M2.10783 2.91497C2.10783 2.44684 2.3224 1.99788 2.70434 1.66686C3.08629 1.33585 3.60431 1.14988 4.14446 1.14988H5.36645V1.85592H6.1811V0.443848H4.14446C3.38825 0.443848 2.66302 0.704197 2.1283 1.16762C1.59357 1.63105 1.29317 2.25959 1.29317 2.91497V5.38609H0.478516V6.09212H1.29317V7.15118C1.29299 7.7455 1.53998 8.31998 1.98885 8.7693C2.43772 9.21862 3.05841 9.51268 3.73714 9.59758V11.0344H4.55179V9.6223H8.62507V11.0344H9.43972V9.59758C10.1185 9.51268 10.7391 9.21862 11.188 8.7693C11.6369 8.31998 11.8839 7.7455 11.8837 7.15118V6.09212H12.6983V5.38609H2.10783V2.91497Z" fill="#8F9BBA"/>
</svg>
