<svg width="12" height="9" viewBox="0 0 12 9" fill="none" xmlns="http://www.w3.org/2000/svg">
<path d="M0 8.4051V4.91372C0 4.65186 0.0522738 4.41426 0.156821 4.20089C0.261369 3.98753 0.399181 3.79842 0.570259 3.63355V2.00423C0.570259 1.51932 0.736584 1.10714 1.06923 0.767704C1.40189 0.428265 1.80582 0.258545 2.28103 0.258545H4.56207C4.78067 0.258545 4.98501 0.299859 5.1751 0.382489C5.36518 0.465118 5.54101 0.578976 5.70259 0.724062C5.86416 0.578588 6.03999 0.46473 6.23008 0.382489C6.42016 0.300247 6.6245 0.258933 6.8431 0.258545H9.12414C9.59935 0.258545 10.0033 0.428265 10.3359 0.767704C10.6686 1.10714 10.8349 1.51932 10.8349 2.00423V3.63355C11.006 3.79842 11.1438 3.98753 11.2484 4.20089C11.3529 4.41426 11.4052 4.65186 11.4052 4.91372V8.4051H10.2647V7.2413H1.14052V8.4051H0ZM6.27284 3.16803H9.6944V2.00423C9.6944 1.83936 9.63965 1.70126 9.53016 1.58992C9.42067 1.47859 9.28533 1.42273 9.12414 1.42234H6.8431C6.68153 1.42234 6.54619 1.4782 6.43708 1.58992C6.32797 1.70165 6.27322 1.83975 6.27284 2.00423V3.16803ZM1.71078 3.16803H5.13233V2.00423C5.13233 1.83936 5.07758 1.70126 4.96809 1.58992C4.8586 1.47859 4.72326 1.42273 4.56207 1.42234H2.28103C2.11946 1.42234 1.98412 1.4782 1.87501 1.58992C1.7659 1.70165 1.71116 1.83975 1.71078 2.00423V3.16803Z" fill="#8F9BBA"/>
</svg>
