<svg width="90" height="90" viewBox="0 0 90 90" fill="none" xmlns="http://www.w3.org/2000/svg">
<path d="M56.6673 70.0834H33.334C32.3773 70.0834 31.584 69.29 31.584 68.3334C31.584 67.3767 32.3773 66.5834 33.334 66.5834H56.6673C57.624 66.5834 58.4173 67.3767 58.4173 68.3334C58.4173 69.29 57.624 70.0834 56.6673 70.0834Z" fill="#4116F7"/>
<path d="M58.9994 21.6667H30.9993C25.8427 21.6667 21.666 25.8434 21.666 31V52C21.666 57.1567 25.8427 61.3334 30.9993 61.3334H58.9994C64.156 61.3334 68.3327 57.1567 68.3327 52V31C68.3327 25.8434 64.156 21.6667 58.9994 21.6667ZM40.3093 34.08C41.616 34.08 42.666 35.13 42.666 36.4134C42.666 37.6967 41.616 38.7467 40.3327 38.7467C39.0494 38.7467 37.9993 37.6967 37.9993 36.4134C37.9993 35.13 39.026 34.08 40.3093 34.08ZM32.9593 34.08C34.266 34.08 35.316 35.13 35.316 36.4134C35.316 37.6967 34.266 38.7467 32.9827 38.7467C31.6993 38.7467 30.6493 37.6967 30.6493 36.4134C30.6493 35.13 31.6527 34.08 32.9593 34.08ZM57.2727 51.6734H32.7727C31.7927 51.6734 30.9993 50.88 30.9993 49.9234C30.9993 48.9667 31.7693 48.1734 32.726 48.1734H57.296C58.2527 48.1734 59.046 48.9667 59.046 49.9234C59.046 50.88 58.2527 51.6734 57.2727 51.6734ZM57.2727 38.1634H48.686C47.7294 38.1634 46.936 37.37 46.936 36.4134C46.936 35.4567 47.7294 34.6634 48.686 34.6634H57.2727C58.2294 34.6634 59.0227 35.4567 59.0227 36.4134C59.0227 37.37 58.2527 38.1634 57.2727 38.1634Z" fill="#4116F7"/>
<rect x="2" y="2" width="86" height="86" rx="18" stroke="#4116F7" stroke-width="4"/>
</svg>
