<svg width="68" height="68" viewBox="0 0 68 68" fill="none" xmlns="http://www.w3.org/2000/svg">
<rect width="68" height="68" rx="34" fill="#DCF0FF"/>
<path d="M27.8063 23C25.1519 23 23 25.1519 23 27.8063V41.1937C23 43.8481 25.1519 46 27.8063 46H41.1937C43.8481 46 46 43.8481 46 41.1937V27.8063C46 25.1519 43.8481 23 41.1937 23H27.8063ZM37.6707 30.235C37.8319 30.226 38.0023 30.2847 38.1524 30.4391L41.9267 33.9932C41.9268 33.9934 41.927 33.9934 41.9272 33.9934C41.9273 33.9934 41.9275 33.9935 41.9276 33.9936C41.9844 34.0378 42.0332 34.0912 42.0722 34.1517C42.077 34.1587 42.0811 34.1656 42.0857 34.1728C42.0938 34.1865 42.1012 34.2004 42.1082 34.2147C42.1134 34.2239 42.1187 34.2332 42.1232 34.2427C42.1233 34.2431 42.1237 34.2434 42.1241 34.2438C42.1242 34.244 42.1242 34.2442 42.1242 34.2444C42.1242 34.2445 42.1243 34.2447 42.1243 34.2448C42.1416 34.2809 42.1549 34.3172 42.1642 34.3539C42.1645 34.355 42.1649 34.3558 42.1652 34.3569C42.1654 34.3576 42.1656 34.3582 42.1658 34.3589C42.1733 34.3897 42.1781 34.4206 42.1802 34.4512C42.1818 34.4674 42.1825 34.4837 42.1827 34.5001C42.1825 34.5165 42.1818 34.5327 42.1802 34.5489C42.1779 34.5796 42.1733 34.61 42.1658 34.6407C42.1656 34.6414 42.1654 34.642 42.1652 34.6427C42.1651 34.6437 42.1645 34.6446 42.1642 34.6457C42.1549 34.6823 42.1416 34.7186 42.1244 34.7547C42.1243 34.7549 42.1242 34.7551 42.1242 34.7553C42.1242 34.7554 42.1242 34.7556 42.1241 34.7557C42.1238 34.7565 42.1231 34.7572 42.1228 34.758C42.1194 34.7648 42.1155 34.7717 42.1118 34.7785C42.1043 34.794 42.0961 34.8092 42.0873 34.824C42.0831 34.8307 42.08 34.8377 42.0754 34.8445C42.0365 34.9049 41.9879 34.9584 41.9312 35.0028L38.1522 38.5605C37.5516 39.1787 36.6305 38.2576 37.2488 37.6571C38.2094 36.7525 37.5693 35.1389 36.2498 35.1389H35.4932C35.0267 35.1389 34.5794 35.3244 34.2495 35.6541C33.8377 36.0656 33.4161 36.4866 33.0357 36.8679C32.7702 37.1339 32.3337 37.1144 32.0928 36.826L30.6335 35.0751C29.9421 34.2455 28.6877 34.1887 27.924 34.9523C27.3213 35.5548 26.4177 34.6507 27.0206 34.0483L28.9373 32.1316C29.0533 32.0158 29.2095 31.9489 29.3735 31.945C29.5683 31.9404 29.7548 32.0249 29.8796 32.1746L31.3393 33.9261C32.0304 34.7554 33.2853 34.8132 34.0477 34.0489C34.1677 33.9287 34.3304 33.8612 34.5001 33.8612H36.2494C37.5692 33.8612 38.2094 32.2472 37.2485 31.3425C36.7852 30.8921 37.1873 30.2614 37.6708 30.235L37.6707 30.235Z" fill="#4116F7"/>
</svg>
