<svg width="22" height="22" viewBox="0 0 22 22" fill="none" xmlns="http://www.w3.org/2000/svg">
<path d="M14.92 1.65C15.6331 1.65 16.3392 1.79045 16.998 2.06333C17.6568 2.33622 18.2554 2.73619 18.7596 3.24041C19.2638 3.74463 19.6638 4.34323 19.9367 5.00203C20.2095 5.66083 20.35 6.36692 20.35 7.08V14.92C20.35 15.6331 20.2095 16.3392 19.9367 16.998C19.6638 17.6568 19.2638 18.2554 18.7596 18.7596C18.2554 19.2638 17.6568 19.6638 16.998 19.9367C16.3392 20.2095 15.6331 20.35 14.92 20.35H7.08C5.63987 20.35 4.25873 19.7779 3.24041 18.7596C2.22209 17.7413 1.65 16.3601 1.65 14.92V7.08C1.65 5.63987 2.22209 4.25873 3.24041 3.24041C4.25873 2.22209 5.63987 1.65 7.08 1.65H14.92ZM11 9.65L8.36 7C8.17508 6.8285 7.9322 6.73321 7.68 6.73321C7.4278 6.73321 7.18492 6.8285 7 7C6.8285 7.18492 6.73321 7.4278 6.73321 7.68C6.73321 7.9322 6.8285 8.17508 7 8.36L9.68 11L7 13.64C6.8285 13.8249 6.73321 14.0678 6.73321 14.32C6.73321 14.5722 6.8285 14.8151 7 15C7.18313 15.1631 7.41979 15.2532 7.665 15.2532C7.91021 15.2532 8.14687 15.1631 8.33 15L11 12.32L13.64 15C13.8249 15.1715 14.0678 15.2668 14.32 15.2668C14.5722 15.2668 14.8151 15.1715 15 15C15.1631 14.8169 15.2532 14.5802 15.2532 14.335C15.2532 14.0898 15.1631 13.8531 15 13.67L12.32 11L15 8.36C15.1715 8.17508 15.2668 7.9322 15.2668 7.68C15.2668 7.4278 15.1715 7.18492 15 7C14.8169 6.83694 14.5802 6.74684 14.335 6.74684C14.0898 6.74684 13.8531 6.83694 13.67 7L11 9.68M14.92 0.25H7.08C5.26857 0.25 3.53133 0.969587 2.25046 2.25046C0.969587 3.53133 0.25 5.26857 0.25 7.08V14.92C0.25 16.7314 0.969587 18.4687 2.25046 19.7495C3.53133 21.0304 5.26857 21.75 7.08 21.75H14.92C16.7314 21.75 18.4687 21.0304 19.7495 19.7495C21.0304 18.4687 21.75 16.7314 21.75 14.92V7.08C21.75 5.26857 21.0304 3.53133 19.7495 2.25046C18.4687 0.969587 16.7314 0.25 14.92 0.25Z" fill="black"/>
</svg>
