<svg width="68" height="68" viewBox="0 0 68 68" fill="none" xmlns="http://www.w3.org/2000/svg">
<rect width="68" height="68" rx="34" fill="#DCF0FF"/>
<path d="M48.3091 32.842L47.7058 32.7468C46.5945 32.5563 45.4515 31.6038 44.8166 30.7784C44.3721 30.207 43.5467 30.0799 42.9115 30.5879C42.2446 31.0959 41.1652 30.3974 40.816 29.3814C40.435 28.3653 39.8318 28.0796 39.1332 28.1115C38.4348 28.1432 37.9267 28.6195 37.2282 29.8258C36.5297 31.0324 35.8311 30.6831 35.2279 30.302C34.6246 29.9211 34.0214 30.0163 33.2276 31.0957C32.4339 32.1752 31.3861 32.4928 29.9258 32.8101V33.0006L30.021 33.4134H31.7994L30.8468 34.493V36.4297H31.831L31.5453 36.7154C31.5453 36.7154 31.2277 37.033 30.8785 37.6044C30.8468 37.668 30.7516 37.7949 30.7516 37.8584C30.7832 37.8901 30.8468 37.8901 30.9104 37.922C31.0692 37.9856 31.2913 38.0808 31.6088 38.2713C32.4978 38.811 32.4026 39.827 32.4026 39.9856L32.4343 46.8435L37.0698 46.7799V42.462V42.4303C37.0698 41.3826 37.9271 40.5253 38.9749 40.5253C40.0227 40.5253 40.9116 41.3826 40.9116 42.4303V42.462V46.7164L48.2457 46.6212L48.3091 32.842Z" fill="#4116F7"/>
<path d="M32.3519 39.6846C32.3519 39.5577 32.3836 38.7004 31.717 38.2876C31.4313 38.0971 31.209 38.0335 31.0821 37.97C30.9233 37.9064 30.7964 37.8431 30.7328 37.716C30.7012 37.5891 30.7645 37.4303 30.8916 37.2079C31.0821 36.9222 31.2409 36.6682 31.3678 36.5094L30.7962 36.5097V34.1284L31.3675 33.5251H29.8118V31.8108L30.3198 31.2075H29.7801V29.8424L30.2562 29.4296H29.2085L29.1449 29.366C29.1133 29.3343 28.6369 28.7311 28.3829 27.8421C28.1606 26.9848 28.1606 26.2546 28.1606 26.2229V26.1594L28.351 26.0006C28.1922 25.9053 27.9382 25.7782 27.6842 25.5561C27.5573 25.4608 27.4618 25.3656 27.3349 25.2385C27.0809 25.0161 26.8269 24.794 26.6364 24.6988C26.5729 24.6671 26.5095 24.6671 26.4141 24.6352V22.9842H26.9863V22.6349H26.3831V22H26.0338V22.6349H25.4624V22.9842H26.0338V24.6034H26.0021C25.526 24.6669 25.2719 24.9209 25.0179 25.2067C24.9227 25.3019 24.7956 25.429 24.7004 25.5242C24.4463 25.7466 24.1923 25.8735 24.0335 25.9687L24.224 26.1275V26.1911C24.224 26.2227 24.224 26.9848 24.0016 27.8102C23.7793 28.6675 23.2714 29.3025 23.2396 29.3342L23.176 29.3977H22.1283L22.6044 29.8105V31.1756H22.0647L22.5728 31.7789V33.4933H21.0176L21.589 34.0966V36.4778H20.9857C21.1126 36.6366 21.2714 36.8587 21.4618 37.1763C21.6206 37.4303 21.6842 37.5572 21.6206 37.716C21.589 37.8429 21.4618 37.9065 21.2714 37.97C21.1126 38.0336 20.9221 38.1288 20.6364 38.2876C19.938 38.7002 20.0015 39.4939 20.0015 39.6527V45.0501L32.3838 46.5423L32.3519 39.6846ZM27.3038 30.1598C27.7483 30.1598 28.0976 30.5726 28.0976 31.0804V33.2076H26.5101V31.0804C26.5101 30.5407 26.891 30.1598 27.3038 30.1598ZM25.9068 26.5403C26.3513 26.5403 26.7005 26.9531 26.7005 27.4293V29.4929H25.1131V27.4293C25.1131 26.9213 25.494 26.5403 25.9068 26.5403ZM24.8274 36.1287V38.8591H22.4462V36.1287V36.097C22.4462 35.4301 22.9859 34.9223 23.6208 34.9223C24.3193 34.9223 24.8274 35.462 24.8274 36.1286V36.1287ZM25.2719 31.0806V33.2078H23.6844V31.0806C23.6844 30.5725 24.0336 30.1599 24.4781 30.1599C24.9226 30.1599 25.2719 30.5409 25.2719 31.0806ZM28.5421 36.1287V38.8591H26.1608V36.1287V36.097C26.1608 35.4301 26.7006 34.9223 27.3355 34.9223C28.034 34.9223 28.5421 35.462 28.5421 36.1286V36.1287Z" fill="#4116F7"/>
</svg>
