<svg width="90" height="90" viewBox="0 0 90 90" fill="none" xmlns="http://www.w3.org/2000/svg">
<path d="M54.9898 25.8617V22.4167C54.9898 21.5113 54.2389 20.7604 53.3335 20.7604C52.4281 20.7604 51.6773 21.5113 51.6773 22.4167V25.7292H37.3231V22.4167C37.3231 21.5113 36.5723 20.7604 35.6668 20.7604C34.7614 20.7604 34.0106 21.5113 34.0106 22.4167V25.8617C28.0481 26.4138 25.1552 29.9692 24.7135 35.2471C24.6693 35.8875 25.1993 36.4175 25.8177 36.4175H63.1827C63.8231 36.4175 64.3531 35.8654 64.2868 35.2471C63.8452 29.9692 60.9523 26.4138 54.9898 25.8617Z" fill="#4116F7"/>
<path d="M59.9583 51.125C55.0779 51.125 51.125 55.0779 51.125 59.9583C51.125 61.6146 51.5887 63.1825 52.4058 64.5075C53.9296 67.0692 56.7342 68.7917 59.9583 68.7917C63.1825 68.7917 65.9871 67.0692 67.5108 64.5075C68.3279 63.1825 68.7917 61.6146 68.7917 59.9583C68.7917 55.0779 64.8387 51.125 59.9583 51.125ZM64.5296 59.0087L59.8258 63.3592C59.5167 63.6463 59.0971 63.8008 58.6996 63.8008C58.28 63.8008 57.8604 63.6463 57.5292 63.315L55.3429 61.1288C54.7025 60.4883 54.7025 59.4283 55.3429 58.7879C55.9833 58.1475 57.0433 58.1475 57.6837 58.7879L58.7438 59.8479L62.2771 56.5796C62.9396 55.9612 63.9996 56.0054 64.6179 56.6679C65.2363 57.3304 65.1921 58.3683 64.5296 59.0087Z" fill="#4116F7"/>
<path d="M62.1667 39.73H26.8333C25.6187 39.73 24.625 40.7238 24.625 41.9384V55.5417C24.625 62.1667 27.9375 66.5834 35.6667 66.5834H46.5537C48.0775 66.5834 49.1375 65.1038 48.6517 63.6684C48.21 62.3875 47.8346 60.9742 47.8346 59.9584C47.8346 53.2671 53.2892 47.8125 59.9804 47.8125C60.6208 47.8125 61.2612 47.8567 61.8796 47.9671C63.2046 48.1659 64.3971 47.128 64.3971 45.803V41.9605C64.375 40.7238 63.3812 39.73 62.1667 39.73ZM38.3387 58.2138C37.9192 58.6113 37.345 58.8542 36.7708 58.8542C36.1967 58.8542 35.6225 58.6113 35.2029 58.2138C34.8054 57.7942 34.5625 57.22 34.5625 56.6459C34.5625 56.0717 34.8054 55.4975 35.2029 55.078C35.4237 54.8792 35.6446 54.7246 35.9317 54.6142C36.7487 54.2609 37.7204 54.4596 38.3387 55.078C38.7362 55.4975 38.9792 56.0717 38.9792 56.6459C38.9792 57.22 38.7362 57.7942 38.3387 58.2138ZM38.3387 50.4846C38.2283 50.573 38.1179 50.6613 38.0075 50.7496C37.875 50.838 37.7425 50.9042 37.61 50.9484C37.4775 51.0146 37.345 51.0588 37.2125 51.0809C37.0579 51.103 36.9033 51.125 36.7708 51.125C36.1967 51.125 35.6225 50.8821 35.2029 50.4846C34.8054 50.065 34.5625 49.4909 34.5625 48.9167C34.5625 48.3425 34.8054 47.7684 35.2029 47.3488C35.7108 46.8409 36.4837 46.598 37.2125 46.7525C37.345 46.7746 37.4775 46.8188 37.61 46.885C37.7425 46.9292 37.875 46.9955 38.0075 47.0838C38.1179 47.1721 38.2283 47.2605 38.3387 47.3488C38.7362 47.7684 38.9792 48.3425 38.9792 48.9167C38.9792 49.4909 38.7362 50.065 38.3387 50.4846ZM46.0679 50.4846C45.6483 50.8821 45.0742 51.125 44.5 51.125C43.9258 51.125 43.3517 50.8821 42.9321 50.4846C42.5346 50.065 42.2917 49.4909 42.2917 48.9167C42.2917 48.3425 42.5346 47.7684 42.9321 47.3488C43.7712 46.5317 45.2508 46.5317 46.0679 47.3488C46.4654 47.7684 46.7083 48.3425 46.7083 48.9167C46.7083 49.4909 46.4654 50.065 46.0679 50.4846Z" fill="#4116F7"/>
<rect x="2" y="2" width="86" height="86" rx="18" stroke="#4116F7" stroke-width="4"/>
</svg>
