<svg width="68" height="68" viewBox="0 0 68 68" fill="none" xmlns="http://www.w3.org/2000/svg">
<rect width="68" height="68" rx="34" fill="#DCF0FF"/>
<path d="M41.2598 23.4384V25.1143C41.2598 25.456 41.399 25.7662 41.6241 25.9922C41.8486 26.2166 42.1602 26.3565 42.502 26.3565H44.1779L41.2598 23.4384ZM28.7424 42.7062C28.572 42.7062 28.4327 42.5678 28.4327 42.3966C28.4327 42.2252 28.572 42.087 28.7424 42.087H35.938C36.1099 42.087 36.2492 42.2254 36.2492 42.3966C36.2492 42.5679 36.1099 42.7062 35.938 42.7062H28.7424ZM34.661 39.5114C34.4891 39.5114 34.3499 39.3721 34.3499 39.2002C34.3499 39.0299 34.4891 38.8906 34.661 38.8906H41.8567C42.0286 38.8906 42.1663 39.0299 42.1663 39.2002C42.1663 39.3721 42.0279 39.5114 41.8567 39.5114H34.661ZM34.661 36.3156C34.4891 36.3156 34.3499 36.1772 34.3499 36.006C34.3499 35.8341 34.4891 35.6948 34.661 35.6948H41.8567C42.0286 35.6948 42.1663 35.8341 42.1663 36.006C42.1663 36.1779 42.0279 36.3156 41.8567 36.3156H34.661ZM34.661 32.9033C34.4891 32.9033 34.3499 32.7649 34.3499 32.5937C34.3499 32.4223 34.4891 32.2825 34.661 32.2825H41.8567C42.0286 32.2825 42.1663 32.4218 42.1663 32.5937C42.1663 32.7655 42.0279 32.9033 41.8567 32.9033H34.661ZM34.661 29.9904C34.4891 29.9904 34.3499 29.8512 34.3499 29.6793C34.3499 29.5074 34.4891 29.3697 34.661 29.3697H41.8567C42.0286 29.3697 42.1663 29.5081 42.1663 29.6793C42.1663 29.8507 42.0279 29.9904 41.8567 29.9904H34.661ZM29.6844 30.4872C28.6574 29.4617 27.2393 28.8266 25.6718 28.8266C24.1061 28.8266 22.6882 29.4617 21.6606 30.4872C20.6352 31.5148 20 32.9328 20 34.4999C20 36.0656 20.6352 37.4834 21.6606 38.511C22.6877 39.5364 24.1057 40.1716 25.6718 40.1716C27.2388 40.1716 28.6569 39.5364 29.6844 38.511C30.7099 37.4839 31.345 36.0659 31.345 34.4999C31.345 32.9328 30.7099 31.5148 29.6844 30.4872ZM25.9829 28.214C27.5963 28.2923 29.0517 28.9787 30.1225 30.0495C31.2613 31.1883 31.9663 32.7614 31.9663 34.5004C31.9663 36.2378 31.2618 37.8109 30.1225 38.9495C29.0521 40.0214 27.5962 40.7082 25.9829 40.786V44.7578C25.9829 45.0995 26.1222 45.4112 26.3473 45.6356C26.5717 45.8601 26.882 46 27.2237 46H43.3748C43.7165 46 44.0266 45.8607 44.2513 45.6356C44.4773 45.4112 44.6157 45.0998 44.6157 44.7578L44.6155 26.9732C44.6002 26.9747 44.5835 26.9761 44.5667 26.9761H42.5013C41.9879 26.9761 41.5231 26.7683 41.1853 26.4306C40.8475 26.0928 40.6397 25.628 40.6397 25.1145L40.6399 23H27.2236C26.8818 23 26.5717 23.1384 26.3471 23.3644C26.1227 23.5888 25.9827 23.8991 25.9827 24.2408L25.9829 28.214ZM28.8188 35.2299C29.1186 35.5297 29.2684 35.9221 29.2684 36.3155C29.2684 36.7079 29.1192 37.0997 28.8188 37.3997C28.519 37.6985 28.1266 37.8493 27.7342 37.8493C27.3419 37.8493 26.9485 37.6987 26.6497 37.3997C26.3499 37.0999 26.2001 36.7075 26.2001 36.3155C26.2001 35.9221 26.3493 35.5297 26.6497 35.2299C26.9485 34.9311 27.3419 34.7804 27.7342 34.7804C28.1266 34.7804 28.519 34.9311 28.8188 35.2299ZM28.3806 35.6692C28.2018 35.4904 27.9674 35.4013 27.7346 35.4013C27.5002 35.4013 27.2668 35.4904 27.0886 35.6692C26.9104 35.8479 26.8207 36.0808 26.8207 36.3152C26.8207 36.548 26.9099 36.7829 27.0886 36.9601C27.2674 37.1389 27.5002 37.228 27.7346 37.228C27.9674 37.228 28.2024 37.1389 28.3806 36.9601C28.5593 36.7829 28.6469 36.5485 28.6469 36.3152C28.6474 36.0811 28.5593 35.8477 28.3806 35.6692ZM28.6165 31.2245C28.7381 31.1029 28.9332 31.1029 29.0547 31.2245C29.1763 31.346 29.1763 31.5425 29.0547 31.6627L23.0829 37.6359C22.9613 37.7574 22.7649 37.7574 22.6433 37.6359C22.5231 37.5143 22.5231 37.3178 22.6433 37.1963L28.6165 31.2245ZM23.9647 31.0107C24.3571 31.0107 24.749 31.1599 25.0493 31.4602C25.3481 31.7601 25.4989 32.1524 25.4989 32.5445C25.4989 32.9363 25.3483 33.3302 25.0493 33.629C24.7495 33.9288 24.3571 34.0786 23.9647 34.0786C23.5713 34.0786 23.179 33.9294 22.8792 33.629C22.5804 33.3302 22.4296 32.9368 22.4296 32.5445C22.4296 32.1521 22.5802 31.7602 22.8792 31.4602C23.1795 31.1604 23.5715 31.0107 23.9647 31.0107ZM24.6097 31.8984C24.4325 31.7212 24.1981 31.6321 23.9647 31.6321C23.7304 31.6321 23.497 31.7212 23.3188 31.8984C23.14 32.0772 23.0509 32.3116 23.0509 32.5444C23.0509 32.7788 23.14 33.0122 23.3188 33.1904C23.4975 33.3692 23.7304 33.4583 23.9647 33.4583C24.1976 33.4583 24.4325 33.3692 24.6097 33.1904C24.7885 33.0116 24.8776 32.7788 24.8776 32.5444C24.8776 32.3114 24.7885 32.0772 24.6097 31.8984ZM28.7421 25.9459C28.5717 25.9459 28.4325 25.8066 28.4325 25.6363C28.4325 25.4644 28.5717 25.3252 28.7421 25.3252H35.9378C36.1096 25.3252 36.2489 25.4644 36.2489 25.6363C36.2489 25.8066 36.1096 25.9459 35.9378 25.9459H28.7421Z" fill="#4116F7"/>
</svg>
