<svg width="34" height="34" viewBox="0 0 34 34" fill="none" xmlns="http://www.w3.org/2000/svg">
<path d="M17.0007 0.307129C7.83398 0.307129 0.333984 7.79046 0.333984 17.0071C0.333984 25.3405 6.43398 32.2571 14.4007 33.5071V21.8405H10.1673V17.0071H14.4007V13.3238C14.4007 9.14046 16.884 6.84046 20.7007 6.84046C22.5173 6.84046 24.4173 7.15713 24.4173 7.15713V11.2738H22.3173C20.2507 11.2738 19.6007 12.5571 19.6007 13.8738V17.0071H24.234L23.484 21.8405H19.6007V33.5071C23.5281 32.8869 27.1043 30.883 29.6839 27.8572C32.2634 24.8315 33.6762 20.9832 33.6673 17.0071C33.6673 7.79046 26.1673 0.307129 17.0007 0.307129Z" fill="#4116F7"/>
</svg>
