<svg width="245" height="175" viewBox="0 0 245 175" fill="none" xmlns="http://www.w3.org/2000/svg">
<path d="M232.251 140.146H206.207V174.495H232.251V140.146Z" fill="#F5F5F5"/>
<path d="M232.25 140.146H220.039V174.495H232.25V140.146Z" fill="#EBEBEB"/>
<path d="M214.008 144.796H211.666V150.485H214.008V144.796Z" fill="#EBEBEB"/>
<path d="M214.008 167.062H211.666V172.751H214.008V167.062Z" fill="#EBEBEB"/>
<path d="M220.04 152.715C220.04 152.764 216.943 152.803 213.126 152.803C209.309 152.803 206.207 152.764 206.207 152.715C206.207 152.666 209.304 152.627 213.126 152.627C216.948 152.627 220.04 152.666 220.04 152.715Z" fill="#EBEBEB"/>
<path d="M214.008 156.012H211.666V161.701H214.008V156.012Z" fill="#EBEBEB"/>
<path d="M220.04 163.936C220.04 163.985 216.943 164.024 213.126 164.024C209.309 164.024 206.207 163.985 206.207 163.936C206.207 163.887 209.304 163.843 213.126 163.843C216.948 163.843 220.04 163.887 220.04 163.936Z" fill="#EBEBEB"/>
<path d="M224.973 144.796H222.631V150.485H224.973V144.796Z" fill="#E0E0E0"/>
<path d="M230.055 144.796H227.713V150.485H230.055V144.796Z" fill="#E0E0E0"/>
<path d="M224.973 155.591H222.631V161.28H224.973V155.591Z" fill="#E0E0E0"/>
<path d="M230.055 155.591H227.713V161.28H230.055V155.591Z" fill="#E0E0E0"/>
<path d="M224.973 166.386H222.631V172.075H224.973V166.386Z" fill="#E0E0E0"/>
<path d="M230.055 166.386H227.713V172.075H230.055V166.386Z" fill="#E0E0E0"/>
<path d="M234.205 138.946H204.246V140.186H234.205V138.946Z" fill="#E0E0E0"/>
<path d="M232.431 140.303C232.431 140.352 226.61 140.391 219.431 140.391C212.253 140.391 206.432 140.352 206.432 140.303C206.432 140.254 212.253 140.215 219.431 140.215C226.61 140.215 232.431 140.254 232.431 140.303Z" fill="#F5F5F5"/>
<path d="M177.302 53.3722H130.869V174.902H177.302V53.3722Z" fill="#EBEBEB"/>
<path d="M177.296 53.3722H154.08V174.902H177.296V53.3722Z" fill="#E0E0E0"/>
<path d="M152.567 38.927H136.172V53.3722H152.567V38.927Z" fill="#EBEBEB"/>
<path d="M152.562 38.927H148.656V53.3722H152.562V38.927Z" fill="#E0E0E0"/>
<path d="M178.654 52.5294H126.998V53.3722H178.654V52.5294Z" fill="#E0E0E0"/>
<path d="M143.963 59.6736H140.033V67.9595H143.963V59.6736Z" fill="white"/>
<path d="M154.08 71.2131C154.08 71.3013 148.886 71.3699 142.477 71.3699C136.068 71.3699 130.869 71.3013 130.869 71.2131C130.869 71.1249 136.063 71.0514 142.477 71.0514C148.891 71.0514 154.08 71.12 154.08 71.2131Z" fill="#E0E0E0"/>
<path d="M167.379 59.6736H163.449V67.9595H167.379V59.6736Z" fill="#F5F5F5"/>
<path d="M177.498 71.2131C177.498 71.3013 172.304 71.3699 165.895 71.3699C159.486 71.3699 154.287 71.3013 154.287 71.2131C154.287 71.1249 159.481 71.0514 165.895 71.0514C172.309 71.0514 177.498 71.12 177.498 71.2131Z" fill="#EBEBEB"/>
<path d="M167.379 76.1229H163.449V84.4088H167.379V76.1229Z" fill="#F5F5F5"/>
<path d="M177.498 87.6624C177.498 87.7506 172.304 87.8241 165.895 87.8241C159.486 87.8241 154.287 87.7506 154.287 87.6624C154.287 87.5742 159.481 87.5056 165.895 87.5056C172.309 87.5056 177.498 87.5791 177.498 87.6624Z" fill="#EBEBEB"/>
<path d="M167.379 93.072H163.449V101.358H167.379V93.072Z" fill="#F5F5F5"/>
<path d="M177.498 104.612C177.498 104.7 172.304 104.773 165.895 104.773C159.486 104.773 154.287 104.7 154.287 104.612C154.287 104.523 159.481 104.455 165.895 104.455C172.309 104.455 177.498 104.528 177.498 104.612Z" fill="#EBEBEB"/>
<path d="M167.379 110.026H163.449V118.312H167.379V110.026Z" fill="#F5F5F5"/>
<path d="M177.498 121.561C177.498 121.649 172.304 121.722 165.895 121.722C159.486 121.722 154.287 121.649 154.287 121.561C154.287 121.472 159.481 121.404 165.895 121.404C172.309 121.404 177.498 121.477 177.498 121.561Z" fill="#EBEBEB"/>
<path d="M167.379 126.49H163.449V134.776H167.379V126.49Z" fill="#F5F5F5"/>
<path d="M177.498 138.029C177.498 138.113 172.304 138.186 165.895 138.186C159.486 138.186 154.287 138.113 154.287 138.029C154.287 137.946 159.481 137.868 165.895 137.868C172.309 137.868 177.498 137.941 177.498 138.029Z" fill="#EBEBEB"/>
<path d="M167.379 143.018H163.449V151.304H167.379V143.018Z" fill="#F5F5F5"/>
<path d="M167.379 159.766H163.449V168.052H167.379V159.766Z" fill="#F5F5F5"/>
<path d="M177.498 154.557C177.498 154.645 172.304 154.719 165.895 154.719C159.486 154.719 154.287 154.645 154.287 154.557C154.287 154.469 159.481 154.4 165.895 154.4C172.309 154.4 177.498 154.469 177.498 154.557Z" fill="#EBEBEB"/>
<path d="M143.963 76.3777H140.033V84.6636H143.963V76.3777Z" fill="white"/>
<path d="M154.08 87.9172C154.08 88.0005 148.886 88.074 142.477 88.074C136.068 88.074 130.869 88.0005 130.869 87.9172C130.869 87.8339 136.063 87.7555 142.477 87.7555C148.891 87.7555 154.08 87.829 154.08 87.9172Z" fill="#E0E0E0"/>
<path d="M143.963 93.0818H140.033V101.368H143.963V93.0818Z" fill="white"/>
<path d="M154.08 104.621C154.08 104.705 148.886 104.778 142.477 104.778C136.068 104.778 130.869 104.705 130.869 104.621C130.869 104.538 136.063 104.46 142.477 104.46C148.891 104.46 154.08 104.533 154.08 104.621Z" fill="#E0E0E0"/>
<path d="M143.963 109.786H140.033V118.072H143.963V109.786Z" fill="white"/>
<path d="M154.08 121.325C154.08 121.409 148.886 121.482 142.477 121.482C136.068 121.482 130.869 121.409 130.869 121.325C130.869 121.242 136.063 121.164 142.477 121.164C148.891 121.164 154.08 121.237 154.08 121.325Z" fill="#E0E0E0"/>
<path d="M143.963 126.49H140.033V134.776H143.963V126.49Z" fill="white"/>
<path d="M154.08 138.029C154.08 138.113 148.886 138.186 142.477 138.186C136.068 138.186 130.869 138.113 130.869 138.029C130.869 137.946 136.063 137.868 142.477 137.868C148.891 137.868 154.08 137.941 154.08 138.029Z" fill="#E0E0E0"/>
<path d="M143.963 143.194H140.033V151.48H143.963V143.194Z" fill="white"/>
<path d="M154.08 154.734C154.08 154.817 148.886 154.89 142.477 154.89C136.068 154.89 130.869 154.817 130.869 154.734C130.869 154.65 136.063 154.572 142.477 154.572C148.891 154.572 154.08 154.645 154.08 154.734Z" fill="#E0E0E0"/>
<path d="M143.963 159.898H140.033V168.184H143.963V159.898Z" fill="white"/>
<path d="M112.598 127.73H76.9941V174.691H112.598V127.73Z" fill="#EBEBEB"/>
<path d="M112.597 127.73H95.9023V174.691H112.597V127.73Z" fill="#E0E0E0"/>
<path d="M87.6567 134.085H84.457V141.861H87.6567V134.085Z" fill="#F5F5F5"/>
<path d="M87.6567 164.529H84.457V172.305H87.6567V164.529Z" fill="#F5F5F5"/>
<path d="M95.9032 144.919C95.9032 145.002 91.6696 145.076 86.4462 145.076C81.2228 145.076 76.9941 145.002 76.9941 144.919C76.9941 144.836 81.2277 144.757 86.4462 144.757C91.6647 144.757 95.9032 144.831 95.9032 144.919Z" fill="#F5F5F5"/>
<path d="M87.6567 149.422H84.457V157.198H87.6567V149.422Z" fill="#F5F5F5"/>
<path d="M95.9032 160.251C95.9032 160.339 91.6696 160.413 86.4462 160.413C81.2228 160.413 76.9941 160.339 76.9941 160.251C76.9941 160.163 81.2277 160.094 86.4462 160.094C91.6647 160.094 95.9032 160.168 95.9032 160.251Z" fill="#F5F5F5"/>
<path d="M102.645 134.085H99.4453V141.861H102.645V134.085Z" fill="#F5F5F5"/>
<path d="M109.594 134.085H106.395V141.861H109.594V134.085Z" fill="#F5F5F5"/>
<path d="M102.645 148.844H99.4453V156.62H102.645V148.844Z" fill="#F5F5F5"/>
<path d="M109.594 148.844H106.395V156.62H109.594V148.844Z" fill="#F5F5F5"/>
<path d="M102.645 163.603H99.4453V171.379H102.645V163.603Z" fill="#F5F5F5"/>
<path d="M109.594 163.603H106.395V171.379H109.594V163.603Z" fill="#F5F5F5"/>
<path d="M115.277 126.093H74.3184V127.788H115.277V126.093Z" fill="#E0E0E0"/>
<path d="M112.846 127.96C112.846 128.048 104.889 128.122 95.0741 128.122C85.2594 128.122 77.2969 128.048 77.2969 127.96C77.2969 127.872 85.2545 127.803 95.0741 127.803C104.894 127.803 112.846 127.862 112.846 127.96Z" fill="#EBEBEB"/>
<path d="M188.469 69.4981L220.01 69.65C220.01 69.65 217.021 62.79 210.636 62.79C205.771 62.79 205.555 65.8182 202.63 66.6855C199.704 67.5528 193.55 62.251 188.469 69.4981Z" fill="#EBEBEB"/>
<path d="M52.293 35.9135L107.761 36.1438C107.761 36.1438 102.508 24.1241 91.2823 24.1192C82.7269 24.1192 82.3447 29.4455 77.2095 30.9792C72.0743 32.5129 61.2502 23.1686 52.293 35.9135Z" fill="#F5F5F5"/>
<path d="M163.543 17.9354L205.335 18.1069C205.335 18.1069 201.391 9.0517 192.918 9.0468C186.47 9.0468 186.186 13.0599 182.315 14.2065C178.444 15.3531 170.276 8.3314 163.543 17.9354Z" fill="#FAFAFA"/>
<path d="M237.332 174.51C237.332 174.584 185.824 174.637 122.3 174.637C58.7764 174.637 7.25781 174.584 7.25781 174.51C7.25781 174.437 58.7519 174.383 122.3 174.383C185.848 174.383 237.332 174.441 237.332 174.51Z" fill="#263238"/>
<path d="M213.772 103.387H186.621V174.451H213.772V103.387Z" fill="#455A64"/>
<path d="M213.768 103.387H200.195V174.451H213.768V103.387Z" fill="#263238"/>
<path d="M199.312 94.9389H189.723V103.387H199.312V94.9389Z" fill="#455A64"/>
<path d="M199.307 94.9389H197.023V103.387H199.307V94.9389Z" fill="#263238"/>
<path d="M214.566 102.892H184.357V103.387H214.566V102.892Z" fill="#455A64"/>
<path d="M194.281 107.071H191.982V111.917H194.281V107.071Z" fill="#263238"/>
<path d="M200.194 113.819C200.194 113.868 197.156 113.912 193.408 113.912C189.659 113.912 186.621 113.868 186.621 113.819C186.621 113.77 189.659 113.726 193.408 113.726C197.156 113.726 200.194 113.75 200.194 113.819Z" fill="#263238"/>
<path d="M207.97 107.071H205.672V111.917H207.97V107.071Z" fill="#455A64"/>
<path d="M213.889 113.819C213.889 113.868 210.851 113.912 207.103 113.912C203.354 113.912 200.316 113.868 200.316 113.819C200.316 113.77 203.354 113.726 207.103 113.726C210.851 113.726 213.889 113.75 213.889 113.819Z" fill="#455A64"/>
<path d="M207.97 116.69H205.672V121.536H207.97V116.69Z" fill="#455A64"/>
<path d="M213.889 123.437C213.889 123.491 210.851 123.53 207.103 123.53C203.354 123.53 200.316 123.491 200.316 123.437C200.316 123.383 203.354 123.344 207.103 123.344C210.851 123.344 213.889 123.388 213.889 123.437Z" fill="#455A64"/>
<path d="M207.97 126.603H205.672V131.449H207.97V126.603Z" fill="#455A64"/>
<path d="M213.889 133.35C213.889 133.399 210.851 133.443 207.103 133.443C203.354 133.443 200.316 133.399 200.316 133.35C200.316 133.301 203.354 133.257 207.103 133.257C210.851 133.257 213.889 133.296 213.889 133.35Z" fill="#455A64"/>
<path d="M207.97 136.511H205.672V141.357H207.97V136.511Z" fill="#455A64"/>
<path d="M213.889 143.258C213.889 143.312 210.851 143.351 207.103 143.351C203.354 143.351 200.316 143.312 200.316 143.258C200.316 143.204 203.354 143.17 207.103 143.17C210.851 143.17 213.889 143.209 213.889 143.258Z" fill="#455A64"/>
<path d="M207.97 146.139H205.672V150.985H207.97V146.139Z" fill="#455A64"/>
<path d="M213.889 152.886C213.889 152.94 210.851 152.979 207.103 152.979C203.354 152.979 200.316 152.94 200.316 152.886C200.316 152.832 203.354 152.793 207.103 152.793C210.851 152.793 213.889 152.837 213.889 152.886Z" fill="#455A64"/>
<path d="M207.97 155.807H205.672V160.653H207.97V155.807Z" fill="#455A64"/>
<path d="M207.97 165.602H205.672V170.448H207.97V165.602Z" fill="#455A64"/>
<path d="M213.889 162.554C213.889 162.608 210.851 162.647 207.103 162.647C203.354 162.647 200.316 162.608 200.316 162.554C200.316 162.5 203.354 162.461 207.103 162.461C210.851 162.461 213.889 162.505 213.889 162.554Z" fill="#455A64"/>
<path d="M194.281 116.837H191.982V121.683H194.281V116.837Z" fill="#263238"/>
<path d="M200.194 123.584C200.194 123.633 197.156 123.677 193.408 123.677C189.659 123.677 186.621 123.633 186.621 123.584C186.621 123.535 189.659 123.491 193.408 123.491C197.156 123.491 200.194 123.55 200.194 123.584Z" fill="#263238"/>
<path d="M194.281 126.603H191.982V131.449H194.281V126.603Z" fill="#263238"/>
<path d="M200.194 133.35C200.194 133.404 197.156 133.443 193.408 133.443C189.659 133.443 186.621 133.404 186.621 133.35C186.621 133.296 189.659 133.262 193.408 133.262C197.156 133.262 200.194 133.301 200.194 133.35Z" fill="#263238"/>
<path d="M194.281 136.373H191.982V141.219H194.281V136.373Z" fill="#263238"/>
<path d="M200.194 143.121C200.194 143.17 197.156 143.214 193.408 143.214C189.659 143.214 186.621 143.17 186.621 143.121C186.621 143.072 189.659 143.027 193.408 143.027C197.156 143.027 200.194 143.067 200.194 143.121Z" fill="#263238"/>
<path d="M194.281 146.139H191.982V150.985H194.281V146.139Z" fill="#263238"/>
<path d="M200.194 152.886C200.194 152.94 197.156 152.979 193.408 152.979C189.659 152.979 186.621 152.94 186.621 152.886C186.621 152.832 189.659 152.793 193.408 152.793C197.156 152.793 200.194 152.837 200.194 152.886Z" fill="#263238"/>
<path d="M194.281 155.91H191.982V160.756H194.281V155.91Z" fill="#263238"/>
<path d="M200.194 162.657C200.194 162.706 197.156 162.75 193.408 162.75C189.659 162.75 186.621 162.706 186.621 162.657C186.621 162.608 189.659 162.564 193.408 162.564C197.156 162.564 200.194 162.603 200.194 162.657Z" fill="#263238"/>
<path d="M194.281 165.675H191.982V170.521H194.281V165.675Z" fill="#263238"/>
<path d="M145.785 77.9898H109.461V174.481H145.785V77.9898Z" fill="#455A64"/>
<path d="M145.79 77.9898H131.85V174.481H145.79V77.9898Z" fill="#263238"/>
<path d="M140.198 85.6044H137.439V91.4256H140.198V85.6044Z" fill="#455A64"/>
<path d="M140.198 95.816H137.439V101.637H140.198V95.816Z" fill="#455A64"/>
<path d="M140.198 107.253H137.439V113.074H140.198V107.253Z" fill="#455A64"/>
<path d="M140.198 118.18H137.439V124.001H140.198V118.18Z" fill="#455A64"/>
<path d="M140.198 129.112H137.439V134.933H140.198V129.112Z" fill="#455A64"/>
<path d="M140.198 140.038H137.439V145.86H140.198V140.038Z" fill="#455A64"/>
<path d="M140.198 150.97H137.439V156.792H140.198V150.97Z" fill="#455A64"/>
<path d="M140.198 162.985H137.439V168.806H140.198V162.985Z" fill="#455A64"/>
<path d="M147.598 77.3822H106.301V78.5092H147.598V77.3822Z" fill="#263238"/>
<path d="M138.822 70.5908H124.117V77.9457H138.822V70.5908Z" fill="#263238"/>
<path d="M131.849 70.5908H124.117V77.3822H131.849V70.5908Z" fill="#455A64"/>
<path d="M117.39 85.3643H114.631V91.1855H117.39V85.3643Z" fill="#263238"/>
<path d="M124.739 85.3643H121.98V91.1855H124.739V85.3643Z" fill="#263238"/>
<path d="M117.39 96.453H114.631V102.274H117.39V96.453Z" fill="#263238"/>
<path d="M124.739 96.453H121.98V102.274H124.739V96.453Z" fill="#263238"/>
<path d="M117.39 107.542H114.631V113.363H117.39V107.542Z" fill="#263238"/>
<path d="M124.739 107.542H121.98V113.363H124.739V107.542Z" fill="#263238"/>
<path d="M117.39 118.63H114.631V124.452H117.39V118.63Z" fill="#263238"/>
<path d="M124.739 118.63H121.98V124.452H124.739V118.63Z" fill="#263238"/>
<path d="M117.39 129.719H114.631V135.54H117.39V129.719Z" fill="#263238"/>
<path d="M124.739 129.719H121.98V135.54H124.739V129.719Z" fill="#263238"/>
<path d="M117.39 140.808H114.631V146.629H117.39V140.808Z" fill="#263238"/>
<path d="M124.739 140.808H121.98V146.629H124.739V140.808Z" fill="#263238"/>
<path d="M117.39 151.896H114.631V157.718H117.39V151.896Z" fill="#263238"/>
<path d="M124.739 151.896H121.98V157.718H124.739V151.896Z" fill="#263238"/>
<path d="M117.39 162.985H114.631V168.806H117.39V162.985Z" fill="#263238"/>
<path d="M124.739 162.985H121.98V168.806H124.739V162.985Z" fill="#263238"/>
<path d="M131.849 93.4689C131.849 93.5669 126.836 93.6453 120.657 93.6453C114.479 93.6453 109.461 93.5669 109.461 93.4689C109.461 93.3709 114.474 93.2974 120.657 93.2974C126.841 93.2974 131.849 93.3758 131.849 93.4689Z" fill="#263238"/>
<path d="M131.849 104.597C131.849 104.695 126.836 104.773 120.657 104.773C114.479 104.773 109.461 104.695 109.461 104.597C109.461 104.499 114.474 104.425 120.657 104.425C126.841 104.425 131.849 104.504 131.849 104.597Z" fill="#263238"/>
<path d="M131.849 115.862C131.849 115.955 126.836 116.033 120.657 116.033C114.479 116.033 109.461 115.955 109.461 115.862C109.461 115.769 114.474 115.686 120.657 115.686C126.841 115.686 131.849 115.764 131.849 115.862Z" fill="#263238"/>
<path d="M131.849 127.044C131.849 127.137 126.836 127.215 120.657 127.215C114.479 127.215 109.461 127.137 109.461 127.044C109.461 126.951 114.474 126.867 120.657 126.867C126.841 126.867 131.849 126.946 131.849 127.044Z" fill="#263238"/>
<path d="M131.849 138.064C131.849 138.157 126.836 138.235 120.657 138.235C114.479 138.235 109.461 138.157 109.461 138.064C109.461 137.971 114.474 137.887 120.657 137.887C126.841 137.887 131.849 137.966 131.849 138.064Z" fill="#263238"/>
<path d="M131.849 148.785C131.849 148.878 126.836 148.957 120.657 148.957C114.479 148.957 109.461 148.878 109.461 148.785C109.461 148.692 114.474 148.609 120.657 148.609C126.841 148.609 131.849 148.687 131.849 148.785Z" fill="#263238"/>
<path d="M131.849 160.667C131.849 160.761 126.836 160.839 120.657 160.839C114.479 160.839 109.461 160.761 109.461 160.667C109.461 160.574 114.474 160.491 120.657 160.491C126.841 160.491 131.849 160.569 131.849 160.667Z" fill="#263238"/>
<path d="M145.629 93.4689C145.629 93.5669 142.645 93.6453 138.965 93.6453C135.285 93.6453 132.301 93.5669 132.301 93.4689C132.301 93.3709 135.28 93.2974 138.965 93.2974C142.65 93.2974 145.629 93.3758 145.629 93.4689Z" fill="#455A64"/>
<path d="M145.629 104.597C145.629 104.695 142.645 104.773 138.965 104.773C135.285 104.773 132.301 104.695 132.301 104.597C132.301 104.499 135.28 104.425 138.965 104.425C142.65 104.425 145.629 104.504 145.629 104.597Z" fill="#455A64"/>
<path d="M145.629 115.71C145.629 115.808 142.645 115.886 138.965 115.886C135.285 115.886 132.301 115.823 132.301 115.71C132.301 115.597 135.28 115.538 138.965 115.538C142.65 115.538 145.629 115.632 145.629 115.71Z" fill="#455A64"/>
<path d="M145.48 127.044C145.48 127.137 142.496 127.215 138.816 127.215C135.136 127.215 132.152 127.137 132.152 127.044C132.152 126.951 135.136 126.867 138.816 126.867C142.496 126.867 145.48 126.946 145.48 127.044Z" fill="#455A64"/>
<path d="M145.48 138.064C145.48 138.157 142.496 138.235 138.816 138.235C135.136 138.235 132.152 138.157 132.152 138.064C132.152 137.971 135.136 137.887 138.816 137.887C142.496 137.887 145.48 137.966 145.48 138.064Z" fill="#455A64"/>
<path d="M145.48 149.084C145.48 149.177 142.496 149.255 138.816 149.255C135.136 149.255 132.152 149.177 132.152 149.084C132.152 148.991 135.136 148.908 138.816 148.908C142.496 148.908 145.48 148.986 145.48 149.084Z" fill="#455A64"/>
<path d="M145.48 160.667C145.48 160.761 142.496 160.839 138.816 160.839C135.136 160.839 132.152 160.761 132.152 160.667C132.152 160.574 135.136 160.491 138.816 160.491C142.496 160.491 145.48 160.569 145.48 160.667Z" fill="#455A64"/>
<path d="M152.488 140.901H137.842V174.51H152.488V140.901Z" fill="#A3CAF6"/>
<path opacity="0.2" d="M152.488 140.901H137.842V174.51H152.488V140.901Z" fill="black"/>
<path d="M134.416 140.764H170.554L177.306 131.179L184.381 141.038L192.702 140.906L183.735 128.827L143.442 128.999L134.416 140.764Z" fill="#A3CAF6"/>
<path opacity="0.2" d="M134.416 140.764H170.554L177.306 131.179L184.381 141.038L192.702 140.906L183.735 128.827L143.442 128.999L134.416 140.764Z" fill="white"/>
<path d="M152.488 140.906V174.51H188.577V140.906H184.436L177.307 131.179L170.53 140.754L152.488 140.906Z" fill="#A3CAF6"/>
<g opacity="0.2">
<path opacity="0.2" d="M157.59 174.51V159.942H166.028V174.51" fill="black"/>
</g>
<path opacity="0.7" d="M184.386 159.531H171.088V167.768H184.386V159.531Z" fill="white"/>
<path opacity="0.7" d="M184.386 143.047H171.088V151.284H184.386V143.047Z" fill="white"/>
<path opacity="0.7" d="M165.146 143.121H156.762V151.059H165.146V143.121Z" fill="white"/>
<path d="M174.99 159.531H174.867V167.846H174.99V159.531Z" fill="#A3CAF6"/>
<path d="M180.517 159.531H180.395V167.846H180.517V159.531Z" fill="#A3CAF6"/>
<path d="M180.453 163.877H174.926V163.999H180.453V163.877Z" fill="#A3CAF6"/>
<path d="M174.99 143.047H174.867V151.362H174.99V143.047Z" fill="#A3CAF6"/>
<path d="M180.517 143.047H180.395V151.362H180.517V143.047Z" fill="#A3CAF6"/>
<path d="M180.453 147.393H174.926V147.516H180.453V147.393Z" fill="#A3CAF6"/>
<path d="M161.015 143.121H160.893V151.059H161.015V143.121Z" fill="#A3CAF6"/>
<path d="M165.146 147.222H156.762V147.344H165.146V147.222Z" fill="#A3CAF6"/>
<path opacity="0.7" d="M179.065 137.593C179.065 137.945 178.961 138.289 178.765 138.582C178.57 138.874 178.292 139.102 177.967 139.237C177.642 139.371 177.285 139.407 176.94 139.338C176.594 139.269 176.278 139.1 176.029 138.851C175.78 138.602 175.611 138.285 175.542 137.94C175.473 137.595 175.509 137.238 175.643 136.913C175.778 136.588 176.006 136.31 176.298 136.114C176.591 135.919 176.935 135.815 177.287 135.815C177.758 135.816 178.21 136.004 178.543 136.337C178.876 136.67 179.064 137.122 179.065 137.593Z" fill="white"/>
<path d="M164.601 135.413L166.846 132.644V125.985H162.146V135.462L164.601 135.413Z" fill="#A3CAF6"/>
<path opacity="0.2" d="M164.602 135.413V125.985H166.846V132.644L164.602 135.413Z" fill="black"/>
<path d="M167.163 125.005H161.621V125.985H167.163V125.005Z" fill="#A3CAF6"/>
<path d="M152.905 155.606H125.234V174.515H152.905V155.606Z" fill="#A3CAF6"/>
<path opacity="0.2" d="M142.296 155.606H125.234V174.515H142.296V155.606Z" fill="black"/>
<path d="M138.705 174.481C138.686 174.4 138.678 174.318 138.68 174.236C138.68 174.045 138.68 173.809 138.68 173.525C138.68 172.868 138.68 171.977 138.641 170.864C138.641 168.561 138.612 165.381 138.592 161.701L138.729 161.839H128.601L128.733 161.701C128.733 165.381 128.699 168.561 128.684 170.864C128.684 171.977 128.655 172.868 128.645 173.525C128.645 173.809 128.645 174.045 128.621 174.236C128.629 174.317 128.629 174.399 128.621 174.481C128.599 174.401 128.59 174.318 128.596 174.236C128.596 174.045 128.596 173.809 128.596 173.525C128.596 172.868 128.596 171.977 128.557 170.864C128.557 168.566 128.527 165.381 128.508 161.701V161.564H138.886V161.701C138.862 165.381 138.847 168.561 138.832 170.864C138.832 171.977 138.803 172.868 138.793 173.525C138.793 173.809 138.793 174.045 138.793 174.236C138.771 174.32 138.742 174.402 138.705 174.481Z" fill="#263238"/>
<path opacity="0.2" d="M151.62 161.216H144.432V163.049H151.62V161.216Z" fill="black"/>
<path d="M134.416 140.764V141.739H170.529V140.754L134.416 140.764Z" fill="#A3CAF6"/>
<path d="M170.529 141.739L177.286 132.257L177.306 131.179L170.554 140.764L170.529 141.739Z" fill="#A3CAF6"/>
<path d="M192.525 140.901H184.436V141.528H192.525V140.901Z" fill="#A3CAF6"/>
<path d="M163.15 157.708H160.166V158.845H163.15V157.708Z" fill="#263238"/>
<path opacity="0.3" d="M134.416 140.764V141.739H170.529V140.754L134.416 140.764Z" fill="black"/>
<path opacity="0.3" d="M170.529 141.739L177.286 132.257L177.306 131.179L170.554 140.764L170.529 141.739Z" fill="black"/>
<path opacity="0.3" d="M192.525 140.901H184.436V141.528H192.525V140.901Z" fill="black"/>
<path d="M165.346 167.292C165.321 167.292 165.346 167.106 165.125 166.964C165.069 166.926 165.004 166.902 164.937 166.895C164.87 166.887 164.801 166.896 164.738 166.92C164.664 166.95 164.6 167.001 164.556 167.068C164.511 167.134 164.487 167.212 164.487 167.292C164.487 167.372 164.511 167.45 164.556 167.517C164.6 167.583 164.664 167.635 164.738 167.665C164.801 167.689 164.87 167.698 164.937 167.69C165.004 167.682 165.069 167.659 165.125 167.621C165.326 167.479 165.321 167.287 165.346 167.292C165.37 167.297 165.429 167.503 165.199 167.719C165.128 167.777 165.043 167.815 164.953 167.832C164.863 167.848 164.771 167.841 164.684 167.812C164.576 167.775 164.482 167.705 164.415 167.612C164.348 167.518 164.312 167.407 164.312 167.292C164.312 167.178 164.348 167.066 164.415 166.973C164.482 166.88 164.576 166.81 164.684 166.773C164.771 166.743 164.863 166.737 164.953 166.753C165.043 166.769 165.128 166.808 165.199 166.866C165.429 167.086 165.36 167.307 165.346 167.292Z" fill="#263238"/>
<path d="M96.6534 118.817C96.6534 118.817 89.0535 147.727 78.837 153.156C72.1044 156.733 66.1607 152.465 62.177 145.703L47.771 122.516C47.4038 121.195 47.5541 119.783 48.1914 118.568C48.8287 117.354 49.905 116.428 51.201 115.979L63.2109 111.79L75.1767 133.12L90.4892 114.5" fill="#EB996E"/>
<path d="M21.8732 120.831C22.1378 122.712 26.8761 136.545 26.8761 136.545C26.8761 136.545 48.3773 130.464 48.1519 129.396C47.9657 128.528 44.6043 114.75 40.1159 106.983C39.2745 105.486 38.0945 104.206 36.6702 103.247C35.2459 102.287 33.6169 101.674 31.9133 101.456C30.9627 101.348 28.8508 102.23 28.2677 102.519C23.6911 104.808 19.825 106.297 21.8732 120.831Z" fill="#455A64"/>
<path d="M55.5857 100.52C63.8422 102.818 64.2146 106.571 68.3502 113.191L74.8623 125.049L64.0137 131.963L62.0243 136.422L60.9512 174.77L17.2383 174.554L25.0783 143.513L21.9521 123.129C21.663 119.914 20.7369 113.907 21.7267 110.805C24.8284 101.113 36.3973 100.079 43.5121 98.609C44.9821 98.3052 46.3982 98.7707 47.5938 99.1333" fill="#455A64"/>
<path d="M61.9156 138.392C61.8816 138.067 61.8718 137.739 61.8862 137.412C61.8862 136.726 61.8862 135.815 61.9205 134.717V134.693C62.4671 133.722 62.9436 132.713 63.3464 131.674C63.8489 130.442 63.9751 129.088 63.709 127.784C63.3562 126.314 62.5428 125.079 61.9989 123.864C61.505 122.775 61.1748 121.619 61.0189 120.434C60.9164 119.642 60.895 118.843 60.9552 118.047C60.9552 117.763 61.0091 117.557 61.0336 117.401C61.0384 117.324 61.0567 117.25 61.0875 117.18C61.1048 117.47 61.1048 117.762 61.0875 118.052C61.0674 118.839 61.1183 119.626 61.2394 120.404C61.4176 121.557 61.7591 122.679 62.2537 123.736C62.7927 124.932 63.6257 126.186 63.9981 127.705C64.2786 129.063 64.1437 130.473 63.611 131.753C63.1987 132.798 62.7072 133.81 62.141 134.781V134.732C62.0871 135.829 62.0479 136.741 62.0136 137.427C62.0098 137.751 61.977 138.074 61.9156 138.392Z" fill="#263238"/>
<path d="M55.9279 99.1725C55.9654 99.2668 55.9901 99.3657 56.0014 99.4665C56.0543 99.753 56.0871 100.043 56.0994 100.334C56.1386 101.412 55.9586 102.487 55.5702 103.494C54.9946 104.999 54.0019 106.307 52.7086 107.267C51.088 108.422 49.1016 108.944 47.1226 108.737C46.1056 108.633 45.1125 108.364 44.1826 107.939C43.3231 107.535 42.534 106.995 41.8453 106.341C40.6936 105.226 39.8164 103.859 39.2826 102.348C38.9212 101.336 38.7147 100.275 38.6701 99.2019C38.6516 98.9115 38.6516 98.6201 38.6701 98.3297C38.6669 98.2292 38.6768 98.1287 38.6995 98.0308C38.7338 98.0308 38.6995 98.4473 38.7681 99.197C38.8553 100.251 39.0878 101.288 39.459 102.279C40.0041 103.748 40.8792 105.073 42.0168 106.15C42.6867 106.781 43.4546 107.299 44.2904 107.684C45.1895 108.093 46.1495 108.353 47.1324 108.453C49.0364 108.66 50.951 108.171 52.5224 107.076C53.5789 106.302 54.4394 105.291 55.0351 104.125C55.6307 102.958 55.9449 101.668 55.9524 100.358C55.9867 99.589 55.8936 99.1774 55.9279 99.1725Z" fill="#263238"/>
<path d="M72.8827 121.467C72.4755 121.772 72.0427 122.041 71.5891 122.271C70.7806 122.761 69.6536 123.388 68.4286 124.128C67.2036 124.868 66.1109 125.559 65.3171 126.059C64.9033 126.354 64.4638 126.612 64.0039 126.828C64.3746 126.478 64.7783 126.165 65.2093 125.892C65.9737 125.348 67.0566 124.628 68.2865 123.883C69.5164 123.138 70.6581 122.521 71.496 122.095C71.9355 121.839 72.4001 121.628 72.8827 121.467Z" fill="#263238"/>
<path d="M23.2165 121.977C23.2165 121.977 23.2459 122.065 23.2998 122.237L23.5056 123.001L24.2749 125.941C24.9266 128.489 25.8576 132.125 26.9895 136.53L26.8474 136.452L47.0648 130.136L47.5548 129.954L47.4617 130.116C46.4889 125.588 45.1585 121.145 43.4829 116.827C41.9149 112.868 40.1166 109.433 38.0929 106.959C37.1909 105.833 36.1099 104.862 34.8932 104.087C33.9796 103.495 32.9383 103.129 31.8552 103.019C31.6478 102.985 31.4381 102.967 31.228 102.965L30.6694 102.995C30.4979 102.995 30.3411 102.994 30.1794 103.029L29.7972 103.112L29.268 103.22C29.2082 103.233 29.1476 103.243 29.0867 103.249C29.1414 103.223 29.199 103.204 29.2582 103.191L29.7825 103.058L30.1696 102.96C30.3166 102.931 30.4783 102.931 30.6596 102.911L31.2231 102.872C31.4359 102.869 31.6487 102.881 31.8601 102.906C32.964 103.002 34.0291 103.36 34.9667 103.95C36.2021 104.719 37.3016 105.688 38.2203 106.817C40.3126 109.301 42.1403 112.745 43.723 116.714C45.4165 121.043 46.7602 125.5 47.741 130.043V130.165L47.6234 130.204L47.1334 130.386C39.5531 132.791 32.5314 134.913 26.8817 136.653L26.769 136.687L26.7396 136.574C25.6469 132.164 24.7502 128.514 24.1181 125.961C23.8143 124.702 23.5791 123.712 23.4125 123.021L23.2361 122.252C23.218 122.161 23.2114 122.069 23.2165 121.977Z" fill="#263238"/>
<path d="M46.8594 127.362C46.8594 127.441 42.2142 128.788 36.4371 130.381C30.66 131.973 25.9707 133.198 25.9707 133.125C25.9707 133.051 30.611 131.699 36.3881 130.106C42.1652 128.514 46.8349 127.289 46.8594 127.362Z" fill="#263238"/>
<path d="M45.0803 64.6373C43.7426 61.7365 40.0627 60.3694 36.961 61.1387C33.8593 61.908 31.4093 64.4413 30.101 67.347C28.7927 70.2527 28.4448 73.521 28.4203 76.7158C28.4203 78.4063 28.4938 80.1164 28.1508 81.7726C27.8078 83.4288 26.9944 85.0654 25.5734 85.9866C24.4562 86.7118 23.0842 86.9274 21.8837 87.5056C20.6832 88.0838 19.5807 89.3137 19.8796 90.6171C20.2324 92.1704 22.1826 92.6359 23.7653 92.7976C23.7919 93.7563 24.089 94.6879 24.6223 95.4849C25.1555 96.282 25.9033 96.9121 26.7793 97.3024C27.6553 97.6928 28.6238 97.8275 29.5731 97.6911C30.5223 97.5547 31.4137 97.1526 32.1443 96.5314C31.6543 98.4914 33.384 100.51 35.3734 100.745C37.3628 100.981 39.2934 99.736 40.4008 98.0504C41.5082 96.3648 41.8218 94.3068 41.9051 92.3027C41.9884 90.2986 41.8463 88.27 42.0423 86.31" fill="#A3CAF6"/>
<path d="M67.6547 68.2878C67.6547 68.2878 69.1247 58.4388 55.5713 58.2575C40.4107 58.0566 37.6765 70.9975 40.2735 77.8134L47.8097 70.3458L67.6547 68.2878Z" fill="#A3CAF6"/>
<path d="M55.7631 100.52C55.915 97.8985 56.0277 95.7621 56.0277 95.7621C56.0277 95.7621 63.7893 95.9434 64.931 89.2157C66.0727 82.488 67.381 66.8178 67.381 66.8178C63.9906 64.6254 60.0251 63.4902 55.9882 63.5565C51.9513 63.6228 48.0252 64.8876 44.7087 67.1902L44.0717 67.6312L39.1717 98.7413C38.8222 100.923 39.3508 103.153 40.6419 104.946C41.933 106.738 43.8815 107.947 46.0611 108.306C47.2191 108.497 48.4043 108.442 49.5396 108.144C50.6749 107.847 51.7348 107.313 52.6501 106.579C53.5654 105.844 54.3157 104.925 54.8521 103.881C55.3885 102.837 55.6989 101.692 55.7631 100.52Z" fill="#FFBE9D"/>
<path d="M64.6109 78.7591C64.5849 78.924 64.5112 79.0776 64.3987 79.201C64.2863 79.3244 64.1401 79.412 63.9783 79.4531C63.8166 79.4941 63.6463 79.4868 63.4886 79.432C63.331 79.3772 63.1929 79.2773 63.0914 79.1447C62.99 79.0121 62.9298 78.8527 62.9181 78.6862C62.9064 78.5197 62.9439 78.3534 63.0259 78.208C63.1078 78.0626 63.2307 77.9445 63.3792 77.8682C63.5276 77.792 63.6952 77.761 63.8612 77.7791C63.9753 77.7929 64.0855 77.8294 64.1853 77.8865C64.2851 77.9435 64.3725 78.0199 64.4424 78.1112C64.5122 78.2025 64.5631 78.3069 64.592 78.4182C64.621 78.5294 64.6274 78.6453 64.6109 78.7591Z" fill="#263238"/>
<path d="M65.2385 77.9506C65.116 78.0535 64.5525 77.4606 63.646 77.2891C62.7395 77.1176 62.0094 77.5145 61.931 77.3822C61.8526 77.2499 62.0241 77.1274 62.3475 76.9461C62.7746 76.722 63.2641 76.6461 63.7391 76.7305C64.2164 76.8116 64.6537 77.0475 64.9837 77.4018C65.2336 77.6811 65.2973 77.9065 65.2385 77.9506Z" fill="#263238"/>
<path d="M55.5115 77.8869C55.5079 78.0043 55.4801 78.1197 55.4299 78.2259C55.3796 78.3321 55.308 78.4267 55.2194 78.5039C55.1309 78.5811 55.0273 78.6391 54.9153 78.6744C54.8032 78.7097 54.6851 78.7214 54.5683 78.7089C54.4515 78.6964 54.3386 78.6598 54.2366 78.6016C54.1345 78.5434 54.0457 78.4647 53.9755 78.3705C53.9053 78.2763 53.8554 78.1686 53.8288 78.0542C53.8022 77.9398 53.7995 77.8211 53.821 77.7056C53.8245 77.5882 53.8523 77.4728 53.9025 77.3666C53.9528 77.2604 54.0244 77.1658 54.113 77.0886C54.2015 77.0114 54.3051 76.9534 54.4171 76.9181C54.5292 76.8828 54.6473 76.8711 54.7641 76.8836C54.8809 76.8961 54.9938 76.9327 55.0958 76.9909C55.1979 77.0491 55.2867 77.1278 55.3569 77.222C55.4271 77.3162 55.477 77.4239 55.5036 77.5383C55.5302 77.6527 55.5329 77.7714 55.5115 77.8869Z" fill="#263238"/>
<path d="M55.9625 77.1225C55.8449 77.2254 55.2765 76.608 54.3749 76.461C53.4733 76.314 52.7383 76.6864 52.655 76.5492C52.6158 76.4904 52.753 76.2944 53.0764 76.118C53.5034 75.8935 53.993 75.8176 54.468 75.9024C54.9455 75.9828 55.3831 76.2188 55.7126 76.5737C55.9576 76.8481 56.0213 77.0784 55.9625 77.1225Z" fill="#263238"/>
<path d="M57.1348 84.1295C57.6388 84.0985 58.1446 84.1347 58.6391 84.2373C58.8743 84.2716 59.0997 84.2814 59.1781 84.1246C59.2477 83.8762 59.2477 83.6135 59.1781 83.3651C59.1046 82.7183 59.0311 82.0421 58.9527 81.3316C58.6636 78.4406 58.5166 76.0935 58.6244 76.0788C58.7322 76.0641 59.0556 78.3965 59.3496 81.2875C59.4133 81.998 59.477 82.6742 59.5358 83.321C59.6064 83.6512 59.5668 83.9955 59.4231 84.301C59.3719 84.3757 59.3041 84.4376 59.225 84.4817C59.146 84.5259 59.0578 84.5513 58.9674 84.5558C58.8337 84.5582 58.7003 84.5434 58.5705 84.5117C58.0767 84.4504 57.5936 84.3219 57.1348 84.1295Z" fill="#263238"/>
<path d="M56.051 95.7621C52.9175 95.2802 49.9923 93.8959 47.6328 91.7784C47.6328 91.7784 49.2792 97.1292 55.9285 97.5702L56.051 95.7621Z" fill="#EB996E"/>
<path d="M56.2469 86.8C56.2274 86.5071 56.1364 86.2235 55.9817 85.9741C55.8271 85.7246 55.6136 85.5169 55.36 85.3692C55.1846 85.2647 54.9888 85.1993 54.7859 85.1773C54.5829 85.1553 54.3776 85.1773 54.184 85.2418C53.9928 85.313 53.8272 85.4396 53.7085 85.6055C53.5898 85.7713 53.5233 85.9689 53.5176 86.1728C53.5459 86.3988 53.6392 86.6117 53.7862 86.7857C53.9332 86.9597 54.1276 87.0872 54.3457 87.1528C54.7891 87.2746 55.2534 87.3013 55.7079 87.2312C55.8346 87.2275 55.9594 87.1992 56.0754 87.1479C56.132 87.1201 56.1795 87.0768 56.2125 87.023C56.2455 86.9692 56.2625 86.9072 56.2616 86.8441" fill="#EB996E"/>
<path d="M54.2675 84.35C54.2038 84.35 54.0568 84.5754 54.0323 85.0213C54.0147 85.6131 54.2119 86.1912 54.5876 86.6488C54.9632 87.1064 55.4918 87.4125 56.0756 87.5105C56.5215 87.5742 56.7861 87.4762 56.7812 87.4076C56.7812 87.2557 55.7326 87.2018 55.0025 86.31C54.2724 85.4182 54.4145 84.3745 54.2675 84.35Z" fill="#263238"/>
<path d="M43.1208 76.4071C43.0179 76.3336 39.2596 74.7117 38.1865 79.1364C37.1134 83.5611 42.2486 83.1103 42.2878 82.9829C42.327 82.8555 43.1208 76.4071 43.1208 76.4071Z" fill="#FFBE9D"/>
<path d="M41.2342 81.1258C41.2342 81.1258 41.1411 81.1601 40.9843 81.1895C40.771 81.2261 40.5518 81.1843 40.3669 81.0719C39.9063 80.7926 39.6662 79.9645 39.8377 79.1609C39.9153 78.7759 40.0832 78.4148 40.3277 78.1074C40.4095 77.9756 40.5215 77.8651 40.6544 77.785C40.7873 77.705 40.9373 77.6576 41.0921 77.6468C41.1895 77.642 41.2857 77.6704 41.3649 77.7274C41.4441 77.7844 41.5017 77.8665 41.5282 77.9604C41.5625 78.0976 41.5282 78.1809 41.5282 78.1956C41.5282 78.2103 41.6458 78.1417 41.6556 77.9506C41.6531 77.8349 41.6097 77.7238 41.5331 77.637C41.4229 77.5152 41.2705 77.4399 41.1068 77.4263C40.9083 77.4181 40.7109 77.4584 40.5316 77.5438C40.3522 77.6292 40.1965 77.757 40.0778 77.9163C39.7869 78.2513 39.5847 78.654 39.4898 79.0874C39.3036 79.989 39.5878 80.9249 40.2297 81.2532C40.3503 81.3142 40.4822 81.3496 40.6171 81.3572C40.752 81.3648 40.887 81.3444 41.0137 81.2973C41.1999 81.2287 41.2489 81.1356 41.2342 81.1258Z" fill="#EB996E"/>
<path d="M65.8422 63.7161C66.6212 64.2798 67.2063 65.0711 67.5169 65.9811C67.8276 66.8911 67.8485 67.875 67.5768 68.7974C66.9104 70.9142 64.9357 73.2074 59.4477 73.1339L60.6972 71.7472C59.4624 72.6892 58.0193 73.3207 56.4895 73.5884C54.9597 73.8562 53.3879 73.7524 51.9066 73.2858L53.4452 70.3066C53.4452 70.3066 46.5068 77.6615 42.6309 77.98L43.1209 70.14C44.0568 62.741 47.2271 60.5213 52.0242 60.1244C53.8059 59.9624 55.5999 59.9937 57.375 60.2175C60.4476 60.6497 63.3606 61.8533 65.8422 63.7161Z" fill="#A3CAF6"/>
<path d="M38.7101 57.3069C39.0754 57.3957 39.4221 57.5483 39.7342 57.7577C41.3101 58.6783 42.5615 60.065 43.3161 61.7267C43.4915 62.0584 43.6076 62.4183 43.6591 62.79C43.5758 62.8292 43.027 61.1877 41.6207 59.654C40.2144 58.1203 38.6611 57.4 38.7101 57.3069Z" fill="#A3CAF6"/>
<path d="M24.7395 82.39C24.7395 82.39 24.6464 82.292 24.4357 82.1597C24.1231 81.971 23.7617 81.879 23.3969 81.8951C23.1144 81.9021 22.8368 81.9701 22.5831 82.0944C22.3294 82.2188 22.1055 82.3965 21.9269 82.6154C21.7109 82.9218 21.5756 83.2778 21.5337 83.6504C21.4917 84.023 21.5444 84.4001 21.6868 84.7469C21.8606 85.1636 22.1409 85.5273 22.4995 85.8016C22.8581 86.0759 23.2824 86.2513 23.7301 86.31C24.2484 86.3888 24.7778 86.3528 25.2807 86.2047C25.7836 86.0565 26.2479 85.7997 26.6407 85.4525C27.5419 84.6974 28.1646 83.6625 28.4096 82.5125C28.5395 81.9118 28.5395 81.2904 28.4096 80.6897C28.2617 80.0667 28.0413 79.4632 27.753 78.8914C27.4786 78.2985 27.1846 77.7154 26.9543 77.1029C26.7289 76.5004 26.5823 75.8712 26.5182 75.2311C26.4139 74.0197 26.5555 72.7996 26.9347 71.6443C27.5915 69.7008 28.7332 67.9569 30.252 66.5777C31.2504 65.6436 32.333 64.8037 33.486 64.0689C33.8927 63.8092 34.2161 63.6132 34.4366 63.4858C34.5458 63.4161 34.6605 63.3554 34.7796 63.3045C34.6835 63.3921 34.5784 63.4693 34.466 63.5348L33.5497 64.162C32.4237 64.9215 31.3633 65.7738 30.3794 66.71C28.9129 68.087 27.8102 69.8058 27.1699 71.7129C26.8117 72.8355 26.6801 74.018 26.7828 75.1919C26.8515 75.8075 26.993 76.4128 27.2042 76.9951C27.4296 77.588 27.7236 78.1613 28.0029 78.764C28.2987 79.3546 28.5241 79.9779 28.6742 80.6211C28.8114 81.259 28.8114 81.9187 28.6742 82.5566C28.4094 83.7642 27.7468 84.8478 26.7926 85.6338C26.3709 86.0011 25.8735 86.2709 25.3357 86.4242C24.798 86.5775 24.233 86.6104 23.6811 86.5207C23.1937 86.4516 22.7336 86.2541 22.3478 85.9484C21.962 85.6427 21.6645 85.2399 21.4859 84.7812C21.3382 84.404 21.2882 83.9955 21.3404 83.5938C21.3927 83.1921 21.5455 82.81 21.7848 82.4831C21.9808 82.2499 22.2263 82.0634 22.5035 81.9371C22.7807 81.8108 23.0825 81.7479 23.3871 81.753C23.7683 81.7458 24.1421 81.859 24.4553 82.0764C24.5701 82.1608 24.6667 82.2675 24.7395 82.39Z" fill="#A3CAF6"/>
<path d="M42.4923 67.6018C42.3378 67.3366 42.244 67.0404 42.2179 66.7345C42.1027 66.0059 42.131 65.2619 42.3012 64.5442C42.467 63.8249 42.7734 63.1454 43.2028 62.545C43.536 62.0893 43.8104 61.8688 43.83 61.8933C43.8496 61.9178 42.9431 62.9762 42.5756 64.6079C42.2081 66.2396 42.5805 67.5871 42.4923 67.6018Z" fill="#263238"/>
<path d="M38.4461 81.9C38.186 82.1264 37.9843 82.4121 37.8581 82.733C37.8044 82.9019 37.7845 83.0797 37.7997 83.2563C37.8148 83.4329 37.8646 83.6047 37.9463 83.762C38.0609 83.946 38.2165 84.101 38.401 84.2149C38.5854 84.3288 38.7937 84.3985 39.0096 84.4186C39.2241 84.4525 39.4434 84.4384 39.6518 84.3774C39.8603 84.3164 40.0526 84.21 40.215 84.0658C40.4687 83.8125 40.6114 83.4688 40.6119 83.1103C40.5965 82.7615 40.4882 82.4232 40.2983 82.1303C40.2983 82.1303 40.4061 82.1695 40.5286 82.3214C40.6994 82.541 40.7986 82.8079 40.8128 83.0858C40.8268 83.2957 40.7975 83.5063 40.7267 83.7043C40.6559 83.9024 40.5451 84.0839 40.4012 84.2373C40.2124 84.4157 39.9853 84.5486 39.7374 84.6259C39.4894 84.7031 39.2271 84.7227 38.9704 84.6832C38.7172 84.6593 38.4732 84.5763 38.2579 84.441C38.0426 84.3057 37.862 84.1218 37.7307 83.9041C37.6383 83.7143 37.5867 83.5072 37.5791 83.2963C37.5715 83.0853 37.6081 82.8751 37.6866 82.6791C37.7831 82.4202 37.9534 82.1953 38.1766 82.0323C38.3334 81.9245 38.4412 81.9 38.4461 81.9Z" fill="#455A64"/>
<path d="M68.782 70.5418C68.7281 70.5418 68.9437 69.7872 68.9486 68.5818C68.9645 66.9828 68.5423 65.41 67.7278 64.034C66.9132 62.658 65.7374 61.5313 64.3279 60.7761C63.2548 60.193 62.4953 60.0264 62.51 59.9725C62.6922 59.9757 62.8726 60.0088 63.0441 60.0705C63.5193 60.2014 63.9804 60.3787 64.421 60.5997C65.8972 61.331 67.1297 62.4748 67.969 63.8924C68.8082 65.31 69.2183 66.9407 69.1495 68.5867C69.1307 69.0818 69.0651 69.574 68.9535 70.0567C68.919 70.2256 68.8613 70.3888 68.782 70.5418Z" fill="#A3CAF6"/>
<path d="M56.3994 75.3977C56.37 75.432 56.1838 75.2556 55.8457 75.0498C55.4111 74.782 54.9223 74.6146 54.4149 74.5598C53.9054 74.5086 53.391 74.574 52.9106 74.7509C52.5333 74.8832 52.3177 75.0155 52.2932 74.9763C52.2687 74.9371 52.4549 74.7558 52.8322 74.5647C53.3313 74.3176 53.8904 74.2173 54.4443 74.2756C54.9973 74.3361 55.5229 74.5481 55.9633 74.8881C56.2916 75.1527 56.4288 75.3781 56.3994 75.3977Z" fill="#A3CAF6"/>
<path d="M65.0425 76.2258C64.4616 76.32 63.8692 76.32 63.2883 76.2258C62.7011 76.2281 62.1173 76.1371 61.5586 75.9563C62.138 75.8633 62.7285 75.8633 63.3079 75.9563C63.8968 75.953 64.4824 76.044 65.0425 76.2258Z" fill="#A3CAF6"/>
<path d="M96.6517 118.817C96.6517 118.817 99.43 112.216 95.6717 112.937C89.9142 114.034 90.7717 119.635 90.7717 119.635L96.6517 118.817Z" fill="#EB996E"/>
<path d="M102.003 89.2108C101.519 89.039 101.012 88.9416 100.499 88.9217C103.625 91.2443 104.472 97.2223 102.282 103.259C100.146 109.139 95.8239 113.152 91.9921 113.123L91.6883 113.044C88.6454 110.668 87.8418 104.763 90.0027 98.7952C92.1636 92.827 96.6177 88.7502 100.494 88.9217C100.1 88.6261 99.666 88.3885 99.2049 88.2161C95.0595 86.7069 89.6695 90.9993 87.2195 97.8005C84.8234 104.406 86.068 110.933 89.9586 112.682H89.8802L82.2166 132.282C82.0529 132.698 82.0613 133.163 82.24 133.573C82.4188 133.983 82.7532 134.306 83.1697 134.47C83.5862 134.633 84.0507 134.625 84.461 134.446C84.8713 134.268 85.1938 133.933 85.3575 133.517L93.0995 113.838C97.2596 115.343 102.63 111.055 105.095 104.254C107.559 97.4526 106.163 90.72 102.003 89.2108Z" fill="#263238"/>
<path d="M98.5449 106.939C98.5997 106.731 98.6786 106.531 98.7801 106.341L99.4955 104.758C100.309 103.031 100.943 101.225 101.387 99.3685C101.813 97.5176 101.813 95.5942 101.387 93.7433C101.172 92.9857 100.9 92.2453 100.574 91.5285C100.717 91.6901 100.836 91.8716 100.926 92.0675C101.203 92.5823 101.422 93.1263 101.578 93.6894C102.072 95.5669 102.1 97.5363 101.661 99.4273C101.215 101.296 100.549 103.105 99.6768 104.817C99.3485 105.474 99.0741 106.003 98.8781 106.361C98.7933 106.568 98.6813 106.762 98.5449 106.939Z" fill="#263238"/>
<path d="M97.7406 108.507C97.7945 108.566 97.5593 108.894 97.2065 109.242C96.8537 109.59 96.5303 109.825 96.4764 109.771C96.4225 109.717 96.6577 109.389 97.0105 109.041C97.3633 108.693 97.6867 108.453 97.7406 108.507Z" fill="#263238"/>
<path d="M89.3806 115.867C88.7877 114.745 88.0968 113.196 87.0531 112.471C86.0094 111.746 84.559 110.908 83.334 111.981C84.8747 114.181 86.3024 116.457 87.6117 118.802L89.3806 115.867Z" fill="#EB996E"/>
<path d="M97.5444 113.882C97.5444 113.882 97.3141 112.579 95.4031 113.152C93.4921 113.726 87.5043 114.975 88.6607 116.249C89.8171 117.523 91.8604 116.95 91.8604 116.95C91.8604 116.95 88.5333 117.67 88.8518 118.366C89.1703 119.062 89.724 120.267 91.1401 119.512C92.5562 118.758 96.486 117.479 96.486 117.479L97.5444 113.882Z" fill="#EB996E"/>
<path d="M97.3288 116.793C97.3288 116.793 97.3288 116.666 97.3288 116.465C97.3241 116.33 97.2785 116.199 97.198 116.091C97.1175 115.982 97.0059 115.901 96.878 115.857C96.4524 115.809 96.0216 115.873 95.6285 116.043L94.036 116.469C92.9041 116.768 91.8751 117.018 91.1254 117.185C90.7264 117.303 90.3156 117.377 89.9004 117.405C90.2754 117.224 90.67 117.086 91.0764 116.994C91.8114 116.773 92.8306 116.504 93.9625 116.2L95.5599 115.793C96.0001 115.618 96.4818 115.573 96.9466 115.666C97.1028 115.731 97.2345 115.843 97.3225 115.988C97.4106 116.132 97.4505 116.301 97.4366 116.469C97.4219 116.69 97.3386 116.798 97.3288 116.793Z" fill="#263238"/>
<path d="M46.2307 130.665L52.0127 141.386L80.7169 126.931C80.7169 126.931 84.9407 118.817 85.6414 118.919C86.3421 119.022 89.4487 120.36 89.4487 120.36C89.4487 120.36 93.8587 117.979 94.8093 118.626C95.7599 119.272 97.0437 127.112 96.2107 129.538C95.3777 131.963 86.6606 136.849 86.6606 136.849C86.6606 136.849 63.1406 152.293 52.9143 157.718C46.1817 161.295 40.2429 157.027 36.2543 150.265L29.4531 135.874" fill="#FFBE9D"/>
</svg>
