<svg width="24" height="21" viewBox="0 0 24 21" fill="none" xmlns="http://www.w3.org/2000/svg">
<path d="M16.5002 20.957C9.25223 20.957 0.000232378 13.1823 0.000232378 7.09151C-0.00669965 6.43589 0.141524 5.78565 0.436285 5.17859C0.731047 4.57154 1.16647 4.01977 1.71723 3.55538L4.88723 0.891514L11.1512 6.15621L7.74523 9.01839C8.97262 11.4675 11.2884 13.4178 14.2002 14.4545L17.6142 11.5856L23.8802 16.8503L20.7082 19.5159C20.1554 19.9783 19.4987 20.3439 18.7763 20.5913C18.054 20.8387 17.2803 20.963 16.5002 20.957V20.957ZM4.88723 3.26882L3.13023 4.74529C2.76619 5.05389 2.47882 5.42024 2.28482 5.82303C2.09083 6.22582 1.99409 6.65701 2.00023 7.09151C2.00023 12.3302 10.2662 19.2764 16.5002 19.2764C17.0171 19.2814 17.53 19.2002 18.0092 19.0375C18.4885 18.8748 18.9246 18.6338 19.2922 18.3285L21.0512 16.8503L17.6132 13.9621L14.6862 16.4192L14.0802 16.2243C12.1504 15.6207 10.3975 14.6757 8.94034 13.4532C7.48312 12.2307 6.35562 10.7592 5.63423 9.13856L5.38823 8.62344L8.32323 6.15621L4.88723 3.26882ZM17.1872 9.77134L18.5602 8.61924L17.0002 7.30831V4.99067H15.0002V7.93184L17.1872 9.77134ZM11.5652 4.12764C12.1099 3.62167 12.7713 3.21401 13.5092 2.92943C14.2471 2.64485 15.0462 2.48928 15.8579 2.47217C16.6695 2.45506 17.4769 2.57677 18.2308 2.82991C18.9848 3.08305 19.6697 3.46233 20.2439 3.94472C20.818 4.42711 21.2695 5.00255 21.571 5.63608C21.8724 6.2696 22.0174 6.94801 21.9972 7.63008C21.9771 8.31215 21.7921 8.98367 21.4536 9.60384C21.1152 10.224 20.6302 10.7799 20.0282 11.2377L21.4412 12.426C22.2282 11.8119 22.8597 11.0708 23.298 10.247C23.7364 9.42316 23.9725 8.53352 23.9924 7.63126C24.0123 6.72899 23.8154 5.83262 23.4137 4.99573C23.0119 4.15884 22.4135 3.39862 21.6541 2.76051C20.8948 2.1224 19.9901 1.61951 18.9942 1.28189C17.9983 0.944282 16.9316 0.778883 15.8579 0.795583C14.7842 0.812284 13.7256 1.01074 12.7452 1.37909C11.7649 1.74744 10.883 2.27812 10.1522 2.93941L11.5652 4.12764Z" fill="#040404"/>
</svg>
