<svg width="24" height="31" viewBox="0 0 24 31" fill="none" xmlns="http://www.w3.org/2000/svg">
<path d="M15.8236 26.6199L15.2334 26.1571L15.8236 26.6199ZM8.17641 26.6199L7.58624 27.0827L8.17641 26.6199ZM12 29.7893V29.0393V29.7893ZM22.25 12.7437C22.25 14.5078 21.3376 16.8189 19.95 19.2722C18.5789 21.6962 16.8101 24.1465 15.2334 26.1571L16.4138 27.0827C18.013 25.0434 19.8324 22.5268 21.2556 20.0107C22.6621 17.524 23.75 14.922 23.75 12.7437H22.25ZM8.76658 26.1571C7.18991 24.1465 5.4211 21.6962 4.05004 19.2722C2.66238 16.8189 1.75 14.5078 1.75 12.7437H0.25C0.25 14.922 1.33787 17.524 2.74443 20.0107C4.1676 22.5268 5.987 25.0434 7.58624 27.0827L8.76658 26.1571ZM1.75 12.7437C1.75 6.56779 6.38993 1.65674 12 1.65674V0.156738C5.45981 0.156738 0.25 5.84485 0.25 12.7437H1.75ZM12 1.65674C17.6101 1.65674 22.25 6.56779 22.25 12.7437H23.75C23.75 5.84485 18.5402 0.156738 12 0.156738V1.65674ZM15.2334 26.1571C14.3885 27.2345 13.8115 27.9662 13.288 28.4418C12.7966 28.8882 12.4267 29.0393 12 29.0393V30.5393C12.9115 30.5393 13.625 30.1621 14.2966 29.5521C14.936 28.9712 15.6017 28.1182 16.4138 27.0827L15.2334 26.1571ZM7.58624 27.0827C8.39826 28.1182 9.06396 28.9712 9.70344 29.5521C10.375 30.1621 11.0885 30.5393 12 30.5393V29.0393C11.5733 29.0393 11.2034 28.8882 10.712 28.4418C10.1885 27.9662 9.61149 27.2345 8.76658 26.1571L7.58624 27.0827ZM7.125 13.2817C7.125 15.9741 9.30761 18.1567 12 18.1567V16.6567C10.136 16.6567 8.625 15.1457 8.625 13.2817H7.125ZM12 18.1567C14.6924 18.1567 16.875 15.9741 16.875 13.2817H15.375C15.375 15.1457 13.864 16.6567 12 16.6567V18.1567ZM16.875 13.2817C16.875 10.5893 14.6924 8.40674 12 8.40674V9.90674C13.864 9.90674 15.375 11.4178 15.375 13.2817H16.875ZM12 8.40674C9.30761 8.40674 7.125 10.5893 7.125 13.2817H8.625C8.625 11.4178 10.136 9.90674 12 9.90674V8.40674Z" fill="#040404"/>
</svg>
