<svg width="40" height="41" viewBox="0 0 40 41" fill="none" xmlns="http://www.w3.org/2000/svg">
<path d="M11.6 0.906738H28.4C34.8 0.906738 40 6.10674 40 12.5067V29.3067C40 32.3833 38.7779 35.3338 36.6024 37.5092C34.427 39.6846 31.4765 40.9067 28.4 40.9067H11.6C5.2 40.9067 0 35.7067 0 29.3067V12.5067C0 9.43023 1.22214 6.47972 3.39756 4.3043C5.57298 2.12888 8.52349 0.906738 11.6 0.906738ZM11.2 4.90674C9.29044 4.90674 7.45909 5.66531 6.10883 7.01557C4.75857 8.36583 4 10.1972 4 12.1067V29.7067C4 33.6867 7.22 36.9067 11.2 36.9067H28.8C30.7096 36.9067 32.5409 36.1482 33.8912 34.7979C35.2414 33.4476 36 31.6163 36 29.7067V12.1067C36 8.12674 32.78 4.90674 28.8 4.90674H11.2ZM30.5 7.90674C31.163 7.90674 31.7989 8.17013 32.2678 8.63897C32.7366 9.10781 33 9.7437 33 10.4067C33 11.0698 32.7366 11.7057 32.2678 12.1745C31.7989 12.6433 31.163 12.9067 30.5 12.9067C29.837 12.9067 29.2011 12.6433 28.7322 12.1745C28.2634 11.7057 28 11.0698 28 10.4067C28 9.7437 28.2634 9.10781 28.7322 8.63897C29.2011 8.17013 29.837 7.90674 30.5 7.90674ZM20 10.9067C22.6522 10.9067 25.1957 11.9603 27.0711 13.8357C28.9464 15.711 30 18.2546 30 20.9067C30 23.5589 28.9464 26.1024 27.0711 27.9778C25.1957 29.8532 22.6522 30.9067 20 30.9067C17.3478 30.9067 14.8043 29.8532 12.9289 27.9778C11.0536 26.1024 10 23.5589 10 20.9067C10 18.2546 11.0536 15.711 12.9289 13.8357C14.8043 11.9603 17.3478 10.9067 20 10.9067ZM20 14.9067C18.4087 14.9067 16.8826 15.5389 15.7574 16.6641C14.6321 17.7893 14 19.3154 14 20.9067C14 22.498 14.6321 24.0242 15.7574 25.1494C16.8826 26.2746 18.4087 26.9067 20 26.9067C21.5913 26.9067 23.1174 26.2746 24.2426 25.1494C25.3679 24.0242 26 22.498 26 20.9067C26 19.3154 25.3679 17.7893 24.2426 16.6641C23.1174 15.5389 21.5913 14.9067 20 14.9067Z" fill="#4116F7"/>
</svg>
