<svg width="245" height="175" viewBox="0 0 245 175" fill="none" xmlns="http://www.w3.org/2000/svg">
<g clip-path="url(#clip0_939_2270)">
<path d="M245 158.376H0V158.498H245V158.376Z" fill="#EBEBEB"/>
<path d="M41.9339 166.26H25.7051V166.383H41.9339V166.26Z" fill="#EBEBEB"/>
<path d="M88.1175 167.593H83.8594V167.715H88.1175V167.593Z" fill="#EBEBEB"/>
<path d="M54.8796 161.713H42.4238V161.835H54.8796V161.713Z" fill="#EBEBEB"/>
<path d="M220.45 162.536H206.779V162.659H220.45V162.536Z" fill="#EBEBEB"/>
<path d="M202.419 162.536H191.82V162.659H202.419V162.536Z" fill="#EBEBEB"/>
<path d="M161.043 164.604H135.832V164.726H161.043V164.604Z" fill="#EBEBEB"/>
<path d="M116.13 136.522H21.5157C20.7745 136.521 20.0641 136.225 19.5404 135.701C19.0168 135.176 18.7227 134.465 18.7227 133.724V0.723397C18.7291 -0.0135509 19.0261 -0.718194 19.549 -1.23748C20.072 -1.75676 20.7787 -2.04874 21.5157 -2.05H116.13C116.872 -2.05 117.583 -1.75523 118.108 -1.23052C118.633 -0.705809 118.928 0.00584719 118.928 0.747896V133.724C118.928 134.466 118.633 135.178 118.108 135.703C117.583 136.227 116.872 136.522 116.13 136.522V136.522ZM21.5157 -1.952C20.8069 -1.9507 20.1277 -1.66826 19.627 -1.16667C19.1264 -0.665073 18.8452 0.0146848 18.8452 0.723397V133.724C18.8452 134.433 19.1264 135.113 19.627 135.614C20.1277 136.116 20.8069 136.398 21.5157 136.399H116.13C116.839 136.398 117.519 136.116 118.02 135.614C118.522 135.113 118.804 134.433 118.805 133.724V0.723397C118.804 0.0142345 118.522 -0.665512 118.02 -1.16697C117.519 -1.66842 116.839 -1.95071 116.13 -1.952H21.5157Z" fill="#EBEBEB"/>
<path d="M222.122 136.522H127.503C126.761 136.521 126.05 136.226 125.526 135.701C125.002 135.177 124.706 134.466 124.705 133.724V0.723397C124.713 -0.0139977 125.011 -0.718635 125.535 -1.23778C126.058 -1.75693 126.766 -2.04875 127.503 -2.05H222.122C222.858 -2.04745 223.564 -1.7549 224.085 -1.23576C224.607 -0.716612 224.904 -0.0127046 224.91 0.723397V133.724C224.91 134.464 224.617 135.175 224.094 135.699C223.571 136.223 222.862 136.519 222.122 136.522V136.522ZM127.503 -1.952C126.794 -1.95071 126.114 -1.66842 125.613 -1.16697C125.111 -0.665512 124.829 0.0142345 124.828 0.723397V133.724C124.829 134.433 125.111 135.113 125.613 135.614C126.114 136.116 126.794 136.398 127.503 136.399H222.122C222.831 136.398 223.511 136.116 224.012 135.614C224.514 135.113 224.796 134.433 224.797 133.724V0.723397C224.796 0.0142345 224.514 -0.665512 224.012 -1.16697C223.511 -1.66842 222.831 -1.95071 222.122 -1.952H127.503Z" fill="#EBEBEB"/>
<path d="M56.5993 92.03H40.8066V158.376H68.0506V103.481L56.5993 92.03Z" fill="#E0E0E0"/>
<path d="M52.259 103.476H29.3613V158.371H52.259V103.476Z" fill="#EBEBEB"/>
<path d="M52.259 103.476H29.3613V104.378H52.259V103.476Z" fill="#E0E0E0"/>
<path d="M40.8077 92.03L29.3613 103.481H52.2541L40.8077 92.03Z" fill="#EBEBEB"/>
<path d="M37.3476 110.65H33.1875V114.81H37.3476V110.65Z" fill="#E0E0E0"/>
<path d="M46.4863 110.65H42.3262V114.81H46.4863V110.65Z" fill="#E0E0E0"/>
<path d="M37.3476 122.572H33.1875V126.732H37.3476V122.572Z" fill="#E0E0E0"/>
<path d="M46.4863 122.572H42.3262V126.732H46.4863V122.572Z" fill="#E0E0E0"/>
<path d="M37.3476 134.493H33.1875V138.654H37.3476V134.493Z" fill="#E0E0E0"/>
<path d="M46.4863 134.493H42.3262V138.654H46.4863V134.493Z" fill="#E0E0E0"/>
<path d="M37.3476 146.415H33.1875V150.575H37.3476V146.415Z" fill="#E0E0E0"/>
<path d="M46.4863 146.415H42.3262V150.575H46.4863V146.415Z" fill="#E0E0E0"/>
<path d="M63.6899 92.9169H59.9512V100.394H63.6899V92.9169Z" fill="#E0E0E0"/>
<path d="M145.378 83.2933H125.852V158.376H159.529V97.4494L145.378 83.2933Z" fill="#E0E0E0"/>
<path d="M140.003 97.4494H111.695V158.376H140.003V97.4494Z" fill="#EBEBEB"/>
<path d="M140.003 97.4494H111.695V98.5666H140.003V97.4494Z" fill="#E0E0E0"/>
<path d="M125.851 83.2933L111.695 97.4494H140.003L125.851 83.2933Z" fill="#EBEBEB"/>
<path d="M157.466 106.573L145.123 106.568V158.376H171.622V120.724L157.466 106.573Z" fill="#E0E0E0"/>
<path d="M145.123 106.568V120.724V158.376H159.279V120.724L145.123 106.568Z" fill="#EBEBEB"/>
<path d="M127.541 109.788H124.16V116.986H127.541V109.788Z" fill="#E0E0E0"/>
<path d="M135.004 109.788H131.623V116.986H135.004V109.788Z" fill="#E0E0E0"/>
<path d="M127.541 123.478H124.16V130.676H127.541V123.478Z" fill="#E0E0E0"/>
<path d="M135.004 123.478H131.623V130.676H135.004V123.478Z" fill="#E0E0E0"/>
<path d="M127.541 137.164H124.16V144.362H127.541V137.164Z" fill="#E0E0E0"/>
<path d="M120.074 109.788H116.693V116.986H120.074V109.788Z" fill="#E0E0E0"/>
<path d="M120.074 123.478H116.693V130.676H120.074V123.478Z" fill="#E0E0E0"/>
<path d="M120.074 137.164H116.693V144.362H120.074V137.164Z" fill="#E0E0E0"/>
<path d="M135.004 137.164H131.623V144.362H135.004V137.164Z" fill="#E0E0E0"/>
<path d="M152.537 123.478H149.156V130.676H152.537V123.478Z" fill="#E0E0E0"/>
<path d="M152.537 137.164H149.156V144.362H152.537V137.164Z" fill="#E0E0E0"/>
<path d="M91.6405 107.235H73.873V158.376H104.523V120.117L91.6405 107.235Z" fill="#E0E0E0"/>
<path d="M86.7495 120.117H60.9902V158.376H86.7495V120.117Z" fill="#EBEBEB"/>
<path d="M86.7495 120.117H60.9902V121.131H86.7495V120.117Z" fill="#E0E0E0"/>
<path d="M73.8723 107.235L60.9902 120.117H86.7495L73.8723 107.235Z" fill="#EBEBEB"/>
<path d="M69.9764 128.187H65.2969V132.867H69.9764V128.187Z" fill="#E0E0E0"/>
<path d="M80.2615 128.187H75.582V132.867H80.2615V128.187Z" fill="#E0E0E0"/>
<path d="M69.9764 141.598H65.2969V146.278H69.9764V141.598Z" fill="#E0E0E0"/>
<path d="M80.2615 141.598H75.582V146.278H80.2615V141.598Z" fill="#E0E0E0"/>
<path d="M76.7005 101.575H71.041V112.894H76.7005V101.575Z" fill="#EBEBEB"/>
<path d="M202.076 117.73H183.471V158.376H215.561V127.967L202.076 117.73Z" fill="#E0E0E0"/>
<path d="M196.96 127.967H169.99V158.371H196.96V127.967Z" fill="#EBEBEB"/>
<path d="M196.96 127.967H169.99V128.775H196.96V127.967Z" fill="#E0E0E0"/>
<path d="M183.47 117.73L169.99 127.967H196.955L183.47 117.73Z" fill="#EBEBEB"/>
<path d="M176.611 132.916H174.156V138.193H176.611V132.916Z" fill="#E0E0E0"/>
<path d="M182.006 132.916H179.551V138.193H182.006V132.916Z" fill="#E0E0E0"/>
<path d="M176.611 145.205H174.156V150.482H176.611V145.205Z" fill="#E0E0E0"/>
<path d="M182.006 145.205H179.551V150.482H182.006V145.205Z" fill="#E0E0E0"/>
<path d="M187.396 132.916H184.941V138.193H187.396V132.916Z" fill="#E0E0E0"/>
<path d="M192.791 132.916H190.336V138.193H192.791V132.916Z" fill="#E0E0E0"/>
<path d="M187.396 145.205H184.941V150.482H187.396V145.205Z" fill="#E0E0E0"/>
<path d="M192.791 145.205H190.336V150.482H192.791V145.205Z" fill="#E0E0E0"/>
<path d="M205.123 113.232H199.199V122.229H205.123V113.232Z" fill="#E0E0E0"/>
<path d="M98.6342 28.0223C100.605 15.8789 92.3591 4.43676 80.2156 2.4656C68.0722 0.494446 56.6301 8.74069 54.6589 20.8841C52.6878 33.0275 60.934 44.4697 73.0775 46.4408C85.2209 48.412 96.663 40.1657 98.6342 28.0223Z" fill="#FAFAFA"/>
<path d="M166.924 44.5637C170.256 39.453 175.744 35.8172 180.806 35.8172C183.976 35.8172 186.392 37.248 187.759 39.5804C189.443 38.2815 191.489 37.5384 193.614 37.4538C197.044 37.4538 199.215 39.9038 199.274 43.3877C200.936 42.6162 202.731 42.1673 204.561 42.0647C208.03 41.9079 210.529 43.324 211.573 45.6221C212.258 45.2368 213.022 45.0107 213.807 44.9606C215.801 44.8724 216.87 46.2983 216.193 48.1456C216.149 48.2632 216.1 48.3759 216.056 48.4886H160.23C160.358 46.6756 164.444 44.6568 166.924 44.5637Z" fill="#FAFAFA"/>
<path d="M161.774 16.2368C163.322 13.8701 165.87 12.1796 168.217 12.1796C168.862 12.1519 169.502 12.2995 170.07 12.6067C170.638 12.9138 171.112 13.3691 171.441 13.924C172.225 13.3246 173.175 12.9823 174.161 12.944C175.758 12.944 176.758 14.0857 176.787 15.6978C177.558 15.3409 178.389 15.1331 179.237 15.0853C180.844 15.0118 182.006 15.6684 182.491 16.7317C182.809 16.555 183.162 16.4512 183.525 16.4279C183.713 16.3934 183.906 16.4119 184.084 16.4813C184.262 16.5506 184.418 16.6682 184.533 16.8208C184.647 16.9734 184.718 17.155 184.735 17.3452C184.753 17.5354 184.717 17.7268 184.632 17.8979C184.632 17.9518 184.593 18.0057 184.568 18.0596H158.662C158.731 17.2168 160.627 16.2809 161.774 16.2368Z" fill="#FAFAFA"/>
<path d="M84.1768 24.9343C87.9155 19.2013 94.0748 15.1343 99.749 15.1343C103.306 15.1343 106.016 16.7415 107.545 19.3581C109.608 17.8881 111.921 16.9718 114.121 16.9718C117.987 16.9718 120.403 19.7305 120.466 23.6309C122.334 22.7714 124.347 22.2727 126.4 22.1609C130.286 21.9845 133.094 23.5721 134.265 26.1544C135.033 25.7224 135.889 25.468 136.769 25.4096C139.008 25.3116 140.199 26.9139 139.449 28.9866C139.4 29.114 139.346 29.2414 139.292 29.3688H76.6406C76.8121 27.301 81.3936 25.0372 84.1768 24.9343Z" fill="#F0F0F0"/>
<path d="M37.2404 52.1832C37.3818 52.1655 37.5242 52.1574 37.6667 52.1587C39.22 50.5711 41.0085 49.5568 42.5667 49.5568C43.0556 49.5328 43.5405 49.6558 43.9588 49.91C44.3772 50.1641 44.7098 50.5378 44.9138 50.9827C47.7705 47.9055 51.1564 45.9063 54.0278 45.9063C56.3455 45.9063 57.9037 47.2048 58.5603 49.3363C60.0891 48.1309 61.711 47.4057 63.1418 47.4057C65.6653 47.4057 66.8805 49.6401 66.4199 52.7957C67.6742 52.1171 69.0558 51.7066 70.4771 51.5903C73.03 51.4482 74.6519 52.732 75.0782 54.8243C75.595 54.4849 76.1873 54.278 76.803 54.2216C78.1995 54.1481 78.7875 55.2996 78.2044 56.848H30.2285C31.576 54.496 34.6385 52.4478 37.2404 52.1832Z" fill="#F5F5F5"/>
<path d="M122.5 180.504C174.971 180.504 217.506 178.021 217.506 174.958C217.506 171.894 174.971 169.411 122.5 169.411C70.0298 169.411 27.4941 171.894 27.4941 174.958C27.4941 178.021 70.0298 180.504 122.5 180.504Z" fill="#F5F5F5"/>
<path d="M39.834 174.958H54.8966L52.6818 130.358H42.0488L39.834 174.958Z" fill="#A3CAF6"/>
<path opacity="0.1" d="M39.834 174.958H54.8966L52.6818 130.358H42.0488L39.834 174.958Z" fill="black"/>
<path d="M46.3164 153.741L49.1143 150.943L31.8712 134.528L29.8965 136.497L46.3164 153.741Z" fill="#A3CAF6"/>
<path opacity="0.1" d="M46.3164 153.741L49.1143 150.943L31.8712 134.528L29.8965 136.497L46.3164 153.741Z" fill="black"/>
<path d="M63.1236 134.523C71.0446 134.523 77.4658 128.692 77.4658 121.499C77.4658 114.306 71.0446 108.474 63.1236 108.474C55.2025 108.474 48.7812 114.306 48.7812 121.499C48.7812 128.692 55.2025 134.523 63.1236 134.523Z" fill="#A3CAF6"/>
<path d="M50.5877 117.706C56.7091 117.706 61.6715 113.2 61.6715 107.641C61.6715 102.083 56.7091 97.5768 50.5877 97.5768C44.4663 97.5768 39.5039 102.083 39.5039 107.641C39.5039 113.2 44.4663 117.706 50.5877 117.706Z" fill="#A3CAF6"/>
<path d="M45.5076 129.584C51.629 129.584 56.5914 125.078 56.5914 119.519C56.5914 113.96 51.629 109.454 45.5076 109.454C39.3862 109.454 34.4238 113.96 34.4238 119.519C34.4238 125.078 39.3862 129.584 45.5076 129.584Z" fill="#A3CAF6"/>
<path d="M36.2811 120.205C42.4025 120.205 47.3649 115.699 47.3649 110.14C47.3649 104.582 42.4025 100.076 36.2811 100.076C30.1597 100.076 25.1973 104.582 25.1973 110.14C25.1973 115.699 30.1597 120.205 36.2811 120.205Z" fill="#A3CAF6"/>
<path d="M31.6014 134.067C37.7228 134.067 42.6852 129.561 42.6852 124.002C42.6852 118.444 37.7228 113.938 31.6014 113.938C25.48 113.938 20.5176 118.444 20.5176 124.002C20.5176 129.561 25.48 134.067 31.6014 134.067Z" fill="#A3CAF6"/>
<path d="M35.8729 141.628C41.9943 141.628 46.9567 137.122 46.9567 131.563C46.9567 126.005 41.9943 121.499 35.8729 121.499C29.7514 121.499 24.7891 126.005 24.7891 131.563C24.7891 137.122 29.7514 141.628 35.8729 141.628Z" fill="#A3CAF6"/>
<path d="M47.3651 139.732C55.7949 139.732 62.6286 133.527 62.6286 125.874C62.6286 118.221 55.7949 112.017 47.3651 112.017C38.9353 112.017 32.1016 118.221 32.1016 125.874C32.1016 133.527 38.9353 139.732 47.3651 139.732Z" fill="#A3CAF6"/>
<path d="M55.3221 144.734C63.7519 144.734 70.5856 138.53 70.5856 130.877C70.5856 123.224 63.7519 117.02 55.3221 117.02C46.8923 117.02 40.0586 123.224 40.0586 130.877C40.0586 138.53 46.8923 144.734 55.3221 144.734Z" fill="#A3CAF6"/>
<path d="M22.9182 122.263C27.1101 122.263 30.5083 119.176 30.5083 115.369C30.5083 111.561 27.1101 108.474 22.9182 108.474C18.7263 108.474 15.3281 111.561 15.3281 115.369C15.3281 119.176 18.7263 122.263 22.9182 122.263Z" fill="#A3CAF6"/>
<path d="M27.3518 117.706C31.5437 117.706 34.9419 114.619 34.9419 110.812C34.9419 107.004 31.5437 103.917 27.3518 103.917C23.1599 103.917 19.7617 107.004 19.7617 110.812C19.7617 114.619 23.1599 117.706 27.3518 117.706Z" fill="#A3CAF6"/>
<path d="M64.4319 112.777C68.6238 112.777 72.022 109.69 72.022 105.882C72.022 102.075 68.6238 98.988 64.4319 98.988C60.24 98.988 56.8418 102.075 56.8418 105.882C56.8418 109.69 60.24 112.777 64.4319 112.777Z" fill="#A3CAF6"/>
<g opacity="0.3">
<path opacity="0.3" d="M63.1236 134.523C71.0446 134.523 77.4658 128.692 77.4658 121.499C77.4658 114.306 71.0446 108.474 63.1236 108.474C55.2025 108.474 48.7812 114.306 48.7812 121.499C48.7812 128.692 55.2025 134.523 63.1236 134.523Z" fill="white"/>
<path opacity="0.3" d="M50.5877 117.706C56.7091 117.706 61.6715 113.2 61.6715 107.641C61.6715 102.083 56.7091 97.5768 50.5877 97.5768C44.4663 97.5768 39.5039 102.083 39.5039 107.641C39.5039 113.2 44.4663 117.706 50.5877 117.706Z" fill="white"/>
<path opacity="0.3" d="M45.5076 129.584C51.629 129.584 56.5914 125.078 56.5914 119.519C56.5914 113.96 51.629 109.454 45.5076 109.454C39.3862 109.454 34.4238 113.96 34.4238 119.519C34.4238 125.078 39.3862 129.584 45.5076 129.584Z" fill="white"/>
<path opacity="0.3" d="M36.2811 120.205C42.4025 120.205 47.3649 115.699 47.3649 110.14C47.3649 104.582 42.4025 100.076 36.2811 100.076C30.1597 100.076 25.1973 104.582 25.1973 110.14C25.1973 115.699 30.1597 120.205 36.2811 120.205Z" fill="white"/>
<path opacity="0.3" d="M31.6014 134.067C37.7228 134.067 42.6852 129.561 42.6852 124.003C42.6852 118.444 37.7228 113.938 31.6014 113.938C25.48 113.938 20.5176 118.444 20.5176 124.003C20.5176 129.561 25.48 134.067 31.6014 134.067Z" fill="white"/>
<path opacity="0.3" d="M35.8729 141.628C41.9943 141.628 46.9567 137.122 46.9567 131.563C46.9567 126.005 41.9943 121.499 35.8729 121.499C29.7514 121.499 24.7891 126.005 24.7891 131.563C24.7891 137.122 29.7514 141.628 35.8729 141.628Z" fill="white"/>
<path opacity="0.3" d="M47.3651 139.732C55.7949 139.732 62.6286 133.527 62.6286 125.874C62.6286 118.221 55.7949 112.017 47.3651 112.017C38.9353 112.017 32.1016 118.221 32.1016 125.874C32.1016 133.527 38.9353 139.732 47.3651 139.732Z" fill="white"/>
<path opacity="0.3" d="M55.3221 144.734C63.7519 144.734 70.5856 138.53 70.5856 130.877C70.5856 123.224 63.7519 117.02 55.3221 117.02C46.8923 117.02 40.0586 123.224 40.0586 130.877C40.0586 138.53 46.8923 144.734 55.3221 144.734Z" fill="white"/>
<path opacity="0.3" d="M22.9182 122.263C27.1101 122.263 30.5083 119.176 30.5083 115.369C30.5083 111.561 27.1101 108.474 22.9182 108.474C18.7263 108.474 15.3281 111.561 15.3281 115.369C15.3281 119.176 18.7263 122.263 22.9182 122.263Z" fill="white"/>
<path opacity="0.3" d="M27.3518 117.706C31.5437 117.706 34.9419 114.619 34.9419 110.812C34.9419 107.004 31.5437 103.917 27.3518 103.917C23.1599 103.917 19.7617 107.004 19.7617 110.812C19.7617 114.619 23.1599 117.706 27.3518 117.706Z" fill="white"/>
<path opacity="0.3" d="M64.4319 112.777C68.6238 112.777 72.022 109.69 72.022 105.882C72.022 102.075 68.6238 98.988 64.4319 98.988C60.24 98.988 56.8418 102.075 56.8418 105.882C56.8418 109.69 60.24 112.777 64.4319 112.777Z" fill="white"/>
</g>
<path d="M137.589 169.866C137.589 171.636 137.171 173.38 136.369 174.958H111.786C110.987 173.379 110.57 171.635 110.57 169.866C110.571 168.801 110.721 167.74 111.016 166.716L111.168 166.226C111.764 164.509 112.739 162.948 114.02 161.659C114.221 161.463 114.427 161.267 114.642 161.081C115.957 159.91 117.488 159.01 119.15 158.43C120.285 158.021 121.467 157.759 122.668 157.651C123.137 157.603 123.608 157.58 124.08 157.582C126.44 157.574 128.766 158.142 130.856 159.238C134.884 161.375 137.589 165.334 137.589 169.866Z" fill="#A3CAF6"/>
<path d="M112.275 166.294C118.039 166.294 122.712 162.049 122.712 156.813C122.712 151.576 118.039 147.331 112.275 147.331C106.511 147.331 101.838 151.576 101.838 156.813C101.838 162.049 106.511 166.294 112.275 166.294Z" fill="#A3CAF6"/>
<path d="M117.925 167.98C117.912 169.314 117.606 170.63 117.027 171.832C116.449 173.035 115.613 174.095 114.578 174.938H100.397C98.838 173.657 97.7388 171.902 97.2663 169.94C97.1611 169.478 97.0955 169.007 97.0703 168.534V168.534C97.0703 168.367 97.0703 168.191 97.0703 168.044C97.0779 166.436 97.5234 164.86 98.359 163.487C99.3251 161.907 100.713 160.629 102.367 159.797C104.484 158.725 106.882 158.341 109.227 158.699C111.229 158.985 113.111 159.823 114.661 161.12C115.138 161.526 115.575 161.977 115.965 162.467C116.598 163.253 117.094 164.139 117.435 165.089C117.508 165.29 117.572 165.491 117.626 165.697C117.828 166.441 117.929 167.209 117.925 167.98V167.98Z" fill="#A3CAF6"/>
<path d="M98.8003 168.651C104.564 168.651 109.237 164.406 109.237 159.17C109.237 153.933 104.564 149.688 98.8003 149.688C93.0361 149.688 88.3633 153.933 88.3633 159.17C88.3633 164.406 93.0361 168.651 98.8003 168.651Z" fill="#A3CAF6"/>
<path d="M104.861 172.219C104.861 173.15 104.711 174.075 104.415 174.958H84.4234C84.1299 174.074 83.981 173.149 83.9824 172.219C83.9823 171.576 84.0529 170.935 84.1931 170.308C84.6291 168.457 85.6208 166.785 87.0351 165.515C87.8198 164.802 88.7087 164.212 89.6713 163.766C90.7925 163.243 91.9933 162.912 93.2238 162.786C93.606 162.752 93.998 162.727 94.3949 162.727C95.1454 162.727 95.894 162.802 96.6293 162.953V162.953C97.2106 163.067 97.7811 163.231 98.3345 163.443C100.474 164.23 102.295 165.699 103.519 167.622C104.232 168.776 104.668 170.079 104.793 171.43C104.793 171.572 104.793 171.719 104.822 171.866C104.852 172.013 104.861 172.101 104.861 172.219Z" fill="#A3CAF6"/>
<path d="M107.669 174.958H89.1816C90.5754 172.618 92.8396 170.927 95.4781 170.254C96.0695 170.096 96.6725 169.986 97.2813 169.925C99.8628 169.658 102.458 170.286 104.631 171.704C104.71 171.758 104.783 171.807 104.857 171.866C106.009 172.679 106.969 173.734 107.669 174.958V174.958Z" fill="#A3CAF6"/>
<path d="M123.609 173.987C123.609 174.316 123.609 174.639 123.569 174.967H94.9044C94.8799 174.649 94.8652 174.326 94.8652 173.987C94.8646 172.029 95.3459 170.1 96.2666 168.372C96.5158 167.889 96.7991 167.424 97.1143 166.98C97.8719 165.9 98.7869 164.938 99.8289 164.129C100.956 163.241 102.207 162.525 103.543 162.002C105.3 161.314 107.169 160.953 109.056 160.939H109.242C110.863 160.938 112.474 161.187 114.019 161.679C115.747 162.233 117.36 163.098 118.777 164.232C119.495 164.817 120.152 165.473 120.737 166.192C122.573 168.376 123.589 171.134 123.609 173.987V173.987Z" fill="#A3CAF6"/>
<path d="M130.508 174.958H102.965C103.344 173.797 103.896 172.7 104.601 171.704C104.66 171.616 104.729 171.518 104.797 171.43C106.39 169.309 108.544 167.676 111.016 166.716C111.421 166.559 111.837 166.417 112.265 166.289C113.484 165.929 114.743 165.718 116.014 165.662H116.734C117.028 165.662 117.322 165.662 117.606 165.687C118.667 165.74 119.72 165.905 120.747 166.177C125.441 167.392 129.116 170.724 130.508 174.958Z" fill="#A3CAF6"/>
<path d="M86.2155 170.582C90.1638 170.582 93.3646 167.675 93.3646 164.089C93.3646 160.504 90.1638 157.597 86.2155 157.597C82.2672 157.597 79.0664 160.504 79.0664 164.089C79.0664 167.675 82.2672 170.582 86.2155 170.582Z" fill="#A3CAF6"/>
<path d="M90.3913 166.294C94.3396 166.294 97.5404 163.388 97.5404 159.802C97.5404 156.216 94.3396 153.309 90.3913 153.309C86.4429 153.309 83.2422 156.216 83.2422 159.802C83.2422 163.388 86.4429 166.294 90.3913 166.294Z" fill="#A3CAF6"/>
<path d="M125.313 161.649C129.262 161.649 132.462 158.742 132.462 155.157C132.462 151.571 129.262 148.664 125.313 148.664C121.365 148.664 118.164 151.571 118.164 155.157C118.164 158.742 121.365 161.649 125.313 161.649Z" fill="#A3CAF6"/>
<g opacity="0.3">
<path opacity="0.3" d="M137.587 169.866C137.587 171.636 137.169 173.38 136.367 174.958H111.784C110.985 173.379 110.568 171.635 110.568 169.866C110.569 168.801 110.719 167.74 111.014 166.716L111.166 166.226C111.762 164.509 112.737 162.948 114.018 161.659C114.219 161.463 114.425 161.267 114.64 161.081C115.955 159.91 117.486 159.01 119.148 158.43C120.283 158.021 121.465 157.759 122.666 157.651C123.135 157.603 123.606 157.58 124.078 157.582C126.438 157.574 128.764 158.142 130.854 159.238C134.882 161.375 137.587 165.334 137.587 169.866Z" fill="white"/>
<path opacity="0.3" d="M112.273 166.294C118.037 166.294 122.71 162.049 122.71 156.813C122.71 151.576 118.037 147.331 112.273 147.331C106.509 147.331 101.836 151.576 101.836 156.813C101.836 162.049 106.509 166.294 112.273 166.294Z" fill="white"/>
<path opacity="0.3" d="M117.923 167.98C117.91 169.314 117.604 170.63 117.025 171.832C116.447 173.035 115.611 174.095 114.576 174.938H100.395C98.8361 173.657 97.7368 171.902 97.2644 169.94C97.1591 169.478 97.0935 169.007 97.0684 168.534V168.534C97.0684 168.367 97.0684 168.191 97.0684 168.044C97.076 166.436 97.5215 164.86 98.3571 163.487C99.3231 161.907 100.711 160.629 102.365 159.797C104.482 158.725 106.88 158.341 109.225 158.699C111.227 158.985 113.109 159.823 114.659 161.12C115.136 161.526 115.573 161.977 115.963 162.468C116.596 163.253 117.093 164.139 117.433 165.089C117.506 165.29 117.57 165.491 117.624 165.697C117.826 166.441 117.927 167.209 117.923 167.98V167.98Z" fill="white"/>
<path opacity="0.3" d="M98.7983 168.651C104.563 168.651 109.235 164.406 109.235 159.17C109.235 153.933 104.563 149.688 98.7983 149.688C93.0341 149.688 88.3613 153.933 88.3613 159.17C88.3613 164.406 93.0341 168.651 98.7983 168.651Z" fill="white"/>
<path opacity="0.3" d="M104.859 172.218C104.859 173.15 104.709 174.075 104.413 174.958H84.4215C84.1279 174.074 83.979 173.149 83.9805 172.218C83.9803 171.576 84.051 170.935 84.1912 170.308C84.6271 168.457 85.6189 166.785 87.0332 165.515C87.8178 164.802 88.7068 164.212 89.6694 163.766C90.7906 163.243 91.9913 162.912 93.2219 162.786C93.6041 162.752 93.9961 162.727 94.393 162.727C95.1435 162.727 95.8921 162.802 96.6274 162.953V162.953C97.2087 163.067 97.7791 163.231 98.3326 163.443C100.472 164.23 102.293 165.699 103.517 167.622C104.23 168.776 104.667 170.079 104.791 171.43C104.791 171.572 104.791 171.719 104.82 171.866C104.85 172.013 104.859 172.101 104.859 172.218Z" fill="white"/>
<path opacity="0.3" d="M107.667 174.958H89.1797C90.5734 172.618 92.8376 170.927 95.4762 170.254C96.0675 170.096 96.6705 169.986 97.2794 169.925C99.8609 169.658 102.456 170.286 104.629 171.704C104.708 171.758 104.781 171.807 104.855 171.866C106.007 172.679 106.967 173.734 107.667 174.958V174.958Z" fill="white"/>
<path opacity="0.3" d="M123.607 173.987C123.607 174.316 123.607 174.639 123.567 174.967H94.9025C94.878 174.649 94.8633 174.326 94.8633 173.987C94.8627 172.029 95.344 170.1 96.2647 168.372C96.5139 167.889 96.7971 167.424 97.1124 166.98C97.8699 165.9 98.7849 164.938 99.827 164.129C100.954 163.241 102.205 162.525 103.541 162.002C105.298 161.314 107.167 160.953 109.054 160.939H109.24C110.861 160.938 112.473 161.187 114.017 161.679C115.745 162.233 117.358 163.098 118.775 164.232C119.493 164.817 120.15 165.473 120.735 166.192C122.571 168.376 123.587 171.134 123.607 173.987V173.987Z" fill="white"/>
<path opacity="0.3" d="M130.506 174.958H102.963C103.342 173.797 103.894 172.7 104.599 171.704C104.658 171.616 104.727 171.518 104.795 171.43C106.388 169.309 108.542 167.676 111.014 166.716C111.419 166.559 111.835 166.417 112.263 166.289C113.482 165.929 114.741 165.718 116.012 165.662H116.732C117.026 165.662 117.32 165.662 117.604 165.687C118.665 165.74 119.718 165.905 120.745 166.177C125.439 167.392 129.114 170.724 130.506 174.958Z" fill="white"/>
<path opacity="0.3" d="M86.2155 170.582C90.1638 170.582 93.3646 167.675 93.3646 164.089C93.3646 160.504 90.1638 157.597 86.2155 157.597C82.2672 157.597 79.0664 160.504 79.0664 164.089C79.0664 167.675 82.2672 170.582 86.2155 170.582Z" fill="white"/>
<path opacity="0.3" d="M90.3893 166.294C94.3377 166.294 97.5384 163.388 97.5384 159.802C97.5384 156.216 94.3377 153.309 90.3893 153.309C86.441 153.309 83.2402 156.216 83.2402 159.802C83.2402 163.388 86.441 166.294 90.3893 166.294Z" fill="white"/>
<path opacity="0.3" d="M125.313 161.649C129.262 161.649 132.462 158.742 132.462 155.157C132.462 151.571 129.262 148.664 125.313 148.664C121.365 148.664 118.164 151.571 118.164 155.157C118.164 158.742 121.365 161.649 125.313 161.649Z" fill="white"/>
</g>
<path d="M169.482 174.958H189.974L186.961 114.301H172.496L169.482 174.958Z" fill="#A3CAF6"/>
<path opacity="0.1" d="M169.482 174.958H189.974L186.961 114.301H172.496L169.482 174.958Z" fill="black"/>
<path d="M178.302 146.102L182.109 142.299L158.663 119.97L155.973 122.655L178.302 146.102Z" fill="#A3CAF6"/>
<path opacity="0.1" d="M178.302 146.102L182.109 142.299L158.663 119.97L155.973 122.655L178.302 146.102Z" fill="black"/>
<path d="M201.161 119.97C211.935 119.97 220.668 112.039 220.668 102.256C220.668 92.4734 211.935 84.5428 201.161 84.5428C190.388 84.5428 181.654 92.4734 181.654 102.256C181.654 112.039 190.388 119.97 201.161 119.97Z" fill="#A3CAF6"/>
<path d="M184.113 97.0966C192.438 97.0966 199.186 90.9671 199.186 83.406C199.186 75.8449 192.438 69.7154 184.113 69.7154C175.789 69.7154 169.041 75.8449 169.041 83.406C169.041 90.9671 175.789 97.0966 184.113 97.0966Z" fill="#A3CAF6"/>
<path d="M177.205 113.252C185.529 113.252 192.278 107.122 192.278 99.5613C192.278 92.0002 185.529 85.8707 177.205 85.8707C168.881 85.8707 162.133 92.0002 162.133 99.5613C162.133 107.122 168.881 113.252 177.205 113.252Z" fill="#A3CAF6"/>
<path d="M164.656 100.502C172.981 100.502 179.729 94.3726 179.729 86.8115C179.729 79.2504 172.981 73.1209 164.656 73.1209C156.332 73.1209 149.584 79.2504 149.584 86.8115C149.584 94.3726 156.332 100.502 164.656 100.502Z" fill="#A3CAF6"/>
<path d="M158.291 119.348C166.615 119.348 173.364 113.218 173.364 105.657C173.364 98.0958 166.615 91.9663 158.291 91.9663C149.967 91.9663 143.219 98.0958 143.219 105.657C143.219 113.218 149.967 119.348 158.291 119.348Z" fill="#A3CAF6"/>
<path d="M164.102 129.638C172.426 129.638 179.174 123.508 179.174 115.947C179.174 108.386 172.426 102.256 164.102 102.256C155.777 102.256 149.029 108.386 149.029 115.947C149.029 123.508 155.777 129.638 164.102 129.638Z" fill="#A3CAF6"/>
<path d="M179.727 127.06C191.191 127.06 200.484 118.621 200.484 108.21C200.484 97.7991 191.191 89.3595 179.727 89.3595C168.264 89.3595 158.971 97.7991 158.971 108.21C158.971 118.621 168.264 127.06 179.727 127.06Z" fill="#A3CAF6"/>
<path d="M190.551 133.861C202.015 133.861 211.308 125.422 211.308 115.011C211.308 104.6 202.015 96.1607 190.551 96.1607C179.088 96.1607 169.795 104.6 169.795 115.011C169.795 125.422 179.088 133.861 190.551 133.861Z" fill="#A3CAF6"/>
<path d="M146.486 103.29C152.188 103.29 156.811 99.0935 156.811 93.9165C156.811 88.7396 152.188 84.5428 146.486 84.5428C140.784 84.5428 136.162 88.7396 136.162 93.9165C136.162 99.0935 140.784 103.29 146.486 103.29Z" fill="#A3CAF6"/>
<path d="M152.514 97.0966C158.216 97.0966 162.838 92.8999 162.838 87.7229C162.838 82.5459 158.216 78.3492 152.514 78.3492C146.812 78.3492 142.189 82.5459 142.189 87.7229C142.189 92.8999 146.812 97.0966 152.514 97.0966Z" fill="#A3CAF6"/>
<path d="M202.94 90.3934C208.641 90.3934 213.264 86.1966 213.264 81.0197C213.264 75.8427 208.641 71.646 202.94 71.646C197.238 71.646 192.615 75.8427 192.615 81.0197C192.615 86.1966 197.238 90.3934 202.94 90.3934Z" fill="#A3CAF6"/>
<g opacity="0.3">
<path opacity="0.3" d="M201.161 119.97C211.935 119.97 220.668 112.039 220.668 102.256C220.668 92.4734 211.935 84.5428 201.161 84.5428C190.388 84.5428 181.654 92.4734 181.654 102.256C181.654 112.039 190.388 119.97 201.161 119.97Z" fill="white"/>
<path opacity="0.3" d="M184.113 97.0966C192.438 97.0966 199.186 90.9671 199.186 83.406C199.186 75.8449 192.438 69.7154 184.113 69.7154C175.789 69.7154 169.041 75.8449 169.041 83.406C169.041 90.9671 175.789 97.0966 184.113 97.0966Z" fill="white"/>
<path opacity="0.3" d="M177.205 113.252C185.529 113.252 192.278 107.122 192.278 99.5613C192.278 92.0002 185.529 85.8707 177.205 85.8707C168.881 85.8707 162.133 92.0002 162.133 99.5613C162.133 107.122 168.881 113.252 177.205 113.252Z" fill="white"/>
<path opacity="0.3" d="M164.656 100.502C172.981 100.502 179.729 94.3726 179.729 86.8115C179.729 79.2504 172.981 73.1209 164.656 73.1209C156.332 73.1209 149.584 79.2504 149.584 86.8115C149.584 94.3726 156.332 100.502 164.656 100.502Z" fill="white"/>
<path opacity="0.3" d="M158.291 119.347C166.615 119.347 173.364 113.218 173.364 105.657C173.364 98.0958 166.615 91.9663 158.291 91.9663C149.967 91.9663 143.219 98.0958 143.219 105.657C143.219 113.218 149.967 119.347 158.291 119.347Z" fill="white"/>
<path opacity="0.3" d="M164.102 129.637C172.426 129.637 179.174 123.508 179.174 115.947C179.174 108.386 172.426 102.256 164.102 102.256C155.777 102.256 149.029 108.386 149.029 115.947C149.029 123.508 155.777 129.637 164.102 129.637Z" fill="white"/>
<path opacity="0.3" d="M179.727 127.06C191.191 127.06 200.484 118.621 200.484 108.21C200.484 97.7991 191.191 89.3595 179.727 89.3595C168.264 89.3595 158.971 97.7991 158.971 108.21C158.971 118.621 168.264 127.06 179.727 127.06Z" fill="white"/>
<path opacity="0.3" d="M190.551 133.861C202.015 133.861 211.308 125.422 211.308 115.011C211.308 104.6 202.015 96.1607 190.551 96.1607C179.088 96.1607 169.795 104.6 169.795 115.011C169.795 125.422 179.088 133.861 190.551 133.861Z" fill="white"/>
<path opacity="0.3" d="M146.486 103.29C152.188 103.29 156.811 99.0935 156.811 93.9165C156.811 88.7396 152.188 84.5428 146.486 84.5428C140.784 84.5428 136.162 88.7396 136.162 93.9165C136.162 99.0935 140.784 103.29 146.486 103.29Z" fill="white"/>
<path opacity="0.3" d="M152.514 97.0966C158.216 97.0966 162.838 92.8999 162.838 87.7229C162.838 82.5459 158.216 78.3492 152.514 78.3492C146.812 78.3492 142.189 82.5459 142.189 87.7229C142.189 92.8999 146.812 97.0966 152.514 97.0966Z" fill="white"/>
<path opacity="0.3" d="M202.94 90.3934C208.641 90.3934 213.264 86.1966 213.264 81.0197C213.264 75.8427 208.641 71.646 202.94 71.646C197.238 71.646 192.615 75.8427 192.615 81.0197C192.615 86.1966 197.238 90.3934 202.94 90.3934Z" fill="white"/>
</g>
<path d="M68.138 36.7923H59.6855V63.5806H68.138V36.7923Z" fill="#263238"/>
<path d="M82.8337 32.4264L43.9375 71.3226H121.725L82.8337 32.4264Z" fill="#263238"/>
<path d="M82.8329 35.729L47.2344 71.3226H118.426L82.8329 35.729Z" fill="#A3CAF6"/>
<path opacity="0.1" d="M67.2852 65.2221V67.2948H98.3806V65.2221H67.2852Z" fill="black"/>
<path opacity="0.1" d="M83.1224 46.7001V44.6274H77.4629V46.7001H80.2902V48.7679H85.9497V46.7001H83.1224Z" fill="black"/>
<path d="M114.2 69.1323H51.4648V174.958H114.2V69.1323Z" fill="#A3CAF6"/>
<path d="M115.419 173.625H50.2441V174.958H115.419V173.625Z" fill="#A3CAF6"/>
<path d="M50.621 92.2554V122.194H49.8223V123.777H51.4638V122.194V92.2554H50.621Z" fill="#A3CAF6"/>
<path d="M115.042 92.2554V122.194H115.841V123.777H114.199V122.194V92.2554H115.042Z" fill="#A3CAF6"/>
<path d="M49.7734 72.7828H115.889L115.11 83.2786H50.5525L49.7734 72.7828Z" fill="#A3CAF6"/>
<path opacity="0.1" d="M114.2 71.3226H51.4648V72.7828H114.2V71.3226Z" fill="black"/>
<path opacity="0.1" d="M114.2 83.1904H51.4648V84.6506H114.2V83.1904Z" fill="black"/>
<path opacity="0.4" d="M82.833 51.8745C79.2917 51.8745 75.8954 53.2813 73.3913 55.7854C70.8872 58.2894 69.4805 61.6857 69.4805 65.227H96.1806C96.1806 61.6865 94.7745 58.291 92.2714 55.7871C89.7684 53.2831 86.3734 51.8758 82.833 51.8745Z" fill="white"/>
<path opacity="0.3" d="M84.7249 55.1085C82.0422 55.1098 79.4698 56.1764 77.5732 58.0739C75.6767 59.9713 74.6113 62.5443 74.6113 65.227H94.8385C94.8385 62.5443 93.7731 59.9713 91.8766 58.0739C89.9801 56.1764 87.4077 55.1098 84.7249 55.1085Z" fill="#A3CAF6"/>
<path opacity="0.1" d="M53.5417 74.8359H52.7871V81.2255H53.5417V74.8359Z" fill="black"/>
<path opacity="0.1" d="M57.2507 74.8359H56.4961V81.2255H57.2507V74.8359Z" fill="black"/>
<path opacity="0.1" d="M60.9597 74.8359H60.2051V81.2255H60.9597V74.8359Z" fill="black"/>
<path opacity="0.1" d="M64.6687 74.8359H63.9141V81.2255H64.6687V74.8359Z" fill="black"/>
<path opacity="0.1" d="M68.3737 74.8359H67.6191V81.2255H68.3737V74.8359Z" fill="black"/>
<path opacity="0.1" d="M72.0827 74.8359H71.3281V81.2255H72.0827V74.8359Z" fill="black"/>
<path opacity="0.1" d="M75.7917 74.8359H75.0371V81.2255H75.7917V74.8359Z" fill="black"/>
<path opacity="0.1" d="M79.5026 74.8359H78.748V81.2255H79.5026V74.8359Z" fill="black"/>
<path opacity="0.1" d="M83.2058 74.8359H82.4512V81.2255H83.2058V74.8359Z" fill="black"/>
<path opacity="0.1" d="M86.9148 74.8359H86.1602V81.2255H86.9148V74.8359Z" fill="black"/>
<path opacity="0.1" d="M90.6237 74.8359H89.8691V81.2255H90.6237V74.8359Z" fill="black"/>
<path opacity="0.1" d="M94.3347 74.8359H93.5801V81.2255H94.3347V74.8359Z" fill="black"/>
<path opacity="0.1" d="M98.0437 74.8359H97.2891V81.2255H98.0437V74.8359Z" fill="black"/>
<path opacity="0.1" d="M101.747 74.8359H100.992V81.2255H101.747V74.8359Z" fill="black"/>
<path opacity="0.1" d="M105.458 74.8359H104.703V81.2255H105.458V74.8359Z" fill="black"/>
<path opacity="0.1" d="M109.167 74.8359H108.412V81.2255H109.167V74.8359Z" fill="black"/>
<path opacity="0.1" d="M112.876 74.8359H112.121V81.2255H112.876V74.8359Z" fill="black"/>
<path opacity="0.1" d="M54.2721 125.845H53.5371V127.565H54.2721V125.845Z" fill="black"/>
<path opacity="0.1" d="M57.8873 125.845H57.1523V127.565H57.8873V125.845Z" fill="black"/>
<path opacity="0.1" d="M61.5045 125.845H60.7695V127.565H61.5045V125.845Z" fill="black"/>
<path opacity="0.1" d="M65.1198 125.845H64.3848V127.565H65.1198V125.845Z" fill="black"/>
<path opacity="0.1" d="M68.737 125.845H68.002V127.565H68.737V125.845Z" fill="black"/>
<path opacity="0.1" d="M72.3522 125.845H71.6172V127.565H72.3522V125.845Z" fill="black"/>
<path opacity="0.1" d="M75.9694 125.845H75.2344V127.565H75.9694V125.845Z" fill="black"/>
<path opacity="0.1" d="M79.5846 125.845H78.8496V127.565H79.5846V125.845Z" fill="black"/>
<path opacity="0.1" d="M83.1959 125.845H82.4609V127.565H83.1959V125.845Z" fill="black"/>
<path opacity="0.1" d="M86.8131 125.845H86.0781V127.565H86.8131V125.845Z" fill="black"/>
<path opacity="0.1" d="M90.4284 125.845H89.6934V127.565H90.4284V125.845Z" fill="black"/>
<path opacity="0.1" d="M94.0455 125.845H93.3105V127.565H94.0455V125.845Z" fill="black"/>
<path opacity="0.1" d="M97.6608 125.845H96.9258V127.565H97.6608V125.845Z" fill="black"/>
<path opacity="0.1" d="M101.278 125.845H100.543V127.565H101.278V125.845Z" fill="black"/>
<path opacity="0.1" d="M104.893 125.845H104.158V127.565H104.893V125.845Z" fill="black"/>
<path opacity="0.1" d="M108.505 125.845H107.77V127.565H108.505V125.845Z" fill="black"/>
<path opacity="0.1" d="M112.122 125.845H111.387V127.565H112.122V125.845Z" fill="black"/>
<path opacity="0.4" d="M72.1074 122.189V92.2505H57.6279V122.189H72.1074Z" fill="white"/>
<path opacity="0.1" d="M57.5195 122.194V123.777H72.1019V122.194H57.5195Z" fill="black"/>
<path opacity="0.4" d="M72.1074 108.136V106.309H57.6279V108.136H72.1074Z" fill="white"/>
<path opacity="0.4" d="M71.0099 93.3481H58.7207V121.097H71.0099V93.3481Z" fill="white"/>
<path opacity="0.3" d="M70.088 97.9737H60.582V121.097H70.088V97.9737Z" fill="#A3CAF6"/>
<path opacity="0.4" d="M101.512 122.194V92.2554H87.0322V122.194H101.512Z" fill="white"/>
<path opacity="0.1" d="M80.3691 122.194V123.777H108.177V122.194H80.3691Z" fill="black"/>
<path opacity="0.4" d="M101.512 108.141V106.313H87.0322V108.141H101.512Z" fill="white"/>
<path opacity="0.4" d="M100.414 93.3481H88.125V121.097H100.414V93.3481Z" fill="white"/>
<path opacity="0.3" d="M99.4943 97.9737H89.9883V121.097H99.4943V97.9737Z" fill="#A3CAF6"/>
<path opacity="0.4" d="M108.176 122.194V92.2554H103.452V122.194H108.176Z" fill="white"/>
<path opacity="0.4" d="M108.176 108.136V106.309H103.452V108.136H108.176Z" fill="white"/>
<path opacity="0.4" d="M107.078 93.3481H104.545V121.097H107.078V93.3481Z" fill="white"/>
<path opacity="0.4" d="M85.0879 122.194V92.2554H80.3643V122.194H85.0879Z" fill="white"/>
<path opacity="0.4" d="M85.0879 108.136V106.309H80.3643V108.136H85.0879Z" fill="white"/>
<path opacity="0.4" d="M83.9942 93.3481H81.4609V121.097H83.9942V93.3481Z" fill="white"/>
<path opacity="0.4" d="M101.512 162.502V132.563H87.0322V162.502H101.512Z" fill="white"/>
<path opacity="0.1" d="M80.3691 162.502V164.085H108.177V162.502H80.3691Z" fill="black"/>
<path opacity="0.4" d="M101.512 148.449V146.621H87.0322V148.449H101.512Z" fill="white"/>
<path opacity="0.4" d="M100.414 133.66H88.125V161.409H100.414V133.66Z" fill="white"/>
<path opacity="0.3" d="M99.4943 138.286H89.9883V161.409H99.4943V138.286Z" fill="#A3CAF6"/>
<path opacity="0.4" d="M108.172 162.507V132.568H103.448V162.507H108.172Z" fill="white"/>
<path opacity="0.4" d="M108.172 148.453V146.626H103.448V148.453H108.172Z" fill="white"/>
<path opacity="0.4" d="M107.078 133.66H104.545V161.409H107.078V133.66Z" fill="white"/>
<path opacity="0.4" d="M85.0879 162.507V132.568H80.3643V162.507H85.0879Z" fill="white"/>
<path opacity="0.4" d="M85.0879 148.449V146.621H80.3643V148.449H85.0879Z" fill="white"/>
<path opacity="0.4" d="M83.9942 133.66H81.4609V161.409H83.9942V133.66Z" fill="white"/>
<path opacity="0.1" d="M77.2772 172.292V169.626H55.5947V172.292H54.2129V174.958H78.659V172.292H77.2772Z" fill="black"/>
<path opacity="0.4" d="M66.4378 132.568C68.9694 132.568 71.3973 133.573 73.1873 135.363C74.9774 137.153 75.9831 139.581 75.9831 142.113V169.626H56.873V142.113C56.873 140.858 57.1206 139.615 57.6015 138.456C58.0824 137.296 58.7873 136.243 59.6757 135.356C60.5641 134.47 61.6187 133.767 62.779 133.289C63.9394 132.81 65.1827 132.565 66.4378 132.568V132.568Z" fill="white"/>
<path opacity="0.5" d="M74.0928 143.005H58.7754V169.626H74.0928V143.005Z" fill="#A3CAF6"/>
<path opacity="0.5" d="M66.4375 134.425C65.6713 134.424 64.9125 134.574 64.2045 134.867C63.4965 135.16 62.8531 135.589 62.3112 136.131C61.7692 136.672 61.3392 137.315 61.0459 138.023C60.7525 138.731 60.6016 139.49 60.6016 140.256H72.2685C72.2685 139.49 72.1176 138.732 71.8246 138.024C71.5316 137.317 71.1021 136.674 70.5606 136.133C70.0191 135.591 69.3763 135.162 68.6689 134.869C67.9614 134.576 67.2032 134.425 66.4375 134.425V134.425Z" fill="#A3CAF6"/>
<path d="M73.2354 156.313C73.2354 156.507 73.1779 156.696 73.0702 156.858C72.9625 157.019 72.8095 157.144 72.6304 157.218C72.4514 157.293 72.2543 157.312 72.0642 157.274C71.8741 157.236 71.6995 157.143 71.5624 157.006C71.4254 156.869 71.332 156.694 71.2942 156.504C71.2564 156.314 71.2758 156.117 71.35 155.938C71.4242 155.759 71.5498 155.606 71.7109 155.498C71.8721 155.391 72.0616 155.333 72.2554 155.333C72.5153 155.333 72.7646 155.436 72.9484 155.62C73.1321 155.804 73.2354 156.053 73.2354 156.313Z" fill="#A3CAF6"/>
<path opacity="0.1" d="M64.2871 88.7225V90.7952H69.9466V88.7225H64.2871Z" fill="black"/>
<path opacity="0.1" d="M90.8496 85.8462V87.9189H96.5091V85.8462H90.8496Z" fill="black"/>
<path opacity="0.1" d="M104.868 168.754V166.686H99.209V168.754H102.036V170.827H107.696V168.754H104.868Z" fill="black"/>
<path d="M188.302 48.322H126.518V174.958H188.302V48.322Z" fill="#A3CAF6"/>
<path d="M135.288 33.0144C135.229 33.0138 135.171 33.0247 135.117 33.0466C135.063 33.0684 135.014 33.1008 134.973 33.1418C134.931 33.1828 134.898 33.2317 134.876 33.2855C134.853 33.3393 134.842 33.3971 134.842 33.4554V46.2836H135.729V33.4554C135.729 33.3384 135.682 33.2263 135.6 33.1436C135.517 33.0609 135.405 33.0144 135.288 33.0144V33.0144Z" fill="#263238"/>
<path d="M179.242 42.1529C179.125 42.1529 179.013 42.1994 178.93 42.2821C178.847 42.3648 178.801 42.4769 178.801 42.5939V46.2836H179.688V42.5939C179.688 42.5356 179.676 42.4778 179.654 42.424C179.631 42.3702 179.598 42.3213 179.557 42.2803C179.515 42.2393 179.466 42.2069 179.412 42.1851C179.358 42.1632 179.3 42.1523 179.242 42.1529V42.1529Z" fill="#263238"/>
<path d="M142.662 36.3611H141.775V46.2836H142.662V36.3611Z" fill="#263238"/>
<path d="M149.112 33.9013C150.41 37.4685 149.494 41.0798 147.064 41.9618C144.633 42.8438 141.61 40.6731 140.312 37.101C139.013 33.5289 139.934 29.9274 142.365 29.0454C144.795 28.1634 147.818 30.3341 149.112 33.9013Z" fill="#263238"/>
<path d="M188.301 113.629L210.645 128.618V174.958H188.301V113.629Z" fill="#A3CAF6"/>
<path opacity="0.1" d="M188.301 113.629L210.645 128.618V174.958H188.301V113.629Z" fill="black"/>
<path opacity="0.1" d="M205.339 161.718V159.469H199.199V161.718H202.272V163.967H208.406V161.718H205.339Z" fill="black"/>
<path d="M212.742 130.902L188.301 114.408V111.899L212.742 128.398V130.902Z" fill="#263238"/>
<path opacity="0.4" d="M206.779 152.638V132.881H191.624V152.638H206.779Z" fill="white"/>
<path opacity="0.4" d="M206.779 143.362V142.157H191.624V143.362H206.779Z" fill="white"/>
<path opacity="0.4" d="M206.123 133.607H192.275V151.918H206.123V133.607Z" fill="white"/>
<path opacity="0.3" d="M205.568 136.659H193.387V151.918H205.568V136.659Z" fill="#A3CAF6"/>
<path d="M188.301 48.322H126.517L125.674 46.9794H189.144L188.301 48.322Z" fill="#A3CAF6"/>
<path opacity="0.2" d="M188.301 48.322H126.517L125.674 46.9794H189.144L188.301 48.322Z" fill="black"/>
<path d="M189.507 46.9794H125.312L124.439 45.5829H190.379L189.507 46.9794Z" fill="#263238"/>
<path opacity="0.2" d="M133.749 51.6442H128.486V64.3156H133.749V51.6442Z" fill="black"/>
<path opacity="0.4" d="M132.97 53.5209H129.266V62.4487H132.97V53.5209Z" fill="#A3CAF6"/>
<path opacity="0.2" d="M186.331 51.6442H181.068V64.3156H186.331V51.6442Z" fill="black"/>
<path opacity="0.4" d="M185.548 53.5209H181.844V62.4487H185.548V53.5209Z" fill="#A3CAF6"/>
<path opacity="0.2" d="M178.801 51.6442H170.461V64.3156H178.801V51.6442Z" fill="black"/>
<path opacity="0.4" d="M177.57 53.5209H171.695V62.4487H177.57V53.5209Z" fill="#A3CAF6"/>
<path opacity="0.2" d="M144.357 51.6442H136.018V64.3156H144.357V51.6442Z" fill="black"/>
<path opacity="0.4" d="M143.129 53.5209H137.254V62.4487H143.129V53.5209Z" fill="#A3CAF6"/>
<path opacity="0.2" d="M167.957 51.6442H146.867V64.3156H167.957V51.6442Z" fill="black"/>
<path opacity="0.4" d="M164.834 53.5209H149.982V62.4487H164.834V53.5209Z" fill="#A3CAF6"/>
<path opacity="0.4" d="M154.721 110.954V75.1201H139.011V110.954H154.721Z" fill="white"/>
<path opacity="0.1" d="M131.785 110.949V111.899H161.95V110.949H131.785Z" fill="black"/>
<path opacity="0.4" d="M154.721 94.1321V91.9467H139.011V94.1321H154.721Z" fill="white"/>
<path opacity="0.4" d="M153.53 76.4284H140.197V109.641H153.53V76.4284Z" fill="white"/>
<path opacity="0.3" d="M152.526 81.9654H142.217V109.641H152.526V81.9654Z" fill="#A3CAF6"/>
<path opacity="0.4" d="M161.943 110.949V75.1152H156.823V110.949H161.943Z" fill="white"/>
<path opacity="0.4" d="M161.943 94.1272V91.9418H156.823V94.1272H161.943Z" fill="white"/>
<path opacity="0.4" d="M160.758 76.4284H158.014V109.641H160.758V76.4284Z" fill="white"/>
<path opacity="0.4" d="M136.904 110.954V75.1201H131.784V110.954H136.904Z" fill="white"/>
<path opacity="0.4" d="M136.904 94.1272V91.9418H131.784V94.1272H136.904Z" fill="white"/>
<path opacity="0.4" d="M135.715 76.4284H132.971V109.641H135.715V76.4284Z" fill="white"/>
<path opacity="0.4" d="M154.721 155.568V119.735H139.011V155.568H154.721Z" fill="white"/>
<path opacity="0.1" d="M131.779 155.568V156.519H161.944V155.568H131.779Z" fill="black"/>
<path opacity="0.4" d="M154.721 138.747V136.561H139.011V138.747H154.721Z" fill="white"/>
<path opacity="0.4" d="M153.53 121.048H140.197V154.26H153.53V121.048Z" fill="white"/>
<path opacity="0.3" d="M152.526 126.585H142.217V154.26H152.526V126.585Z" fill="#A3CAF6"/>
<path opacity="0.4" d="M161.949 155.568V119.735H156.829V155.568H161.949Z" fill="white"/>
<path opacity="0.4" d="M161.949 138.747V136.561H156.829V138.747H161.949Z" fill="white"/>
<path opacity="0.4" d="M160.758 121.048H158.014V154.26H160.758V121.048Z" fill="white"/>
<path opacity="0.4" d="M136.904 155.573V119.739H131.784V155.573H136.904Z" fill="white"/>
<path opacity="0.4" d="M136.904 138.747V136.561H131.784V138.747H136.904Z" fill="white"/>
<path opacity="0.4" d="M135.715 121.048H132.971V154.26H135.715V121.048Z" fill="white"/>
<path opacity="0.4" d="M183.66 110.954V75.1201H167.951V110.954H183.66Z" fill="white"/>
<path opacity="0.1" d="M167.957 110.954V111.904H183.666V110.954H167.957Z" fill="black"/>
<path opacity="0.4" d="M183.66 94.1272V91.9418H167.951V94.1272H183.66Z" fill="white"/>
<path opacity="0.4" d="M182.475 76.4284H169.143V109.641H182.475V76.4284Z" fill="white"/>
<path opacity="0.3" d="M181.47 81.9654H171.16V109.641H181.47V81.9654Z" fill="#A3CAF6"/>
<path opacity="0.1" d="M140.981 69.7203V67.4712H134.842V69.7203H137.914V71.9645H144.049V69.7203H140.981Z" fill="black"/>
<path opacity="0.1" d="M170.677 117.49V115.241H164.537V117.49H167.609V119.739H173.744V117.49H170.677Z" fill="black"/>
<path opacity="0.1" d="M157.691 66.3442V68.5933H163.831V66.3442H157.691Z" fill="black"/>
<path opacity="0.1" d="M133.838 161.277V163.526H139.978V161.277H133.838Z" fill="black"/>
<path opacity="0.1" d="M148.582 167.715V169.964H154.722V167.715H148.582Z" fill="black"/>
<path opacity="0.1" d="M190.982 125.899V128.148H197.122V125.899H190.982Z" fill="black"/>
<path opacity="0.1" d="M185.601 170.66V166.363H184.846V162.066H166.064V166.363H165.31V170.66H164.418V174.958H186.492V170.66H185.601Z" fill="black"/>
<path opacity="0.1" d="M184.846 162.066V124.718H166.059V162.066H184.846Z" fill="#263238"/>
<path opacity="0.3" d="M183.666 125.904H167.256V162.061H183.666V125.904Z" fill="#263238"/>
<g opacity="0.6">
<path opacity="0.6" d="M175.008 129.76H170V134.768H175.008V129.76Z" fill="#A3CAF6"/>
<path opacity="0.6" d="M180.918 129.76H175.91V134.768H180.918V129.76Z" fill="#A3CAF6"/>
<path opacity="0.6" d="M175.008 135.694H170V140.702H175.008V135.694Z" fill="#A3CAF6"/>
<path opacity="0.6" d="M180.918 135.694H175.91V140.702H180.918V135.694Z" fill="#A3CAF6"/>
</g>
<path d="M181.279 146.606C181.858 146.606 182.328 146.137 182.328 145.558C182.328 144.978 181.858 144.509 181.279 144.509C180.7 144.509 180.23 144.978 180.23 145.558C180.23 146.137 180.7 146.606 181.279 146.606Z" fill="#A3CAF6"/>
</g>
<defs>
<clipPath id="clip0_939_2270">
<rect width="245" height="175" fill="white"/>
</clipPath>
</defs>
</svg>
