<svg width="68" height="68" viewBox="0 0 68 68" fill="none" xmlns="http://www.w3.org/2000/svg">
<rect width="68" height="68" rx="34" fill="#DCF0FF"/>
<path d="M30.5393 34.6291H32.6025V33.4724C32.451 33.3935 32.3052 33.3037 32.1661 33.2042C31.9826 33.0442 31.8177 32.8643 31.6742 32.6674C31.2724 32.1292 31.0555 31.475 31.0567 30.8029V29.467C31.4379 29.5413 31.8251 29.5782 32.2133 29.5777C33.5845 29.5777 34.7708 29.1316 35.3419 28.4836C35.5696 28.731 35.8426 28.9326 36.146 29.0779C36.5085 29.2563 36.893 29.3855 37.2898 29.4624V30.803C37.2892 31.7249 36.8821 32.5997 36.1771 33.1937C36.1522 33.2154 36.1258 33.2348 36.0979 33.2524L35.7616 33.4719V34.6294L37.8086 34.6291C37.8391 34.6291 37.8688 34.6274 37.8999 34.625H39.1862V29.013C39.1862 27.6836 38.658 26.4084 37.7179 25.4683C36.7779 24.528 35.5027 24 34.1732 24C32.8437 24 31.5685 24.528 30.6285 25.4683C29.6884 26.4084 29.1602 27.6835 29.1602 29.013V34.625H30.4465C30.4776 34.6274 30.509 34.6291 30.5392 34.6291L30.5393 34.6291Z" fill="#4116F7"/>
<path d="M18.3046 31.3855C18.4739 31.8252 18.7216 32.2308 19.0356 32.5824C19.5043 33.1606 20.2017 33.5063 20.9456 33.5297C21.6896 33.5532 22.4069 33.2521 22.9114 32.7048C22.9454 32.6675 22.9795 32.6299 23.01 32.5927C23.3267 32.2378 23.5764 31.829 23.7478 31.3856C24.0093 31.3064 24.2385 31.1452 24.402 30.9263C24.5652 30.7074 24.6544 30.4418 24.6559 30.1685V29.4034C24.6561 29.0967 24.4745 28.8188 24.1933 28.6961V27.4006C24.2007 26.6097 23.8291 25.8628 23.1937 25.3915C22.5689 24.9257 21.807 24.6804 21.0278 24.6944C21.0278 24.6944 20.987 24.6909 20.9157 24.6909C20.1743 24.7071 19.4559 24.9515 18.8586 25.3915C18.2241 25.8631 17.854 26.6103 17.8625 27.4006V28.6961C17.5793 28.8173 17.3962 29.0955 17.3965 29.4034V30.1685C17.3974 30.4417 17.486 30.7076 17.6495 30.9269C17.8129 31.1461 18.0427 31.307 18.3045 31.3856L18.3046 31.3855ZM20.9022 29.3966C20.2903 29.155 19.7224 28.8322 19.7224 28.1217C19.723 27.8376 19.8242 27.5632 20.0076 27.3469C20.1914 27.1303 20.4455 26.9856 20.7252 26.9384V26.2449H21.4017V26.8976H21.402C21.6849 26.9155 21.9596 26.9994 22.2044 27.1423L22.2995 27.1966L22.0412 27.8834L21.9053 27.8085L21.905 27.8088C21.6723 27.6688 21.4049 27.5958 21.1332 27.5978C20.7082 27.5978 20.5586 27.8256 20.5586 28.0398C20.5586 28.2948 20.7253 28.4378 21.3031 28.679C22.0817 28.9951 22.4149 29.3966 22.4149 30.0188H22.4152C22.4111 30.3155 22.3042 30.6013 22.1123 30.8276C21.9206 31.0542 21.6565 31.2068 21.3645 31.2599V31.9772H20.6813V31.2972C20.3379 31.277 20.0054 31.1693 19.7157 30.9844L19.6341 30.9265L19.8856 30.2295L20.025 30.3214C20.2885 30.4942 20.597 30.5864 20.9122 30.5867C21.3067 30.5867 21.572 30.376 21.572 30.0663C21.572 29.7843 21.3783 29.5871 20.9023 29.3966L20.9022 29.3966Z" fill="#4116F7"/>
<path d="M27.2758 36.8115L27.2104 36.4047H27.2107C27.1452 35.9945 26.8864 35.6405 26.5154 35.4539L23.6918 34.0205L21.8904 38.7991L21.4302 35.9018L21.7348 35.2497V35.2494C21.7404 35.2371 21.7392 35.2224 21.7319 35.2109C21.7245 35.1995 21.7119 35.1925 21.6981 35.1922H20.3548C20.3411 35.1925 20.3284 35.1995 20.3211 35.2109C20.3135 35.2224 20.3126 35.2371 20.3179 35.2494L20.6225 35.9015L20.1623 38.7988L18.3609 34.0205L15.5376 35.4539C15.1666 35.6405 14.9078 35.9945 14.8423 36.4048L14 41.6432H25.9678L26.528 38.1631C26.6137 37.6398 26.8782 37.1623 27.2761 36.8116L27.2758 36.8115Z" fill="#4116F7"/>
<path d="M35.7043 36.635C35.3548 37.0506 34.8394 37.2907 34.2962 37.2907C33.753 37.2907 33.2376 37.0506 32.8878 36.635C32.7754 36.4745 32.5541 36.4354 32.3935 36.5478C32.233 36.6602 32.194 36.8818 32.3064 37.0424C32.7892 37.6478 33.5217 38.0003 34.2959 38.0003C35.0704 38.0003 35.8026 37.6478 36.2854 37.0424C36.3981 36.8818 36.359 36.6605 36.1985 36.5478C36.0383 36.4354 35.817 36.4745 35.7043 36.635H35.7043Z" fill="#4116F7"/>
<path d="M44.9859 31.3854C45.1573 31.8289 45.407 32.2377 45.7237 32.5925C45.7542 32.6298 45.7883 32.6673 45.8223 32.7046C46.3268 33.252 47.0441 33.5531 47.7881 33.5296C48.5323 33.5061 49.2294 33.1604 49.6984 32.5822C50.0121 32.2306 50.2598 31.825 50.4292 31.3854C50.6909 31.3067 50.9207 31.1459 51.0842 30.9267C51.2477 30.7074 51.3363 30.4415 51.3372 30.1683V29.4031C51.3375 29.0953 51.1544 28.817 50.8712 28.6958V27.4004C50.88 26.61 50.5096 25.8628 49.8751 25.3912C49.2781 24.951 48.5596 24.7062 47.818 24.6907C47.7467 24.6907 47.7059 24.6942 47.7059 24.6942C46.9267 24.6801 46.1648 24.9255 45.54 25.3912C44.9058 25.8637 44.5348 26.6098 44.5404 27.4004V28.6958C44.2592 28.8185 44.0775 29.0964 44.0781 29.4031V30.1683C44.0796 30.4415 44.1685 30.7071 44.3317 30.9261C44.4952 31.145 44.7244 31.3061 44.9859 31.3854L44.9859 31.3854ZM47.587 29.3965C46.9716 29.1549 46.4037 28.8321 46.4037 28.1215C46.4046 27.8372 46.5061 27.5622 46.6904 27.3456C46.8745 27.129 47.1295 26.9846 47.4101 26.9382V26.2447H48.0865V26.8974C48.3686 26.9153 48.6421 26.9993 48.8857 27.1422L48.9843 27.1965L48.7225 27.8832L48.5899 27.8084V27.8087C48.3554 27.6693 48.0874 27.5965 47.8148 27.5977C47.3899 27.5977 47.2402 27.8254 47.2402 28.0397C47.2402 28.2947 47.4069 28.4376 47.9848 28.6789C48.7669 28.995 49.1 29.3964 49.1 30.0186C49.0956 30.3156 48.9882 30.6021 48.796 30.8286C48.6037 31.0549 48.3384 31.2075 48.0458 31.2598V31.977H47.3623L47.3626 31.297C47.0201 31.2774 46.6887 31.1697 46.4002 30.9842L46.3186 30.9264L46.5669 30.2293L46.7098 30.3212H46.7096C46.9722 30.4938 47.2795 30.5859 47.5939 30.5865C47.9915 30.5865 48.2568 30.3758 48.2568 30.0662C48.2568 29.7841 48.0628 29.5869 47.5868 29.3964L47.587 29.3965Z" fill="#4116F7"/>
<path d="M53.5038 36.4052C53.4384 35.9949 53.1798 35.641 52.8086 35.4544L49.985 34.021L48.1835 38.7992L47.7236 35.902L48.0283 35.2499C48.0336 35.2376 48.0327 35.2229 48.025 35.2114C48.0177 35.2 48.0051 35.1929 47.9913 35.1926H46.648C46.6342 35.1929 46.6216 35.2 46.6143 35.2114C46.6069 35.2229 46.6058 35.2376 46.6113 35.2499L46.916 35.902L46.4561 38.7992L44.6546 34.021L41.831 35.4544H41.8307C41.4598 35.641 41.2009 35.995 41.1355 36.4052L41.0703 36.812C41.4683 37.1627 41.7327 37.6402 41.8184 38.1635L42.3787 41.6436H54.3464L53.5038 36.4052Z" fill="#4116F7"/>
<path d="M41.0108 38.2933C40.9368 37.8316 40.6466 37.4337 40.2298 37.2217L37.7232 35.9521L36.9604 36.351L37.8702 37.3938C36.7579 38.2448 35.5071 38.8981 34.1732 39.3255C32.8393 38.8982 31.5885 38.2448 30.4761 37.3938L31.3859 36.351L30.6232 35.9521L28.1166 37.2217C27.6998 37.4336 27.4095 37.8319 27.3356 38.2933L26.7404 41.992L26.3867 44.1899H41.9593L41.6057 41.992L41.0108 38.2933Z" fill="#4116F7"/>
</svg>
