<svg width="90" height="90" viewBox="0 0 90 90" fill="none" xmlns="http://www.w3.org/2000/svg">
<rect x="2" y="2" width="86" height="86" rx="18" stroke="#4116F7" stroke-width="4"/>
<path d="M55.073 21H34.951C26.2106 21 21 26.0995 21 34.6535V54.323C21 62.9005 26.2106 68 34.951 68H55.049C63.7893 68 68.9999 62.9005 68.9999 54.3465V34.6535C69.0239 26.0995 63.8133 21 55.073 21ZM39.9935 54.3465C39.9935 55.8505 38.7448 57.0725 37.1841 57.0725C35.6473 57.0725 34.3987 55.8505 34.3987 54.3465V46.6855C34.3987 45.1815 35.6473 43.9595 37.1841 43.9595C38.7448 43.9595 39.9935 45.1815 39.9935 46.6855V54.3465ZM55.6253 54.3465C55.6253 55.8505 54.3766 57.0725 52.8399 57.0725C51.2791 57.0725 50.0305 55.8505 50.0305 54.3465V34.6535C50.0305 33.1495 51.2791 31.9275 52.8399 31.9275C54.3766 31.9275 55.6253 33.1495 55.6253 34.6535V54.3465Z" fill="#4116F7"/>
</svg>
