<svg width="100" height="116" viewBox="0 0 100 116" fill="none" xmlns="http://www.w3.org/2000/svg">
<path d="M29.079 106.513L29.0789 106.513C12.9939 91.0467 -4.63404 66.5997 1.89595 37.8008C7.74745 12.0548 30.2572 0.5 49.9718 0.5H49.9722H49.9725H49.9728H49.9731H49.9735H49.9738H49.9741H49.9744H49.9747H49.9751H49.9754H49.9757H49.976H49.9763H49.9766H49.9769H49.9773H49.9776H49.9779H49.9782H49.9785H49.9788H49.9791H49.9794H49.9797H49.98H49.9803H49.9806H49.9809H49.9812H49.9815H49.9817H49.982H49.9823H49.9826H49.9829H49.9832H49.9835H49.9837H49.984H49.9843H49.9846H49.9849H49.9851H49.9854H49.9857H49.986H49.9862H49.9865H49.9868H49.987H49.9873H49.9876H49.9878H49.9881H49.9884H49.9886H49.9889H49.9891H49.9894H49.9897H49.9899H49.9902H49.9904H49.9907H49.9909H49.9912H49.9914H49.9917H49.9919H49.9922H49.9924H49.9927H49.9929H49.9931H49.9934H49.9936H49.9939H49.9941H49.9943H49.9946H49.9948H49.995H49.9953H49.9955H49.9957H49.9959H49.9962H49.9964H49.9966H49.9968H49.9971H49.9973H49.9975H49.9977H49.9979H49.9982H49.9984H49.9986H49.9988H49.999H49.9992H49.9994H49.9997H49.9999H50.0001H50.0003H50.0005H50.0007H50.0009H50.0011H50.0013H50.0015H50.0017H50.0019H50.0021H50.0023H50.0025H50.0027H50.0029H50.0031H50.0033H50.0035H50.0036H50.0038H50.004H50.0042H50.0044H50.0046H50.0048H50.0049H50.0051H50.0053H50.0055H50.0057H50.0059H50.006H50.0062H50.0064H50.0066H50.0067H50.0069H50.0071H50.0072H50.0074H50.0076H50.0078H50.0079H50.0081H50.0083H50.0084H50.0086H50.0087H50.0089H50.0091H50.0092H50.0094H50.0095H50.0097H50.0099H50.01H50.0102H50.0103H50.0105H50.0106H50.0108H50.0109H50.0111H50.0112H50.0114H50.0115H50.0117H50.0118H50.012H50.0121H50.0122H50.0124H50.0125H50.0127H50.0128H50.0129H50.0131H50.0132H50.0134H50.0135H50.0136H50.0138H50.0139H50.014H50.0141H50.0143H50.0144H50.0145H50.0147H50.0148H50.0149H50.015H50.0152H50.0153H50.0154H50.0155H50.0157H50.0158H50.0159H50.016H50.0161H50.0163H50.0164H50.0165H50.0166H50.0167H50.0168H50.0169H50.0171H50.0172H50.0173H50.0174H50.0175H50.0176H50.0177H50.0178H50.0179H50.018H50.0181H50.0182H50.0183H50.0184H50.0186H50.0187H50.0188H50.0189H50.019H50.019H50.0191H50.0192H50.0193H50.0194H50.0195H50.0196H50.0197H50.0198H50.0199H50.02H50.0201H50.0202H50.0203H50.0204H50.0204H50.0205H50.0206H50.0207H50.0208H50.0209H50.021H50.021H50.0211H50.0212H50.0213H50.0214H50.0214H50.0215H50.0216H50.0217H50.0218H50.0218H50.0219H50.022H50.0221H50.0221H50.0222H50.0223H50.0224H50.0224H50.0225H50.0226H50.0226H50.0227H50.0228H50.0229H50.0229H50.023H50.0231H50.0231H50.0232H50.0233H50.0233H50.0234H50.0234H50.0235H50.0236H50.0236H50.0237H50.0238H50.0238H50.0239H50.0239H50.024H50.0241H50.0241H50.0242H50.0242H50.0243H50.0243H50.0244H50.0244H50.0245H50.0245H50.0246H50.0247H50.0247H50.0248H50.0248H50.0249H50.0249H50.025H50.025H50.0251H50.0251H50.0251H50.0252H50.0252H50.0253H50.0253H50.0254H50.0254H50.0255H50.0255H50.0256H50.0256H50.0256H50.0257H50.0257H50.0258H50.0258H50.0258H50.0259H50.0259H50.026H50.026H50.026H50.0261H50.0261H50.0261H50.0262H50.0262H50.0262H50.0263H50.0263H50.0263H50.0264H50.0264H50.0264H50.0265H50.0265H50.0265H50.0266H50.0266H50.0267H50.0267H50.0267H50.0268H50.0269H50.0269H50.027H50.027H50.0271H50.0271H50.0272H50.0272H50.0272H50.0273H50.0273H50.0274H50.0274H50.0274H50.0275H50.0275H50.0275H50.0276H50.0276H50.0276H50.0277H50.0277H50.0278H50.0278H50.0278H50.0279H50.0279H50.0279H50.028H50.028H50.028H50.0281H50.0281H50.0281H50.0282C69.7978 0.5 92.2523 12.11 98.104 37.8571C104.634 66.6558 87.0064 91.0464 70.9211 106.513L70.9193 106.515C65.1006 112.167 57.5651 114.993 50.0282 114.993C42.4916 114.993 34.955 112.167 29.079 106.513ZM31.7816 48.2255C31.7816 58.3045 39.9492 66.472 50.0282 66.472C60.1071 66.472 68.2747 58.3045 68.2747 48.2255C68.2747 38.1465 60.1071 29.979 50.0282 29.979C39.9492 29.979 31.7816 38.1465 31.7816 48.2255Z" fill="black" fill-opacity="0.61" stroke="#F8F8F8"/>
</svg>
