<svg width="68" height="68" viewBox="0 0 68 68" fill="none" xmlns="http://www.w3.org/2000/svg">
<rect width="68" height="68" rx="34" fill="#DCF0FF"/>
<path d="M28.8965 28.0344H29.7585V30.6206H28.8965V28.0344Z" fill="#4116F7"/>
<path d="M27.1719 31.4827H41.827V32.3447H27.1719V31.4827Z" fill="#4116F7"/>
<path d="M32.3457 27.1724H33.2078V30.6206H32.3457V27.1724Z" fill="#4116F7"/>
<path d="M35.793 25.4482H36.655V30.6206H35.793V25.4482Z" fill="#4116F7"/>
<path d="M39.2422 28.8965H40.1043V30.6206H39.2422V28.8965Z" fill="#4116F7"/>
<path d="M22 36.6553H46.9998V37.5173H22V36.6553Z" fill="#4116F7"/>
<path d="M22 22H46.9998V22.8621H22V22Z" fill="#4116F7"/>
<path d="M41.8281 34.9309H43.5523V35.793H41.8281V34.9309Z" fill="#4116F7"/>
<path d="M24.5859 34.9309H28.0342V35.793H24.5859V34.9309Z" fill="#4116F7"/>
<path d="M46.137 35.793V23.7241H22.8613V35.793H23.7234V34.4999C23.7234 34.2619 23.9164 34.0689 24.1544 34.0689H28.4647C28.579 34.0689 28.6887 34.1143 28.7695 34.1951C28.8504 34.2759 28.8958 34.3856 28.8958 34.4999V35.793H40.9647V34.4999C40.9647 34.2619 41.1577 34.0689 41.3957 34.0689H43.9819C44.0962 34.0689 44.2059 34.1143 44.2867 34.1951C44.3675 34.2759 44.4129 34.3856 44.4129 34.4999V35.793H46.137ZM42.6888 32.7758C42.6888 32.8901 42.6434 32.9998 42.5626 33.0806C42.4817 33.1614 42.3721 33.2068 42.2578 33.2068H26.7406C26.5026 33.2068 26.3096 33.0138 26.3096 32.7758V31.0517C26.3096 30.8136 26.5026 30.6206 26.7406 30.6206H28.0337V27.6034C28.0337 27.3654 28.2267 27.1724 28.4647 27.1724H30.1889C30.3032 27.1724 30.4129 27.2178 30.4937 27.2986C30.5745 27.3794 30.6199 27.4891 30.6199 27.6034V30.6206H31.482V26.7413C31.482 26.5033 31.675 26.3103 31.913 26.3103H33.6371C33.7514 26.3103 33.8611 26.3557 33.9419 26.4365C34.0227 26.5174 34.0682 26.627 34.0682 26.7413V30.6206H34.9302V25.0172C34.9302 24.7792 35.1232 24.5862 35.3612 24.5862H37.0854C37.1997 24.5862 37.3094 24.6316 37.3902 24.7124C37.471 24.7932 37.5164 24.9029 37.5164 25.0172V30.6206H38.3785V28.4655C38.3785 28.2274 38.5715 28.0344 38.8095 28.0344H40.5336C40.6479 28.0344 40.7576 28.0799 40.8384 28.1607C40.9192 28.2415 40.9647 28.3512 40.9647 28.4655V30.6206H42.2578C42.3721 30.6206 42.4817 30.666 42.5626 30.7469C42.6434 30.8277 42.6888 30.9374 42.6888 31.0517V32.7758Z" fill="#4116F7"/>
<path d="M34.5003 43.5518C33.8146 43.5525 33.1571 43.8252 32.6722 44.3099C32.1875 44.7948 31.9149 45.4523 31.9141 46.1379V47H37.0864V46.1379C37.0857 45.4523 36.813 44.7948 36.3283 44.3099C35.8434 43.8252 35.1859 43.5525 34.5003 43.5518Z" fill="#4116F7"/>
<path d="M29.7581 41.3966C29.7581 42.1107 29.1791 42.6897 28.465 42.6897C27.7509 42.6897 27.1719 42.1107 27.1719 41.3966C27.1719 40.6825 27.7509 40.1035 28.465 40.1035C29.1791 40.1035 29.7581 40.6825 29.7581 41.3966Z" fill="#4116F7"/>
<path d="M28.4651 43.5518C27.7795 43.5525 27.122 43.8252 26.6371 44.3099C26.1524 44.7948 25.8797 45.4523 25.8789 46.1379V47H31.0513V46.1379C31.0505 45.4523 30.7779 44.7948 30.2931 44.3099C29.8082 43.8252 29.1507 43.5525 28.4651 43.5518Z" fill="#4116F7"/>
<path d="M41.8284 41.3966C41.8284 42.1107 41.2494 42.6897 40.5353 42.6897C39.8212 42.6897 39.2422 42.1107 39.2422 41.3966C39.2422 40.6825 39.8212 40.1035 40.5353 40.1035C41.2494 40.1035 41.8284 40.6825 41.8284 41.3966Z" fill="#4116F7"/>
<path d="M40.5354 43.5518C39.8498 43.5525 39.1923 43.8252 38.7074 44.3099C38.2227 44.7948 37.95 45.4523 37.9492 46.1379V47H43.1216V46.1379C43.1208 45.4523 42.8482 44.7948 42.3634 44.3099C41.8785 43.8252 41.221 43.5525 40.5354 43.5518Z" fill="#4116F7"/>
<path d="M35.7932 41.3966C35.7932 42.1107 35.2142 42.6897 34.5001 42.6897C33.786 42.6897 33.207 42.1107 33.207 41.3966C33.207 40.6825 33.786 40.1035 34.5001 40.1035C35.2142 40.1035 35.7932 40.6825 35.7932 41.3966Z" fill="#4116F7"/>
</svg>
