<svg width="22" height="22" viewBox="0 0 22 22" fill="none" xmlns="http://www.w3.org/2000/svg">
<path d="M15.0001 21.75H6.95012C5.17398 21.7474 3.47135 21.0406 2.21543 19.7847C0.959505 18.5288 0.252764 16.8261 0.250119 15.05V7C0.24485 6.11631 0.414189 5.24028 0.748413 4.42222C1.08264 3.60416 1.57516 2.86017 2.19771 2.23298C2.82025 1.60578 3.56056 1.10774 4.37612 0.767445C5.19167 0.427149 6.06642 0.251301 6.95012 0.25H15.0501C16.8263 0.265851 18.5236 0.985281 19.7702 2.25059C21.0168 3.51589 21.7108 5.22383 21.7001 7V15.1C21.6843 16.8675 20.9718 18.5573 19.7173 19.8024C18.4628 21.0476 16.7676 21.7474 15.0001 21.75ZM6.95012 1.75C6.25919 1.74467 5.57411 1.87683 4.93475 2.13879C4.29538 2.40074 3.71451 2.78725 3.22594 3.27582C2.73737 3.76439 2.35086 4.34526 2.0889 4.98463C1.82695 5.62399 1.69479 6.30908 1.70012 7V15.1C1.71595 16.4783 2.27734 17.7942 3.26134 18.7594C4.24534 19.7247 5.57176 20.2607 6.95012 20.25H15.0501C16.4284 20.2474 17.7495 19.6987 18.7242 18.724C19.6988 17.7494 20.2475 16.4283 20.2501 15.05V7C20.2475 5.62169 19.6988 4.30058 18.7242 3.32596C17.7495 2.35135 16.4284 1.80264 15.0501 1.8L6.95012 1.75ZM16.4501 6.53C16.4515 6.43114 16.433 6.33301 16.3958 6.2414C16.3586 6.1498 16.3034 6.06659 16.2334 5.99667C16.1635 5.92676 16.0803 5.87156 15.9887 5.83435C15.8971 5.79714 15.799 5.77866 15.7001 5.78H12.2901C12.0912 5.78 11.9004 5.85902 11.7598 5.99967C11.6191 6.14032 11.5401 6.33109 11.5401 6.53C11.5401 6.72891 11.6191 6.91968 11.7598 7.06033C11.9004 7.20098 12.0912 7.28 12.2901 7.28H15.6501C15.849 7.28 16.0398 7.20098 16.1804 7.06033C16.3211 6.91968 16.4001 6.72891 16.4001 6.53H16.4501ZM16.4501 11C16.4501 10.8011 16.3711 10.6103 16.2304 10.4697C16.0898 10.329 15.899 10.25 15.7001 10.25H7.19012C6.99121 10.25 6.80044 10.329 6.65979 10.4697C6.51914 10.6103 6.44012 10.8011 6.44012 11C6.44012 11.1989 6.51914 11.3897 6.65979 11.5303C6.80044 11.671 6.99121 11.75 7.19012 11.75H15.6501C15.849 11.75 16.0398 11.671 16.1804 11.5303C16.3211 11.3897 16.4001 11.1989 16.4001 11H16.4501ZM16.1801 15.47C16.1775 15.2719 16.0977 15.0826 15.9576 14.9425C15.8175 14.8024 15.6282 14.7226 15.4301 14.72H9.65012C9.45121 14.72 9.26044 14.799 9.11979 14.9397C8.97914 15.0803 8.90012 15.2711 8.90012 15.47C8.90012 15.6689 8.97914 15.8597 9.11979 16.0003C9.26044 16.141 9.45121 16.22 9.65012 16.22H15.3801C15.579 16.22 15.7698 16.141 15.9104 16.0003C16.0511 15.8597 16.1301 15.6689 16.1301 15.47H16.1801Z" fill="black"/>
</svg>
