<svg width="90" height="90" viewBox="0 0 90 90" fill="none" xmlns="http://www.w3.org/2000/svg">
<rect x="2" y="2" width="86" height="86" rx="18" stroke="#4116F7" stroke-width="4"/>
<path d="M59.0007 47.1666C56.964 47.1666 55.079 47.8816 53.584 49.0733C51.5907 50.655 50.334 53.1033 50.334 55.8333C50.334 57.4583 50.789 58.9966 51.5906 60.2966C53.0856 62.81 55.8373 64.5 59.0007 64.5C61.189 64.5 63.1823 63.6983 64.699 62.3333C65.3707 61.77 65.9557 61.0766 66.4107 60.2966C67.2123 58.9966 67.6673 57.4583 67.6673 55.8333C67.6673 51.045 63.789 47.1666 59.0007 47.1666ZM63.4857 54.9016L58.8707 59.1699C58.5673 59.4516 58.1556 59.6033 57.7656 59.6033C57.354 59.6033 56.9423 59.4517 56.6173 59.1267L54.4723 56.9817C53.844 56.3534 53.844 55.3132 54.4723 54.6849C55.1007 54.0566 56.1407 54.0566 56.769 54.6849L57.809 55.725L61.2756 52.5182C61.9256 51.9116 62.9656 51.955 63.5723 52.605C64.179 53.255 64.1357 54.2733 63.4857 54.9016Z" fill="#4116F7"/>
<path opacity="0.4" d="M65.6947 65.5834C65.6947 66.19 65.218 66.6667 64.6113 66.6667H27.388C26.7814 66.6667 26.3047 66.19 26.3047 65.5834C26.3047 56.6134 35.1447 49.3334 45.9997 49.3334C48.2313 49.3334 50.398 49.6366 52.3914 50.2216C51.113 51.7383 50.333 53.71 50.333 55.8334C50.333 57.4584 50.788 58.9967 51.5897 60.2967C52.023 61.0334 52.5863 61.705 53.2363 62.2683C54.753 63.655 56.768 64.5 58.9997 64.5C61.4263 64.5 63.6147 63.5033 65.1747 61.9C65.5214 63.07 65.6947 64.305 65.6947 65.5834Z" fill="#4116F7"/>
<path d="M45.9993 45C51.9824 45 56.8327 40.1498 56.8327 34.1667C56.8327 28.1836 51.9824 23.3334 45.9993 23.3334C40.0163 23.3334 35.166 28.1836 35.166 34.1667C35.166 40.1498 40.0163 45 45.9993 45Z" fill="#4116F7"/>
</svg>
