<svg width="40" height="41" viewBox="0 0 40 41" fill="none" xmlns="http://www.w3.org/2000/svg">
<path d="M14.08 39.9867C16 40.5667 17.94 40.9067 20 40.9067C25.3043 40.9067 30.3914 38.7996 34.1421 35.0489C37.8929 31.2981 40 26.2111 40 20.9067C40 18.2803 39.4827 15.6796 38.4776 13.2531C37.4725 10.8266 35.9993 8.62177 34.1421 6.7646C32.285 4.90743 30.0802 3.43424 27.6537 2.42915C25.2272 1.42405 22.6264 0.906738 20 0.906738C17.3736 0.906738 14.7728 1.42405 12.3463 2.42915C9.91982 3.43424 7.71504 4.90743 5.85786 6.7646C2.10714 10.5153 0 15.6024 0 20.9067C0 29.4067 5.34 36.7067 12.88 39.5867C12.7 38.0267 12.52 35.4467 12.88 33.6667L15.18 23.7867C15.18 23.7867 14.6 22.6267 14.6 20.7867C14.6 18.0267 16.32 15.9667 18.28 15.9667C20 15.9667 20.8 17.2267 20.8 18.8467C20.8 20.5667 19.66 23.0267 19.08 25.3867C18.74 27.3467 20.12 29.0667 22.12 29.0667C25.68 29.0667 28.44 25.2667 28.44 19.9067C28.44 15.1067 25 11.8267 20.06 11.8267C14.42 11.8267 11.1 16.0267 11.1 20.4467C11.1 22.1667 11.66 23.9067 12.58 25.0467C12.76 25.1667 12.76 25.3267 12.7 25.6267L12.12 27.8067C12.12 28.1467 11.9 28.2667 11.56 28.0267C9 26.9067 7.52 23.2667 7.52 20.3267C7.52 14.0067 12 8.26674 20.64 8.26674C27.52 8.26674 32.88 13.2067 32.88 19.7667C32.88 26.6467 28.62 32.1667 22.52 32.1667C20.58 32.1667 18.68 31.1267 18 29.9067L16.66 34.6467C16.2 36.3667 14.94 38.6667 14.08 40.0467V39.9867Z" fill="#4116F7"/>
</svg>
