<svg width="245" height="175" viewBox="0 0 245 175" fill="none" xmlns="http://www.w3.org/2000/svg">
<path d="M219.436 62.2711C217.667 61.2911 216.859 62.1094 216.217 61.2911C215.575 60.4728 217.986 58.3952 213.159 56.3029C213.159 56.3029 212.836 51.7998 206.24 51.6381C199.645 51.4764 201.414 56.1412 199.645 57.2682C197.876 58.3952 197.391 56.6263 195.622 57.7582C193.853 58.8901 194.642 61.1343 193.211 61.4577C191.888 61.7517 190.168 60.3111 188.532 60.9089C187.986 59.0877 187.229 57.3364 186.278 55.6904C180.305 45.4347 167.28 40.7062 157.083 37.8201C124.631 28.6424 116.781 51.1775 96.6664 63.5892C76.5519 76.0009 52.9094 64.5692 41.4238 73.4823C29.9382 82.3954 26.1064 104.538 31.712 114.75C37.3176 124.962 49.7146 128.289 51.6305 133.184C53.5464 138.079 52.9486 139.681 52.9486 139.681H203.379C204.555 139.681 207.661 133.385 208.279 132.16C211.748 125.197 212.169 118.288 206.079 112.937C200.199 107.772 190.031 104.524 189.316 94.9247C188.6 85.3256 191.06 74.4133 189.399 64.677H220.71C220.71 64.677 221.205 63.2364 219.436 62.2711ZM95.6374 118.087H54.9331C54.9331 118.087 56.0601 117.283 57.0254 116.617C57.9907 115.951 59.5979 116.617 60.4015 116.617C61.2051 116.617 61.2051 115.637 62.9789 114.53C64.7527 113.422 66.6784 115.171 68.1239 114.848C69.5694 114.525 68.7707 112.276 70.5396 111.149C72.3085 110.022 72.7936 111.79 74.5625 110.659C76.3314 109.527 74.5625 104.862 81.1579 105.024C87.7533 105.185 88.0767 109.693 88.0767 109.693C92.9032 111.781 90.4875 113.873 91.1343 114.677C91.7811 115.48 92.5798 114.677 94.3536 115.657C96.1274 116.637 95.6374 118.087 95.6374 118.087ZM161.655 46.4343H135.533C135.533 46.4343 136.254 45.9443 136.876 45.5082C137.498 45.0721 138.527 45.5082 139.042 45.5082C139.556 45.5082 139.561 44.8859 140.693 44.1656C141.825 43.4453 143.069 44.5772 144 44.3714C144.931 44.1656 144.412 42.7201 145.549 41.9949C146.686 41.2697 146.994 42.4065 148.131 41.6862C149.268 40.9659 148.131 37.9671 152.365 38.07C156.598 38.1729 156.804 41.0639 156.804 41.0639C159.901 42.4065 158.353 43.7491 158.764 44.2685C159.176 44.7879 159.695 44.2685 160.832 44.8859C161.969 45.5033 161.655 46.4343 161.655 46.4343Z" fill="#A3CAF6"/>
<path d="M113.596 21.41C111.822 20.43 111.019 21.2483 110.377 20.43C109.735 19.6117 112.146 17.5341 107.319 15.4418C107.319 15.4418 106.996 10.9387 100.401 10.777C93.8052 10.6153 95.5741 15.2801 93.8052 16.4071C92.0363 17.5341 91.5512 15.7652 89.7823 16.8971C88.0134 18.029 88.8023 20.2732 87.3666 20.5966C85.9309 20.92 83.9905 19.1266 82.2216 20.2732C80.4527 21.4198 80.4478 22.3655 79.6442 22.3655C78.8406 22.3655 77.2334 21.7236 76.2681 22.3655C75.3028 23.0074 74.1758 23.8355 74.1758 23.8355H114.88C114.88 23.8355 115.365 22.39 113.596 21.41Z" fill="#A3CAF6"/>
<g opacity="0.7">
<path opacity="0.7" d="M219.436 62.2711C217.667 61.2911 216.859 62.1094 216.217 61.2911C215.575 60.4728 217.986 58.3952 213.159 56.3029C213.159 56.3029 212.836 51.7998 206.24 51.6381C199.645 51.4764 201.414 56.1412 199.645 57.2682C197.876 58.3952 197.391 56.6263 195.622 57.7582C193.853 58.8901 194.642 61.1343 193.211 61.4577C191.888 61.7517 190.168 60.3111 188.532 60.9089C187.986 59.0877 187.229 57.3364 186.278 55.6904C180.305 45.4347 167.28 40.7062 157.083 37.8201C124.631 28.6424 116.781 51.1775 96.6664 63.5892C76.5519 76.0009 52.9094 64.5692 41.4238 73.4823C29.9382 82.3954 26.1064 104.538 31.712 114.75C37.3176 124.962 49.7146 128.289 51.6305 133.184C53.5464 138.079 52.9486 139.681 52.9486 139.681H203.379C204.555 139.681 207.661 133.385 208.279 132.16C211.748 125.197 212.169 118.288 206.079 112.937C200.199 107.772 190.031 104.524 189.316 94.9247C188.6 85.3256 191.06 74.4133 189.399 64.677H220.71C220.71 64.677 221.205 63.2364 219.436 62.2711ZM95.6374 118.087H54.9331C54.9331 118.087 56.0601 117.283 57.0254 116.617C57.9907 115.951 59.5979 116.617 60.4015 116.617C61.2051 116.617 61.2051 115.637 62.9789 114.53C64.7527 113.422 66.6784 115.171 68.1239 114.848C69.5694 114.525 68.7707 112.276 70.5396 111.149C72.3085 110.022 72.7936 111.79 74.5625 110.659C76.3314 109.527 74.5625 104.862 81.1579 105.024C87.7533 105.185 88.0767 109.693 88.0767 109.693C92.9032 111.781 90.4875 113.873 91.1343 114.677C91.7811 115.48 92.5798 114.677 94.3536 115.657C96.1274 116.637 95.6374 118.087 95.6374 118.087ZM161.655 46.4343H135.533C135.533 46.4343 136.254 45.9443 136.876 45.5082C137.498 45.0721 138.527 45.5082 139.042 45.5082C139.556 45.5082 139.561 44.8859 140.693 44.1656C141.825 43.4453 143.069 44.5772 144 44.3714C144.931 44.1656 144.412 42.7201 145.549 41.9949C146.686 41.2697 146.994 42.4065 148.131 41.6862C149.268 40.9659 148.131 37.9671 152.365 38.07C156.598 38.1729 156.804 41.0639 156.804 41.0639C159.901 42.4065 158.353 43.7491 158.764 44.2685C159.176 44.7879 159.695 44.2685 160.832 44.8859C161.969 45.5033 161.655 46.4343 161.655 46.4343Z" fill="white"/>
<path opacity="0.7" d="M113.596 21.41C111.822 20.43 111.019 21.2483 110.377 20.43C109.735 19.6117 112.146 17.5341 107.319 15.4418C107.319 15.4418 106.996 10.9387 100.401 10.777C93.8052 10.6153 95.5741 15.2801 93.8052 16.4071C92.0363 17.5341 91.5512 15.7652 89.7823 16.8971C88.0134 18.029 88.8023 20.2732 87.3666 20.5966C85.9309 20.92 83.9905 19.1266 82.2216 20.2732C80.4527 21.4198 80.4478 22.3655 79.6442 22.3655C78.8406 22.3655 77.2334 21.7236 76.2681 22.3655C75.3028 23.0074 74.1758 23.8355 74.1758 23.8355H114.88C114.88 23.8355 115.365 22.39 113.596 21.41Z" fill="white"/>
</g>
<path d="M216.451 108.052L221.234 120.865H217.975L214.717 110.874L216.451 108.052Z" fill="white" stroke="#2E353A" stroke-width="0.887535" stroke-linecap="round" stroke-linejoin="round"/>
<path d="M219.058 139.691H175.982V117.68L215.976 111.57L219.058 120.067V139.691Z" fill="#2E353A"/>
<path d="M181.918 73.0805H125.734V139.691H181.918V73.0805Z" fill="#2E353A"/>
<path d="M122.274 78.4656L119.883 75.3688L154.139 48.9235L187.767 74.8886L185.381 77.9854L154.139 53.8627L122.274 78.4656Z" fill="#2E353A"/>
<path d="M171.637 73.0805H115.453V139.691H171.637V73.0805Z" fill="white" stroke="#2E353A" stroke-width="0.887535" stroke-linecap="round" stroke-linejoin="round"/>
<path d="M143.545 51.3931L115.453 73.0805H171.637L143.545 51.3931Z" fill="white" stroke="#2E353A" stroke-width="0.887535" stroke-linejoin="round"/>
<g style="mix-blend-mode:multiply">
<path d="M143.545 51.3931L115.453 73.0805V78.0197L121.853 73.0805L143.545 56.3323L165.242 73.0805L171.637 78.0197V73.0805L143.545 51.3931Z" fill="#A3CAF6"/>
</g>
<path d="M214.718 117.68H171.637V139.691H214.718V117.68Z" fill="white" stroke="#2E353A" stroke-width="0.887535" stroke-linecap="round" stroke-linejoin="round"/>
<path d="M210.376 117.68H175.982V139.691H210.376V117.68Z" fill="#A3CAF6" stroke="#2E353A" stroke-width="0.887535" stroke-linecap="round" stroke-linejoin="round"/>
<g style="mix-blend-mode:multiply">
<path d="M214.718 117.68H171.637V122.399H214.718V117.68Z" fill="#A3CAF6"/>
</g>
<path d="M175.982 124.124H210.371" stroke="#2E353A" stroke-width="0.887535" stroke-linecap="round" stroke-linejoin="round"/>
<path d="M175.982 127.382H210.371" stroke="#2E353A" stroke-width="0.887535" stroke-linecap="round" stroke-linejoin="round"/>
<path d="M175.982 130.641H210.371" stroke="#2E353A" stroke-width="0.887535" stroke-linecap="round" stroke-linejoin="round"/>
<path d="M175.982 133.899H210.371" stroke="#2E353A" stroke-width="0.887535" stroke-linecap="round" stroke-linejoin="round"/>
<path d="M175.982 137.158H210.371" stroke="#2E353A" stroke-width="0.887535" stroke-linecap="round" stroke-linejoin="round"/>
<path d="M131.382 115.073H120.088V139.691H131.382V115.073Z" fill="#2E353A"/>
<path d="M148.611 115.073H137.316V132.16H148.611V115.073Z" fill="white" stroke="#2E353A" stroke-width="0.887535" stroke-linecap="round" stroke-linejoin="round"/>
<path d="M148.611 122.894H137.316V124.344H148.611V122.894Z" fill="#2E353A"/>
<path d="M143.693 115.073H142.242V132.16H143.693V115.073Z" fill="#2E353A"/>
<path d="M169.32 115.073H158.025V132.16H169.32V115.073Z" fill="white" stroke="#2E353A" stroke-width="0.887535" stroke-linecap="round" stroke-linejoin="round"/>
<path d="M169.32 122.894H158.025V124.344H169.32V122.894Z" fill="#2E353A"/>
<path d="M164.4 115.073H162.949V132.16H164.4V115.073Z" fill="#2E353A"/>
<path d="M154.765 115.073H152.6V139.691H154.765V115.073Z" fill="white" stroke="#2E353A" stroke-width="0.887535" stroke-linecap="round" stroke-linejoin="round"/>
<path d="M135.832 115.073H133.666V139.691H135.832V115.073Z" fill="white" stroke="#2E353A" stroke-width="0.887535" stroke-linecap="round" stroke-linejoin="round"/>
<path d="M169.319 116.088H118.061V119.273H169.319V116.088Z" fill="#2E353A"/>
<path d="M169.319 114.495H118.061V117.68H169.319V114.495Z" fill="#A3CAF6" stroke="#2E353A" stroke-width="0.887535" stroke-linecap="round" stroke-linejoin="round"/>
<path d="M111.68 78.4656L109.289 75.3688L143.545 48.9235L177.174 74.8886L174.787 77.9854L143.545 53.8627L111.68 78.4656Z" fill="white" stroke="#2E353A" stroke-width="0.887535" stroke-linejoin="round"/>
<path d="M214.717 120.865H167.354L171.7 108.052H216.452L214.717 120.865Z" fill="#2E353A"/>
<path d="M177.174 74.8886H186.876L154.139 48.9235H143.545L177.174 74.8886Z" fill="#2E353A"/>
<path d="M174.787 77.9854H185.381L187.767 74.8886H177.173L174.787 77.9854Z" fill="#2E353A"/>
<path d="M126.169 82.9295H120.088V92.7785H126.169V82.9295Z" fill="white" stroke="#2E353A" stroke-width="0.887535" stroke-linecap="round" stroke-linejoin="round"/>
<path d="M126.169 87.854H120.088V92.7785H126.169V87.854Z" fill="#2E353A"/>
<path d="M126.169 87.3052H120.088V88.4028H126.169V87.3052Z" fill="white" stroke="#2E353A" stroke-width="0.887535" stroke-linecap="round" stroke-linejoin="round"/>
<path d="M126.169 97.1199H120.088V106.969H126.169V97.1199Z" fill="white" stroke="#2E353A" stroke-width="0.887535" stroke-linecap="round" stroke-linejoin="round"/>
<path d="M126.169 101.995H120.088V106.964H126.169V101.995Z" fill="#2E353A"/>
<path d="M167.29 82.9295H161.209V92.7785H167.29V82.9295Z" fill="white" stroke="#2E353A" stroke-width="0.887535" stroke-linecap="round" stroke-linejoin="round"/>
<path d="M167.29 87.854H161.209V92.7785H167.29V87.854Z" fill="#2E353A"/>
<path d="M167.29 97.1199H161.209V106.969H167.29V97.1199Z" fill="white" stroke="#2E353A" stroke-width="0.887535" stroke-linecap="round" stroke-linejoin="round"/>
<path d="M167.29 101.447H161.209V106.964H167.29V101.447Z" fill="#2E353A"/>
<path d="M146.005 82.9295H139.924V92.7785H146.005V82.9295Z" fill="white" stroke="#2E353A" stroke-width="0.887535" stroke-linecap="round" stroke-linejoin="round"/>
<path d="M146.005 87.854H139.924V92.7785H146.005V87.854Z" fill="#2E353A"/>
<path d="M146.005 97.1199H139.924V106.969H146.005V97.1199Z" fill="white" stroke="#2E353A" stroke-width="0.887535" stroke-linecap="round" stroke-linejoin="round"/>
<path d="M146.005 101.447H139.924V106.964H146.005V101.447Z" fill="#2E353A"/>
<path d="M146.005 87.3052H139.924V88.4028H146.005V87.3052Z" fill="white" stroke="#2E353A" stroke-width="0.887535" stroke-linecap="round" stroke-linejoin="round"/>
<path d="M167.29 87.3052H161.209V88.4028H167.29V87.3052Z" fill="white" stroke="#2E353A" stroke-width="0.887535" stroke-linecap="round" stroke-linejoin="round"/>
<path d="M126.169 100.898H120.088V101.995H126.169V100.898Z" fill="white" stroke="#2E353A" stroke-width="0.887535" stroke-linecap="round" stroke-linejoin="round"/>
<path d="M146.005 100.898H139.924V101.995H146.005V100.898Z" fill="white" stroke="#2E353A" stroke-width="0.887535" stroke-linecap="round" stroke-linejoin="round"/>
<path d="M167.29 100.898H161.209V101.995H167.29V100.898Z" fill="white" stroke="#2E353A" stroke-width="0.887535" stroke-linecap="round" stroke-linejoin="round"/>
<path d="M120.406 76.0499V78.4656" stroke="#2E353A" stroke-width="0.887535" stroke-linecap="round" stroke-linejoin="round"/>
<path d="M124.754 76.0499V78.4656" stroke="#2E353A" stroke-width="0.887535" stroke-linecap="round" stroke-linejoin="round"/>
<path d="M122.273 78.4656V80.8813" stroke="#2E353A" stroke-width="0.887535" stroke-linecap="round" stroke-linejoin="round"/>
<path d="M127.238 78.4656V80.8813" stroke="#2E353A" stroke-width="0.887535" stroke-linecap="round" stroke-linejoin="round"/>
<path d="M118.482 78.4656H128.41" stroke="#2E353A" stroke-width="0.887535" stroke-linecap="round" stroke-linejoin="round"/>
<path d="M120.406 108.316V110.732" stroke="#2E353A" stroke-width="0.887535" stroke-linecap="round" stroke-linejoin="round"/>
<path d="M124.754 108.316V110.732" stroke="#2E353A" stroke-width="0.887535" stroke-linecap="round" stroke-linejoin="round"/>
<path d="M122.273 110.732V113.148" stroke="#2E353A" stroke-width="0.887535" stroke-linecap="round" stroke-linejoin="round"/>
<path d="M127.238 110.732V113.148" stroke="#2E353A" stroke-width="0.887535" stroke-linecap="round" stroke-linejoin="round"/>
<path d="M118.482 110.732H128.41" stroke="#2E353A" stroke-width="0.887535" stroke-linecap="round" stroke-linejoin="round"/>
<path d="M129.213 85.4334V87.854" stroke="#2E353A" stroke-width="0.887535" stroke-linecap="round" stroke-linejoin="round"/>
<path d="M133.559 85.4334V87.854" stroke="#2E353A" stroke-width="0.887535" stroke-linecap="round" stroke-linejoin="round"/>
<path d="M131.08 87.854V90.2697" stroke="#2E353A" stroke-width="0.887535" stroke-linecap="round" stroke-linejoin="round"/>
<path d="M136.043 87.854V90.2697" stroke="#2E353A" stroke-width="0.887535" stroke-linecap="round" stroke-linejoin="round"/>
<path d="M127.287 87.854H137.215" stroke="#2E353A" stroke-width="0.887535" stroke-linecap="round" stroke-linejoin="round"/>
<path d="M129.213 90.2697H137.215" stroke="#2E353A" stroke-width="0.887535" stroke-linecap="round" stroke-linejoin="round"/>
<path d="M129.213 90.3579V92.7736" stroke="#2E353A" stroke-width="0.887535" stroke-linecap="round" stroke-linejoin="round"/>
<path d="M133.559 90.3579V92.7736" stroke="#2E353A" stroke-width="0.887535" stroke-linecap="round" stroke-linejoin="round"/>
<path d="M131.08 92.7736V95.1893" stroke="#2E353A" stroke-width="0.887535" stroke-linecap="round" stroke-linejoin="round"/>
<path d="M136.043 92.7736V95.1893" stroke="#2E353A" stroke-width="0.887535" stroke-linecap="round" stroke-linejoin="round"/>
<path d="M127.287 92.7736H137.215" stroke="#2E353A" stroke-width="0.887535" stroke-linecap="round" stroke-linejoin="round"/>
<path d="M150.861 101.554V103.97" stroke="#2E353A" stroke-width="0.887535" stroke-linecap="round" stroke-linejoin="round"/>
<path d="M155.207 101.554V103.97" stroke="#2E353A" stroke-width="0.887535" stroke-linecap="round" stroke-linejoin="round"/>
<path d="M152.729 103.97V106.386" stroke="#2E353A" stroke-width="0.887535" stroke-linecap="round" stroke-linejoin="round"/>
<path d="M157.691 103.97V106.386" stroke="#2E353A" stroke-width="0.887535" stroke-linecap="round" stroke-linejoin="round"/>
<path d="M148.936 103.97H158.863" stroke="#2E353A" stroke-width="0.887535" stroke-linecap="round" stroke-linejoin="round"/>
<path d="M150.861 106.386H158.863" stroke="#2E353A" stroke-width="0.887535" stroke-linecap="round" stroke-linejoin="round"/>
<path d="M150.861 106.479V108.895" stroke="#2E353A" stroke-width="0.887535" stroke-linecap="round" stroke-linejoin="round"/>
<path d="M155.207 106.479V108.895" stroke="#2E353A" stroke-width="0.887535" stroke-linecap="round" stroke-linejoin="round"/>
<path d="M152.729 108.895V111.31" stroke="#2E353A" stroke-width="0.887535" stroke-linecap="round" stroke-linejoin="round"/>
<path d="M157.691 108.895V111.31" stroke="#2E353A" stroke-width="0.887535" stroke-linecap="round" stroke-linejoin="round"/>
<path d="M148.936 108.895H158.863" stroke="#2E353A" stroke-width="0.887535" stroke-linecap="round" stroke-linejoin="round"/>
<path d="M34.3005 146.517C43.9339 150.501 68.6887 146.189 66.1505 150.834C63.6123 155.479 44.223 153.734 38.7105 158.757C33.198 163.779 58.2762 163.378 57.3893 164.902C56.5024 166.425 34.4377 167.469 35.8881 169.522H184.564C184.804 167.915 183.094 165.965 180.301 164.622C158.163 163.716 83.1437 160.394 91.0033 157.184C100.215 153.431 130.291 149.677 135.789 146.737C141.287 143.797 116.934 143.469 112.857 142.166C111.544 141.744 111.387 141.333 111.814 140.975L112.514 141.019V140.573C113.628 140.17 114.776 139.87 115.944 139.676H112.514V138.829L112.024 139.137L111.186 139.676H110.917C111.26 138.615 111.493 137.522 111.613 136.413C111.804 134.497 109.114 138.829 109.114 138.829C109.114 138.829 109.496 137.359 109.114 136.413C108.731 135.467 107.575 137.692 107.575 137.692C107.575 137.692 108.923 132.375 107.575 128.921C106.228 125.466 104.709 137.692 104.709 137.692C104.709 137.692 104.503 132.949 102.773 132.856C101.372 132.777 102.239 136.001 102.621 137.226C102.325 136.539 101.887 135.921 101.337 135.413C100.098 134.228 101.337 138.153 101.337 138.153C101.337 138.153 100.847 136.986 97.6085 136.413C94.3696 135.84 98.9315 138.951 98.9315 138.951C97.5274 138.548 96.1028 138.221 94.6636 137.971C93.9482 137.854 93.8894 138.03 94.1246 138.324L93.6591 138.623L92.1597 139.603C92.6508 138.164 92.9795 136.675 93.1397 135.163C93.3847 132.713 89.9596 138.241 89.9596 138.241C89.9596 138.241 90.4496 136.384 89.9596 135.163C89.4696 133.943 87.9996 136.79 87.9996 136.79C87.9996 136.79 89.7146 130.023 87.9996 125.623C86.2846 121.223 84.3491 136.79 84.3491 136.79C84.3491 136.79 84.0845 130.758 81.8991 130.636C80.1204 130.538 81.2131 134.61 81.7031 136.183C81.326 135.315 80.7719 134.536 80.0763 133.894C78.4936 132.385 80.0763 137.378 80.0763 137.378C80.0763 137.378 79.454 135.908 75.3282 135.163C71.2024 134.419 77.0089 138.398 77.0089 138.398C75.2213 137.885 73.4073 137.469 71.5748 137.153C68.8308 136.702 73.6622 139.686 73.6622 139.686H37.2405C37.2405 139.686 24.6769 142.538 34.3005 146.517ZM94.2863 138.52C94.7779 138.955 95.3039 139.35 95.8592 139.701H94.2863V138.52Z" fill="#A3CAF6"/>
<path d="M153.159 147.11C147.593 149.687 133.77 152.392 133.77 152.392C131.57 152.691 134.549 155.508 149.827 154.112L175.974 139.691H125.871C127.547 140.554 139.483 142.543 146.275 142.543C153.066 142.543 158.726 144.527 153.159 147.11Z" fill="#A3CAF6"/>
<path d="M193.188 139.691H203.066C198.107 139.5 193.188 139.691 193.188 139.691Z" fill="#A3CAF6"/>
<path d="M209.486 140.264L186.02 155.386C188.994 155.273 192.105 155.2 195.119 155.126C208.119 154.813 203.4 149.173 204.282 147.183C205.164 145.194 212.543 145.522 213.131 142.205C213.298 141.264 211.764 140.656 209.486 140.264Z" fill="#A3CAF6"/>
<g opacity="0.3">
<path opacity="0.3" d="M34.3005 146.517C43.9339 150.501 68.6887 146.189 66.1505 150.834C63.6123 155.479 44.223 153.734 38.7105 158.757C33.198 163.779 58.2762 163.378 57.3893 164.902C56.5024 166.425 34.4377 167.469 35.8881 169.522H184.564C184.804 167.915 183.094 165.965 180.301 164.622C158.163 163.716 83.1437 160.394 91.0033 157.184C100.215 153.431 130.291 149.677 135.789 146.737C141.287 143.797 116.934 143.469 112.857 142.166C111.544 141.744 111.387 141.333 111.814 140.975L112.514 141.019V140.573C113.628 140.17 114.776 139.87 115.944 139.676H112.514V138.829L112.024 139.137L111.186 139.676H110.917C111.26 138.615 111.493 137.522 111.613 136.413C111.804 134.497 109.114 138.829 109.114 138.829C109.114 138.829 109.496 137.359 109.114 136.413C108.731 135.467 107.575 137.692 107.575 137.692C107.575 137.692 108.923 132.375 107.575 128.921C106.228 125.466 104.709 137.692 104.709 137.692C104.709 137.692 104.503 132.949 102.773 132.856C101.372 132.777 102.239 136.001 102.621 137.226C102.325 136.539 101.887 135.921 101.337 135.413C100.098 134.228 101.337 138.153 101.337 138.153C101.337 138.153 100.847 136.986 97.6085 136.413C94.3696 135.84 98.9315 138.951 98.9315 138.951C97.5274 138.548 96.1028 138.221 94.6636 137.971C93.9482 137.854 93.8894 138.03 94.1246 138.324L93.6591 138.623L92.1597 139.603C92.6508 138.164 92.9795 136.675 93.1397 135.163C93.3847 132.713 89.9596 138.241 89.9596 138.241C89.9596 138.241 90.4496 136.384 89.9596 135.163C89.4696 133.943 87.9996 136.79 87.9996 136.79C87.9996 136.79 89.7146 130.023 87.9996 125.623C86.2846 121.223 84.3491 136.79 84.3491 136.79C84.3491 136.79 84.0845 130.758 81.8991 130.636C80.1204 130.538 81.2131 134.61 81.7031 136.183C81.326 135.315 80.7719 134.536 80.0763 133.894C78.4936 132.385 80.0763 137.378 80.0763 137.378C80.0763 137.378 79.454 135.908 75.3282 135.163C71.2024 134.419 77.0089 138.398 77.0089 138.398C75.2213 137.885 73.4073 137.469 71.5748 137.153C68.8308 136.702 73.6622 139.686 73.6622 139.686H37.2405C37.2405 139.686 24.6769 142.538 34.3005 146.517ZM94.2863 138.52C94.7779 138.955 95.3039 139.35 95.8592 139.701H94.2863V138.52Z" fill="white"/>
<path opacity="0.3" d="M153.159 147.11C147.593 149.687 133.77 152.392 133.77 152.392C131.57 152.691 134.549 155.508 149.827 154.112L175.974 139.691H125.871C127.547 140.554 139.483 142.543 146.275 142.543C153.066 142.543 158.726 144.527 153.159 147.11Z" fill="white"/>
<path opacity="0.3" d="M193.188 139.691H203.066C198.107 139.5 193.188 139.691 193.188 139.691Z" fill="white"/>
<path opacity="0.3" d="M209.486 140.264L186.02 155.386C188.994 155.273 192.105 155.2 195.119 155.126C208.119 154.813 203.4 149.173 204.282 147.183C205.164 145.194 212.543 145.522 213.131 142.205C213.298 141.264 211.764 140.656 209.486 140.264Z" fill="white"/>
</g>
<path d="M65.8125 57.278V96.8014H123.304V57.278H65.8125ZM71.1535 62.1339C70.8395 62.1339 70.5326 62.0408 70.2715 61.8663C70.0104 61.6919 69.8069 61.4439 69.6867 61.1538C69.5666 60.8638 69.5351 60.5445 69.5964 60.2366C69.6577 59.9286 69.8089 59.6457 70.0309 59.4237C70.2529 59.2017 70.5358 59.0505 70.8438 58.9892C71.1517 58.928 71.471 58.9594 71.761 59.0796C72.0511 59.1997 72.2991 59.4032 72.4735 59.6643C72.648 59.9254 72.7411 60.2323 72.7411 60.5463C72.7411 60.9674 72.5738 61.3712 72.2761 61.6689C71.9784 61.9666 71.5746 62.1339 71.1535 62.1339ZM117.909 62.1339C117.595 62.1339 117.288 62.0408 117.027 61.8663C116.766 61.6919 116.563 61.4439 116.443 61.1538C116.322 60.8638 116.291 60.5445 116.352 60.2366C116.413 59.9286 116.565 59.6457 116.787 59.4237C117.009 59.2017 117.292 59.0505 117.6 58.9892C117.908 58.928 118.227 58.9594 118.517 59.0796C118.807 59.1997 119.055 59.4032 119.229 59.6643C119.404 59.9254 119.497 60.2323 119.497 60.5463C119.496 60.967 119.328 61.37 119.03 61.6675C118.733 61.9649 118.33 62.1326 117.909 62.1339Z" fill="#A3CAF6" stroke="#2E353A" stroke-miterlimit="10"/>
<path d="M119.497 60.5463C119.497 60.8603 119.404 61.1672 119.229 61.4283C119.055 61.6894 118.807 61.8929 118.517 62.013C118.227 62.1332 117.908 62.1646 117.6 62.1034C117.292 62.0421 117.009 61.8909 116.787 61.6689C116.565 61.4469 116.414 61.164 116.352 60.856C116.291 60.5481 116.322 60.2288 116.443 59.9387C116.563 59.6487 116.766 59.4007 117.027 59.2263C117.288 59.0518 117.595 58.9587 117.909 58.9587H71.1536C71.4675 58.9587 71.7745 59.0518 72.0356 59.2263C72.2966 59.4007 72.5001 59.6487 72.6203 59.9387C72.7405 60.2288 72.7719 60.5481 72.7106 60.856C72.6494 61.164 72.4982 61.4469 72.2761 61.6689C72.0541 61.8909 71.7712 62.0421 71.4633 62.1034C71.1553 62.1646 70.8361 62.1332 70.546 62.013C70.2559 61.8929 70.008 61.6894 69.8335 61.4283C69.6591 61.1672 69.5659 60.8603 69.5659 60.5463C69.5659 60.1252 69.7332 59.7214 70.0309 59.4237C70.3287 59.126 70.7325 58.9587 71.1536 58.9587H67.4688V94.6209H121.104V58.9587H117.909C118.33 58.9587 118.734 59.126 119.032 59.4237C119.33 59.7214 119.497 60.1252 119.497 60.5463Z" fill="#2E353A"/>
<path d="M71.1526 41.99C70.6964 41.991 70.2506 42.1271 69.8717 42.3813C69.4929 42.6355 69.1978 42.9963 69.0239 43.4181C68.85 43.8399 68.805 44.3038 68.8946 44.7511C68.9842 45.1985 69.2044 45.6093 69.5273 45.9316C69.8503 46.2538 70.2615 46.4731 70.7091 46.5618C71.1566 46.6505 71.6204 46.6045 72.0418 46.4296C72.4633 46.2548 72.8234 45.959 73.0768 45.5796C73.3302 45.2002 73.4654 44.7541 73.4654 44.2979C73.4654 43.9944 73.4055 43.6939 73.2893 43.4136C73.173 43.1332 73.0025 42.8786 72.7877 42.6642C72.5729 42.4499 72.3179 42.28 72.0373 42.1643C71.7567 42.0486 71.4561 41.9894 71.1526 41.99ZM71.1526 45.8365C70.8485 45.8355 70.5515 45.7445 70.2991 45.5748C70.0468 45.4052 69.8503 45.1645 69.7346 44.8833C69.6189 44.6021 69.5892 44.2929 69.6491 43.9947C69.709 43.6966 69.8559 43.4229 70.0713 43.2082C70.2867 42.9935 70.5608 42.8475 70.8591 42.7885C71.1575 42.7295 71.4666 42.7603 71.7474 42.8769C72.0283 42.9935 72.2683 43.1907 72.4371 43.4436C72.606 43.6965 72.6961 43.9938 72.6961 44.2979C72.6974 44.5014 72.6584 44.7032 72.5814 44.8916C72.5045 45.08 72.391 45.2513 72.2475 45.3957C72.1041 45.54 71.9335 45.6546 71.7456 45.7328C71.5576 45.811 71.3561 45.8512 71.1526 45.8512V45.8365Z" fill="white" stroke="#2E353A" stroke-width="0.916642" stroke-linecap="round" stroke-linejoin="round"/>
<path d="M71.1526 47.5319C70.695 47.5319 70.2477 47.6677 69.8672 47.922C69.4868 48.1764 69.1903 48.5379 69.0154 48.9608C68.8405 49.3837 68.795 49.8489 68.8846 50.2977C68.9743 50.7465 69.195 51.1586 69.519 51.4818C69.8429 51.8051 70.2555 52.025 70.7044 52.1137C71.1534 52.2023 71.6186 52.1558 72.0411 51.98C72.4636 51.8042 72.8245 51.507 73.078 51.126C73.3316 50.7451 73.4664 50.2974 73.4654 49.8398C73.4654 49.5363 73.4056 49.2358 73.2893 48.9555C73.173 48.6751 73.0026 48.4205 72.7877 48.2061C72.5729 47.9918 72.3179 47.8219 72.0373 47.7062C71.7568 47.5905 71.4561 47.5313 71.1526 47.5319ZM71.1526 51.3833C70.8474 51.3833 70.5489 51.2928 70.2951 51.1232C70.0413 50.9536 69.8435 50.7125 69.7266 50.4305C69.6098 50.1484 69.5792 49.8381 69.6388 49.5387C69.6984 49.2393 69.8454 48.9642 70.0612 48.7484C70.2771 48.5325 70.5521 48.3855 70.8515 48.326C71.1509 48.2664 71.4613 48.297 71.7433 48.4138C72.0253 48.5306 72.2664 48.7284 72.436 48.9823C72.6056 49.2361 72.6961 49.5345 72.6961 49.8398C72.6961 50.2492 72.5335 50.6418 72.2441 50.9312C71.9546 51.2207 71.562 51.3833 71.1526 51.3833Z" fill="white" stroke="#2E353A" stroke-width="0.916642" stroke-linecap="round" stroke-linejoin="round"/>
<path d="M71.1526 52.4172C70.6964 52.4182 70.2506 52.5543 69.8717 52.8085C69.4929 53.0627 69.1978 53.4235 69.0239 53.8453C68.85 54.2671 68.805 54.731 68.8946 55.1783C68.9842 55.6257 69.2044 56.0365 69.5273 56.3588C69.8503 56.681 70.2615 56.9003 70.7091 56.989C71.1566 57.0777 71.6204 57.0317 72.0418 56.8568C72.4633 56.682 72.8234 56.3862 73.0768 56.0068C73.3302 55.6274 73.4654 55.1813 73.4654 54.7251C73.4654 54.4216 73.4055 54.1211 73.2893 53.8408C73.173 53.5604 73.0025 53.3058 72.7877 53.0914C72.5729 52.8771 72.3179 52.7072 72.0373 52.5915C71.7567 52.4758 71.4561 52.4166 71.1526 52.4172ZM71.1526 56.2637C70.8485 56.2627 70.5515 56.1717 70.2991 56.002C70.0468 55.8324 69.8503 55.5917 69.7346 55.3105C69.6189 55.0293 69.5892 54.7201 69.6491 54.4219C69.709 54.1238 69.8559 53.8501 70.0713 53.6354C70.2867 53.4207 70.5608 53.2747 70.8591 53.2157C71.1575 53.1567 71.4666 53.1875 71.7474 53.3041C72.0283 53.4207 72.2683 53.6179 72.4371 53.8708C72.606 54.1237 72.6961 54.421 72.6961 54.7251C72.6948 55.1336 72.5316 55.5249 72.2423 55.8133C71.953 56.1018 71.5611 56.2637 71.1526 56.2637Z" fill="white" stroke="#2E353A" stroke-width="0.916642" stroke-linecap="round" stroke-linejoin="round"/>
<path d="M71.1528 49.5899C71.0449 49.5899 70.9415 49.547 70.8652 49.4708C70.7889 49.3945 70.7461 49.2911 70.7461 49.1832V45.3759C70.7461 45.268 70.7889 45.1646 70.8652 45.0883C70.9415 45.012 71.0449 44.9692 71.1528 44.9692C71.2611 44.9692 71.3651 45.0119 71.4421 45.088C71.5192 45.1641 71.5631 45.2676 71.5644 45.3759V49.1832C71.5631 49.2915 71.5192 49.3949 71.4421 49.4711C71.3651 49.5472 71.2611 49.5899 71.1528 49.5899Z" fill="white" stroke="#2E353A" stroke-width="0.916642" stroke-linecap="round" stroke-linejoin="round"/>
<path d="M71.1528 54.828C71.0449 54.828 70.9415 54.7851 70.8652 54.7089C70.7889 54.6326 70.7461 54.5292 70.7461 54.4213V50.614C70.7461 50.5061 70.7889 50.4027 70.8652 50.3264C70.9415 50.2501 71.0449 50.2073 71.1528 50.2073C71.2611 50.2073 71.3651 50.25 71.4421 50.3261C71.5192 50.4022 71.5631 50.5057 71.5644 50.614V54.4213C71.5631 54.5296 71.5192 54.633 71.4421 54.7092C71.3651 54.7853 71.2611 54.828 71.1528 54.828Z" fill="white" stroke="#2E353A" stroke-width="0.916642" stroke-linecap="round" stroke-linejoin="round"/>
<path d="M71.1528 60.0759C71.0449 60.0759 70.9415 60.033 70.8652 59.9568C70.7889 59.8805 70.7461 59.7771 70.7461 59.6692V55.8619C70.7461 55.8085 70.7566 55.7556 70.777 55.7063C70.7975 55.6569 70.8274 55.6121 70.8652 55.5743C70.903 55.5365 70.9478 55.5066 70.9972 55.4862C71.0465 55.4657 71.0994 55.4552 71.1528 55.4552C71.2611 55.4552 71.3651 55.4979 71.4421 55.574C71.5192 55.6501 71.5631 55.7536 71.5644 55.8619V59.6692C71.5631 59.7775 71.5192 59.8809 71.4421 59.9571C71.3651 60.0332 71.2611 60.0759 71.1528 60.0759Z" fill="white" stroke="#2E353A" stroke-width="0.916642" stroke-linecap="round" stroke-linejoin="round"/>
<path d="M117.908 41.99C117.452 41.991 117.006 42.1271 116.628 42.3813C116.249 42.6355 115.954 42.9963 115.78 43.4181C115.606 43.8399 115.561 44.3038 115.65 44.7511C115.74 45.1985 115.96 45.6093 116.283 45.9316C116.606 46.2538 117.017 46.4731 117.465 46.5618C117.912 46.6505 118.376 46.6045 118.798 46.4296C119.219 46.2548 119.579 45.959 119.833 45.5796C120.086 45.2002 120.221 44.7541 120.221 44.2979C120.221 43.9944 120.161 43.6939 120.045 43.4136C119.929 43.1332 119.758 42.8786 119.544 42.6642C119.329 42.4499 119.074 42.28 118.793 42.1643C118.513 42.0486 118.212 41.9894 117.908 41.99ZM117.908 45.8365C117.604 45.8355 117.307 45.7445 117.055 45.5748C116.803 45.4052 116.606 45.1645 116.49 44.8833C116.375 44.6021 116.345 44.2929 116.405 43.9947C116.465 43.6966 116.612 43.4229 116.827 43.2082C117.043 42.9935 117.317 42.8475 117.615 42.7885C117.913 42.7295 118.222 42.7603 118.503 42.8769C118.784 42.9935 119.024 43.1907 119.193 43.4436C119.362 43.6965 119.452 43.9938 119.452 44.2979C119.453 44.5014 119.414 44.7032 119.337 44.8916C119.26 45.08 119.147 45.2513 119.003 45.3957C118.86 45.54 118.689 45.6546 118.501 45.7328C118.314 45.811 118.112 45.8512 117.908 45.8512V45.8365Z" fill="white" stroke="#2E353A" stroke-width="0.916642" stroke-linecap="round" stroke-linejoin="round"/>
<path d="M117.909 47.5319C117.451 47.5319 117.004 47.6677 116.623 47.922C116.243 48.1764 115.946 48.5379 115.771 48.9608C115.596 49.3837 115.551 49.8489 115.641 50.2977C115.73 50.7465 115.951 51.1586 116.275 51.4818C116.599 51.8051 117.011 52.025 117.46 52.1137C117.909 52.2023 118.374 52.1558 118.797 51.98C119.219 51.8042 119.58 51.507 119.834 51.126C120.087 50.7451 120.222 50.2974 120.221 49.8398C120.221 49.5363 120.161 49.2358 120.045 48.9555C119.929 48.6751 119.758 48.4205 119.544 48.2061C119.329 47.9918 119.074 47.8219 118.793 47.7062C118.513 47.5905 118.212 47.5313 117.909 47.5319ZM117.909 51.3833C117.603 51.3833 117.305 51.2928 117.051 51.1232C116.797 50.9536 116.599 50.7125 116.482 50.4305C116.366 50.1484 116.335 49.8381 116.395 49.5387C116.454 49.2393 116.601 48.9642 116.817 48.7484C117.033 48.5325 117.308 48.3855 117.607 48.326C117.907 48.2664 118.217 48.297 118.499 48.4138C118.781 48.5306 119.022 48.7284 119.192 48.9823C119.361 49.2361 119.452 49.5345 119.452 49.8398C119.452 50.0425 119.412 50.2432 119.335 50.4305C119.257 50.6177 119.143 50.7879 119 50.9312C118.857 51.0745 118.686 51.1882 118.499 51.2658C118.312 51.3434 118.111 51.3833 117.909 51.3833Z" fill="white" stroke="#2E353A" stroke-width="0.916642" stroke-linecap="round" stroke-linejoin="round"/>
<path d="M117.908 52.4172C117.452 52.4182 117.006 52.5543 116.628 52.8085C116.249 53.0627 115.954 53.4235 115.78 53.8453C115.606 54.2671 115.561 54.731 115.65 55.1783C115.74 55.6257 115.96 56.0365 116.283 56.3588C116.606 56.681 117.017 56.9003 117.465 56.989C117.912 57.0777 118.376 57.0317 118.798 56.8568C119.219 56.682 119.579 56.3862 119.833 56.0068C120.086 55.6274 120.221 55.1813 120.221 54.7251C120.221 54.4216 120.161 54.1211 120.045 53.8408C119.929 53.5604 119.758 53.3058 119.544 53.0914C119.329 52.8771 119.074 52.7072 118.793 52.5915C118.513 52.4758 118.212 52.4166 117.908 52.4172ZM117.908 56.2637C117.604 56.2627 117.307 56.1717 117.055 56.002C116.803 55.8324 116.606 55.5917 116.49 55.3105C116.375 55.0293 116.345 54.7201 116.405 54.4219C116.465 54.1238 116.612 53.8501 116.827 53.6354C117.043 53.4207 117.317 53.2747 117.615 53.2157C117.913 53.1567 118.222 53.1875 118.503 53.3041C118.784 53.4207 119.024 53.6179 119.193 53.8708C119.362 54.1237 119.452 54.421 119.452 54.7251C119.451 55.1336 119.287 55.5249 118.998 55.8133C118.709 56.1018 118.317 56.2637 117.908 56.2637Z" fill="white" stroke="#2E353A" stroke-width="0.916642" stroke-linecap="round" stroke-linejoin="round"/>
<path d="M117.909 49.5899C117.801 49.5899 117.697 49.547 117.621 49.4708C117.545 49.3945 117.502 49.2911 117.502 49.1832V45.3759C117.502 45.268 117.545 45.1646 117.621 45.0883C117.697 45.012 117.801 44.9692 117.909 44.9692C118.017 44.9692 118.121 45.0119 118.198 45.088C118.275 45.1641 118.319 45.2676 118.32 45.3759V49.1832C118.319 49.2915 118.275 49.3949 118.198 49.4711C118.121 49.5472 118.017 49.5899 117.909 49.5899Z" fill="white" stroke="#2E353A" stroke-width="0.916642" stroke-linecap="round" stroke-linejoin="round"/>
<path d="M117.909 54.828C117.801 54.828 117.697 54.7851 117.621 54.7089C117.545 54.6326 117.502 54.5292 117.502 54.4213V50.614C117.502 50.5061 117.545 50.4027 117.621 50.3264C117.697 50.2501 117.801 50.2073 117.909 50.2073C118.017 50.2073 118.121 50.25 118.198 50.3261C118.275 50.4022 118.319 50.5057 118.32 50.614V54.4213C118.319 54.5296 118.275 54.633 118.198 54.7092C118.121 54.7853 118.017 54.828 117.909 54.828Z" fill="white" stroke="#2E353A" stroke-width="0.916642" stroke-linecap="round" stroke-linejoin="round"/>
<path d="M117.909 60.0759C117.801 60.0759 117.697 60.033 117.621 59.9568C117.545 59.8805 117.502 59.7771 117.502 59.6692V55.8619C117.502 55.8085 117.512 55.7556 117.533 55.7063C117.553 55.6569 117.583 55.6121 117.621 55.5743C117.659 55.5365 117.704 55.5066 117.753 55.4862C117.802 55.4657 117.855 55.4552 117.909 55.4552C118.017 55.4552 118.121 55.4979 118.198 55.574C118.275 55.6501 118.319 55.7536 118.32 55.8619V59.6692C118.319 59.7775 118.275 59.8809 118.198 59.9571C118.121 60.0332 118.017 60.0759 117.909 60.0759Z" fill="white" stroke="#2E353A" stroke-width="0.916642" stroke-linecap="round" stroke-linejoin="round"/>
<path d="M129.844 43.2101H40.0568L37.2344 35.4093H136.043L129.844 43.2101Z" fill="#2E353A" stroke="#2E353A" stroke-width="0.887535" stroke-linecap="round" stroke-linejoin="round"/>
<path d="M127.557 43.2101H37.7697L34.9473 35.4093H133.761L127.557 43.2101Z" fill="white" stroke="#2E353A" stroke-width="0.887535" stroke-linecap="round" stroke-linejoin="round"/>
<path d="M54.4349 167.121H47.0898L49.3095 13.7954H50.6129L54.4349 19.2197V167.121Z" fill="#2E353A" stroke="#2E353A" stroke-width="0.887535" stroke-linecap="round" stroke-linejoin="round"/>
<path d="M53.1263 167.121H45.7812V19.2197L49.3092 13.7954L53.1263 19.2197V167.121Z" fill="white" stroke="#2E353A" stroke-width="0.887535" stroke-linecap="round" stroke-linejoin="round"/>
<path d="M47.0898 167.121V157.689" stroke="#2E353A" stroke-width="0.887535" stroke-linecap="round" stroke-linejoin="round"/>
<path d="M48.373 167.121V132.669" stroke="#2E353A" stroke-width="0.887535" stroke-linecap="round" stroke-linejoin="round"/>
<path d="M47.0898 156.258V152.828" stroke="#2E353A" stroke-width="0.887535" stroke-linecap="round" stroke-linejoin="round"/>
<path d="M50.7598 106.396V102.966" stroke="#2E353A" stroke-width="0.887535" stroke-linecap="round" stroke-linejoin="round"/>
<path d="M47.0898 20.6848V17.2548" stroke="#2E353A" stroke-width="0.887535" stroke-linecap="round" stroke-linejoin="round"/>
<path d="M47.0898 25.2026V21.7726" stroke="#2E353A" stroke-width="0.887535" stroke-linecap="round" stroke-linejoin="round"/>
<path d="M50.7598 128.142V110.247" stroke="#2E353A" stroke-width="0.887535" stroke-linecap="round" stroke-linejoin="round"/>
<path d="M35.668 37.0361H38.2405" stroke="#2E353A" stroke-width="0.887535" stroke-linecap="round" stroke-linejoin="round"/>
<path d="M36.8086 38.3248H42.9581" stroke="#2E353A" stroke-width="0.887535" stroke-linecap="round" stroke-linejoin="round"/>
<path d="M59.668 38.3248H65.8126" stroke="#2E353A" stroke-width="0.887535" stroke-linecap="round" stroke-linejoin="round"/>
<path d="M62.7402 39.7556H64.9011" stroke="#2E353A" stroke-width="0.887535" stroke-linecap="round" stroke-linejoin="round"/>
<path d="M73.6523 39.7556H86.4805" stroke="#2E353A" stroke-width="0.887535" stroke-linecap="round" stroke-linejoin="round"/>
<path d="M130.443 39.7556H128.297" stroke="#2E353A" stroke-width="0.887535" stroke-linecap="round" stroke-linejoin="round"/>
<path d="M129.439 40.7552H122.152" stroke="#2E353A" stroke-width="0.887535" stroke-linecap="round" stroke-linejoin="round"/>
<path d="M30.8702 169.39H35.6771C35.6771 169.39 26.9502 161.609 30.8702 162.403C34.7902 163.196 38.2202 165.96 38.2202 165.96C38.2202 165.96 33.5848 161.599 36.7894 162.393C39.994 163.187 39.8617 164.5 39.8617 164.5C39.8617 164.5 40.1116 155.077 42.9389 157.679C44.5802 159.114 45.5935 161.135 45.7613 163.309C45.7613 163.309 51.803 155.837 53.1113 156.248C54.4196 156.66 54.4196 161.232 54.4196 161.232C54.4196 161.232 64.5675 152.96 62.7251 157.679C60.8827 162.398 59.6528 164.172 59.6528 164.172C59.6528 164.172 64.4156 159.962 63.808 162.393C63.5486 163.566 63.1862 164.714 62.7251 165.823C62.7251 165.823 69.8889 168.067 68.8305 168.062C67.7721 168.057 65.7974 169.419 65.7974 169.419C65.7974 169.419 77.8955 167.459 75.5974 169.419C73.2993 171.379 54.4098 171.051 54.4098 171.051C54.4098 171.051 63.6365 173.31 59.6675 173.31C55.6985 173.31 49.4559 171.673 49.4559 171.673C49.4559 171.673 40.1459 173.633 36.809 173.31C33.4721 172.987 42.9585 171.673 42.9585 171.673C42.9585 171.673 24.9069 171.693 30.8702 169.39Z" fill="#2E353A" stroke="#2E353A" stroke-width="0.916642" stroke-linecap="round" stroke-linejoin="round"/>
</svg>
