<svg width="15" height="19" viewBox="0 0 15 19" fill="none" xmlns="http://www.w3.org/2000/svg">
<path d="M15 2.03204C15.0001 1.81872 14.938 1.60977 14.8209 1.42957C14.7039 1.24938 14.5367 1.10536 14.339 1.01432C14.1412 0.923284 13.921 0.888977 13.704 0.915404C13.487 0.941832 13.2822 1.0279 13.1135 1.16358L0.422112 11.3579C-0.412755 12.0284 0.0738662 13.3513 1.1555 13.3513H7.60382C7.85186 13.3513 8.09701 13.4033 8.32264 13.5039C8.54826 13.6044 8.74908 13.7511 8.91147 13.9341L12.9751 18.516C13.6739 19.3035 15 18.8209 15 17.7792V2.03204ZM1.1555 12.2264L13.8469 2.03204V17.7792L9.78323 13.1983C9.51266 12.8933 9.17799 12.6487 8.80195 12.481C8.42591 12.3133 8.01729 12.2264 7.60382 12.2264H1.1555Z" fill="#4116F7"/>
</svg>
