<svg width="68" height="68" viewBox="0 0 68 68" fill="none" xmlns="http://www.w3.org/2000/svg">
<rect width="68" height="68" rx="34" fill="#DCF0FF"/>
<path d="M28.4081 28.9656C28.8804 27.8994 29.9503 27.154 31.1975 27.154C32.441 27.154 33.5109 27.8994 33.9869 28.9656H42.632V27.9657C41.525 27.7443 40.647 26.8699 40.4256 25.7629H21.9701C21.7487 26.8699 20.8707 27.7443 19.7637 27.9657V32.4413C20.2582 32.541 20.7083 32.7697 21.0735 33.0906V30.6516C21.0735 29.7219 21.8298 28.9655 22.7598 28.9655L28.4081 28.9656Z" fill="#4116F7"/>
<path d="M19.2105 33.4935C18.9042 33.4935 18.657 33.2463 18.657 32.94V27.4681C18.657 27.1619 18.9042 26.9146 19.2105 26.9146C20.1514 26.9146 20.9187 26.151 20.9187 25.21C20.9187 24.9038 21.1659 24.6565 21.4722 24.6565H40.9239C41.2301 24.6565 41.4774 24.9038 41.4774 25.21C41.4774 26.1509 42.2447 26.9146 43.1856 26.9146C43.4918 26.9146 43.7391 27.1618 43.7391 27.4681V28.9662H45.3959V23.9446C45.3959 23.4243 44.9716 23 44.4477 23H17.9482C17.4242 23 17 23.4243 17 23.9446V36.4596C17 36.9836 17.4243 37.4079 17.9482 37.4079H21.0733V35.5813C20.9775 35.4816 20.9182 35.349 20.9182 35.1976C20.9185 34.2569 20.1509 33.4932 19.21 33.4932L19.2105 33.4935Z" fill="#4116F7"/>
<path d="M45.2367 32.467H26.7806C26.5592 33.574 25.6812 34.4484 24.5742 34.6698V39.1454C25.6812 39.3668 26.5592 40.2412 26.7806 41.3481H45.2361C45.4575 40.2412 46.3355 39.3668 47.4425 39.1454V34.6698C46.3358 34.4484 45.4578 33.574 45.2364 32.467H45.2367ZM36.0087 39.9574C34.3263 39.9574 32.9572 38.5922 32.9572 36.9098C32.9572 35.2235 34.326 33.8583 36.0087 33.8583C37.6947 33.8583 39.0599 35.2235 39.0599 36.9098C39.0602 38.5922 37.695 39.9574 36.0087 39.9574Z" fill="#4116F7"/>
<path d="M49.2582 29.7041H22.7588C22.2348 29.7041 21.8105 30.1284 21.8105 30.6523V43.1674C21.8105 43.6877 22.2348 44.112 22.7588 44.112H49.2582C49.7822 44.112 50.2064 43.6877 50.2064 43.1674V30.6523C50.2064 30.1283 49.7822 29.7041 49.2582 29.7041ZM48.5499 39.6444C48.5499 39.9506 48.3027 40.1979 47.9964 40.1979C47.0555 40.1979 46.2882 40.9615 46.2882 41.9025C46.2882 42.2087 46.0409 42.4559 45.7347 42.4559L26.2824 42.4557C25.9761 42.4557 25.7289 42.2085 25.7289 41.9022C25.7289 40.9613 24.9616 40.1976 24.0207 40.1976C23.7144 40.1976 23.4672 39.9504 23.4672 39.6441V34.1725C23.4672 33.8662 23.7144 33.619 24.0207 33.619C24.9616 33.619 25.7289 32.8553 25.7289 31.9144C25.7289 31.6081 25.9761 31.3609 26.2824 31.3609H45.7341C46.0403 31.3609 46.2876 31.6081 46.2876 31.9144C46.2876 32.8553 47.0551 33.619 47.9958 33.619C48.302 33.619 48.5493 33.8662 48.5493 34.1725L48.5499 39.6444Z" fill="#4116F7"/>
</svg>
