<svg width="12" height="12" viewBox="0 0 12 12" fill="none" xmlns="http://www.w3.org/2000/svg">
<path d="M11.5475 0.885119V3.09148C11.5475 3.20851 11.5011 3.32075 11.4183 3.4035C11.3355 3.48626 11.2233 3.53275 11.1063 3.53275C10.9892 3.53275 10.877 3.48626 10.7943 3.4035C10.7115 3.32075 10.665 3.20851 10.665 3.09148V1.32639H8.89992C8.78289 1.32639 8.67065 1.2799 8.58789 1.19715C8.50514 1.11439 8.45865 1.00215 8.45865 0.885119C8.45865 0.768087 8.50514 0.655848 8.58789 0.573093C8.67065 0.490339 8.78289 0.443848 8.89992 0.443848H11.1063C11.2233 0.443848 11.3355 0.490339 11.4183 0.573093C11.5011 0.655848 11.5475 0.768087 11.5475 0.885119ZM3.60466 10.1518H1.83957V8.38674C1.83957 8.2697 1.79308 8.15746 1.71033 8.07471C1.62757 7.99195 1.51534 7.94546 1.3983 7.94546C1.28127 7.94546 1.16903 7.99195 1.08628 8.07471C1.00352 8.15746 0.957031 8.2697 0.957031 8.38674V10.5931C0.957031 10.7101 1.00352 10.8224 1.08628 10.9051C1.16903 10.9879 1.28127 11.0344 1.3983 11.0344H3.60466C3.72169 11.0344 3.83393 10.9879 3.91669 10.9051C3.99944 10.8224 4.04593 10.7101 4.04593 10.5931C4.04593 10.4761 3.99944 10.3638 3.91669 10.2811C3.83393 10.1983 3.72169 10.1518 3.60466 10.1518ZM11.1063 7.94546C10.9892 7.94546 10.877 7.99195 10.7943 8.07471C10.7115 8.15746 10.665 8.2697 10.665 8.38674V10.1518H8.89992C8.78289 10.1518 8.67065 10.1983 8.58789 10.2811C8.50514 10.3638 8.45865 10.4761 8.45865 10.5931C8.45865 10.7101 8.50514 10.8224 8.58789 10.9051C8.67065 10.9879 8.78289 11.0344 8.89992 11.0344H11.1063C11.2233 11.0344 11.3355 10.9879 11.4183 10.9051C11.5011 10.8224 11.5475 10.7101 11.5475 10.5931V8.38674C11.5475 8.2697 11.5011 8.15746 11.4183 8.07471C11.3355 7.99195 11.2233 7.94546 11.1063 7.94546ZM1.3983 3.53275C1.51534 3.53275 1.62757 3.48626 1.71033 3.4035C1.79308 3.32075 1.83957 3.20851 1.83957 3.09148V1.32639H3.60466C3.72169 1.32639 3.83393 1.2799 3.91669 1.19715C3.99944 1.11439 4.04593 1.00215 4.04593 0.885119C4.04593 0.768087 3.99944 0.655848 3.91669 0.573093C3.83393 0.490339 3.72169 0.443848 3.60466 0.443848H1.3983C1.28127 0.443848 1.16903 0.490339 1.08628 0.573093C1.00352 0.655848 0.957031 0.768087 0.957031 0.885119V3.09148C0.957031 3.20851 1.00352 3.32075 1.08628 3.4035C1.16903 3.48626 1.28127 3.53275 1.3983 3.53275ZM3.16339 3.09148V8.38674C3.16339 8.50377 3.20988 8.61601 3.29263 8.69876C3.37539 8.78152 3.48763 8.82801 3.60466 8.82801H8.89992C9.01695 8.82801 9.12919 8.78152 9.21195 8.69876C9.2947 8.61601 9.34119 8.50377 9.34119 8.38674V3.09148C9.34119 2.97444 9.2947 2.86221 9.21195 2.77945C9.12919 2.6967 9.01695 2.65021 8.89992 2.65021H3.60466C3.48763 2.65021 3.37539 2.6967 3.29263 2.77945C3.20988 2.86221 3.16339 2.97444 3.16339 3.09148Z" fill="#8F9BBA"/>
</svg>
