<svg width="18" height="18" viewBox="0 0 18 18" fill="none" xmlns="http://www.w3.org/2000/svg">
<g clip-path="url(#clip0_939_2068)">
<path fill-rule="evenodd" clip-rule="evenodd" d="M2.63587 2.63587C6.15112 -0.878625 11.8497 -0.878625 15.3642 2.63587C18.8794 6.15037 18.8794 11.8497 15.3642 15.3641C11.8489 18.8786 6.15038 18.8786 2.63587 15.3641C-0.878625 11.8489 -0.878625 6.15112 2.63587 2.63587ZM11.9082 5.58058C12.2268 5.19087 12.7942 5.13821 13.1758 5.46268C13.5579 5.78759 13.6096 6.36632 13.2915 6.75604L8.2733 12.9001L4.90083 10.606C4.48727 10.3247 4.37566 9.75456 4.65107 9.33246C4.92648 8.9103 5.48586 8.79599 5.89898 9.07767L7.92589 10.4566L11.9082 5.58058Z" fill="#4116F7"/>
</g>
<defs>
<clipPath id="clip0_939_2068">
<rect width="18" height="18" fill="white"/>
</clipPath>
</defs>
</svg>
