<svg width="40" height="33" viewBox="0 0 40 33" fill="none" xmlns="http://www.w3.org/2000/svg">
<path d="M40 4.67144C38.5277 5.33027 36.9407 5.76321 35.2964 5.97027C36.979 4.97262 38.2792 3.39144 38.891 1.49027C37.304 2.43144 35.5449 3.09027 33.6902 3.46674C32.1797 1.84791 30.0574 0.906738 27.6482 0.906738C23.1549 0.906738 19.4837 4.52086 19.4837 8.98203C19.4837 9.62203 19.5602 10.2432 19.6941 10.8267C12.8872 10.4879 6.826 7.26909 2.79159 2.3938C2.08413 3.57968 1.6826 4.97262 1.6826 6.44086C1.6826 9.24556 3.11663 11.7303 5.33461 13.142C3.97706 13.142 2.71511 12.7656 1.60612 12.2009V12.2573C1.60612 16.1726 4.43595 19.4479 8.18356 20.182C6.98036 20.5062 5.7172 20.5513 4.49331 20.3138C5.01263 21.9185 6.02971 23.3226 7.40156 24.3287C8.77342 25.3349 10.4311 25.8925 12.1415 25.9232C9.24212 28.1829 5.64818 29.4043 1.95029 29.3867C1.30019 29.3867 0.650096 29.3491 0 29.2738C3.63289 31.5703 7.95411 32.9067 12.5813 32.9067C27.6482 32.9067 35.9273 20.5961 35.9273 9.92321C35.9273 9.56556 35.9273 9.22674 35.9082 8.86909C37.5143 7.73968 38.891 6.30909 40 4.67144Z" fill="#4116F7"/>
</svg>
