<svg width="18" height="19" viewBox="0 0 18 19" fill="none" xmlns="http://www.w3.org/2000/svg">
<path d="M15.3769 3.52578C14.5476 2.69232 13.5599 2.03149 12.4712 1.58184C11.3826 1.13218 10.2149 0.902706 9.03618 0.906792C4.09749 0.906792 0.0723619 4.91178 0.0723619 9.82576C0.0723619 11.4008 0.488442 12.9308 1.26633 14.2808L0 18.9067L4.74874 17.6647C6.0603 18.3757 7.53467 18.7537 9.03618 18.7537C13.9749 18.7537 18 14.7488 18 9.83477C18 7.44977 17.0683 5.20878 15.3769 3.52578ZM9.03618 17.2417C7.69749 17.2417 6.38593 16.8817 5.23719 16.2067L4.96583 16.0447L2.14372 16.7827L2.89447 14.0468L2.71357 13.7678C1.96982 12.586 1.5749 11.2201 1.57387 9.82576C1.57387 5.73978 4.9206 2.40979 9.02713 2.40979C11.0171 2.40979 12.8894 3.18379 14.2915 4.58778C14.9857 5.27535 15.5358 6.09317 15.91 6.99386C16.2842 7.89454 16.475 8.86017 16.4714 9.83477C16.4894 13.9208 13.1427 17.2417 9.03618 17.2417ZM13.1246 11.6978C12.8985 11.5898 11.795 11.0498 11.596 10.9688C11.3879 10.8968 11.2432 10.8608 11.0894 11.0768C10.9357 11.3018 10.5106 11.8058 10.3839 11.9498C10.2573 12.1028 10.1216 12.1208 9.89548 12.0038C9.66935 11.8958 8.94573 11.6528 8.09548 10.8968C7.42613 10.3028 6.98291 9.57377 6.84724 9.34877C6.7206 9.12377 6.82914 9.00677 6.94673 8.88977C7.04623 8.79077 7.17286 8.62877 7.28141 8.50277C7.38995 8.37677 7.43518 8.27777 7.50754 8.13377C7.5799 7.98077 7.54372 7.85477 7.48945 7.74677C7.43517 7.63877 6.98291 6.54078 6.80201 6.09078C6.6211 5.65878 6.43116 5.71278 6.29548 5.70378H5.86131C5.70754 5.70378 5.47236 5.75778 5.26432 5.98278C5.06533 6.20778 4.48643 6.74777 4.48643 7.84577C4.48643 8.94377 5.29146 10.0058 5.4 10.1498C5.50854 10.3028 6.98291 12.5528 9.22613 13.5158C9.7598 13.7498 10.1759 13.8848 10.5015 13.9838C11.0352 14.1548 11.5236 14.1278 11.9126 14.0738C12.3467 14.0108 13.2422 13.5338 13.4231 13.0118C13.6131 12.4898 13.6131 12.0488 13.5497 11.9498C13.4864 11.8508 13.3508 11.8058 13.1246 11.6978Z" fill="#4116F7"/>
</svg>
